<?xml version="1.0" encoding="utf-8"?>
<!-- Generator: Adobe Illustrator 19.2.1, SVG Export Plug-In . SVG Version: 6.00 Build 0)  -->
<svg version="1.1" id="Layer_1" xmlns="http://www.w3.org/2000/svg" xmlns:xlink="http://www.w3.org/1999/xlink" x="0px" y="0px"
	 viewBox="0 0 14.9 14.9" style="enable-background:new 0 0 14.9 14.9;" xml:space="preserve">
<title>Delete 14.3</title>
<desc>Created with Sketch.</desc>
<g>
	<g>
		<path d="M9.5,7.4l4.9,4.9c0.6,0.6,0.6,1.5,0,2.1s-1.5,0.6-2.1,0L7.4,9.5l-4.9,4.9C1.9,15,1,15,0.4,14.4s-0.6-1.5,0-2.1l4.9-4.9
			L0.4,2.5c-0.6-0.6-0.6-1.5,0-2.1s1.5-0.6,2.1,0l4.9,4.9l4.9-4.9c0.6-0.6,1.5-0.6,2.1,0s0.6,1.5,0,2.1L9.5,7.4L9.5,7.4z"/>
	</g>
</g>
</svg>
