<?xml version="1.0" encoding="utf-8"?>
<!-- Generator: Adobe Illustrator 19.2.1, SVG Export Plug-In . SVG Version: 6.00 Build 0)  -->
<svg version="1.1" id="Layer_1" xmlns="http://www.w3.org/2000/svg" xmlns:xlink="http://www.w3.org/1999/xlink" x="0px" y="0px"
	 viewBox="0 0 28.6 25.6" style="enable-background:new 0 0 28.6 25.6;" xml:space="preserve">
<style type="text/css">
	.st0{fill:#FFFFFF;}
</style>
<title>Business Report</title>
<path class="st0" d="M26.6,0H2C0.9,0,0,0.9,0,2v16.4c0,1.1,0.9,2,2,2h8.1v0.7c0,1.1-0.9,2-2,2c-0.3,0-0.5,0.2-0.5,0.5v1.5
	c0,0.3,0.2,0.5,0.5,0.5h12.3c0.3,0,0.5-0.2,0.5-0.5v-1.5c0-0.3-0.2-0.5-0.5-0.5c-1.1,0-2-0.9-2-2v-0.7h8.2c1.1,0,2-0.9,2-2V2
	C28.6,0.9,27.7,0,26.6,0z M19.9,24.1v0.4H8.7v-0.4c1.4-0.3,2.5-1.5,2.5-3v-0.7h6.2v0.7C17.4,22.6,18.5,23.9,19.9,24.1z M27.5,18.2
	v0.2c0,0.5-0.4,0.9-0.9,0.9H2c-0.5,0-0.9-0.4-0.9-0.9V2c0-0.5,0.4-0.9,0.9-0.9h24.6c0.5,0,0.9,0.4,0.9,0.9V18.2z"/>
<path class="st0" d="M25.6,2.5H3C2.7,2.5,2.5,2.7,2.5,3v13.4c0,0.3,0.2,0.5,0.5,0.5h22.6c0.3,0,0.5-0.2,0.5-0.5V3
	C26.1,2.7,25.9,2.5,25.6,2.5z M25.1,15.9H3.5V3.5h21.6C25.1,3.5,25.1,15.9,25.1,15.9z"/>
<circle class="st0" cx="14.3" cy="18.1" r="0.6"/>
<path class="st0" d="M13.7,13.4c1.1,0,2.2-0.4,3-1.2l2.2,2.2c0.1,0.1,0.2,0.2,0.4,0.2s0.3,0,0.4-0.2l0.1-0.1c0.2-0.2,0.2-0.6,0-0.8
	l-2.2-2.2c0,0,0,0-0.1,0c0.4-0.6,0.6-1.4,0.6-2.2c0-2.4-1.9-4.3-4.3-4.3S9.4,6.7,9.4,9.1S11.3,13.4,13.7,13.4z M13.7,5.8
	c1.8,0,3.3,1.5,3.3,3.3s-1.5,3.3-3.3,3.3s-3.3-1.5-3.3-3.3S11.9,5.8,13.7,5.8z"/>
</svg>
