<?xml version="1.0" encoding="utf-8"?>
<!-- Generator: Adobe Illustrator 20.1.0, SVG Export Plug-In . SVG Version: 6.00 Build 0)  -->
<svg version="1.1" id="Layer_1" xmlns="http://www.w3.org/2000/svg" xmlns:xlink="http://www.w3.org/1999/xlink" x="0px" y="0px"
	 viewBox="0 0 54 45" style="enable-background:new 0 0 54 45;" xml:space="preserve">
<title>Levers 4.5</title>
<desc>Created with Sketch.</desc>
<g>
	<g>
		<path d="M49,20.4L49,20.4c2.9,1,5,3.8,5,7.1s-2.1,6-5,7.1v7.9c0,1.4-1.1,2.5-2.5,2.5S44,43.9,44,42.5v-7.9c-2.9-1-5-3.8-5-7.1
			s2.1-6,5-7.1V2.5C44,1.1,45.1,0,46.5,0S49,1.1,49,2.5V20.4z M34.5,10.5c0,3.2-2,6-5,7.1v24.9c0,1.4-1.1,2.5-2.5,2.5
			s-2.5-1.1-2.5-2.5V17.6c-3-1-5-3.9-5-7.1c0-3.2,2-6,5-7.1V2.5C24.5,1.1,25.6,0,27,0s2.5,1.1,2.5,2.5v0.9
			C32.5,4.5,34.5,7.3,34.5,10.5z M10,2.5C10,1.1,8.9,0,7.5,0S5,1.1,5,2.5v24.9c-2.9,1-5,3.8-5,7.1c0,3.3,2.1,6,5,7.1v0.9
			C5,43.9,6.1,45,7.5,45s2.5-1.1,2.5-2.5v-0.9c2.9-1,5-3.8,5-7.1c0-3.3-2.1-6-5-7.1V2.5z"/>
	</g>
</g>
</svg>
