<?xml version="1.0" encoding="utf-8"?>
<!-- Generator: Adobe Illustrator 19.2.1, SVG Export Plug-In . SVG Version: 6.00 Build 0)  -->
<svg version="1.1"
	 id="Layer_1" xmlns:cc="http://creativecommons.org/ns#" xmlns:dc="http://purl.org/dc/elements/1.1/" xmlns:inkscape="http://www.inkscape.org/namespaces/inkscape" xmlns:rdf="http://www.w3.org/1999/02/22-rdf-syntax-ns#" xmlns:sodipodi="http://sodipodi.sourceforge.net/DTD/sodipodi-0.dtd" xmlns:svg="http://www.w3.org/2000/svg"
	 xmlns="http://www.w3.org/2000/svg" xmlns:xlink="http://www.w3.org/1999/xlink" x="0px" y="0px" viewBox="0 0 25.9 26"
	 style="enable-background:new 0 0 25.9 26;" xml:space="preserve">
<style type="text/css">
	.st0{fill:#FFFFFF;}
</style>
<circle class="st0" cx="9.5" cy="23.5" r="0.5"/>
<g>
	<path class="st0" d="M23.9,4c-1.1,0-2,0.9-2,2v4.8c-0.7-0.2-1.4-0.2-2,0.3l-3.7,3c-0.8,0.6-1.3,1.6-1.3,2.7v4V21h-0.5
		c-0.3,0-0.5,0.2-0.5,0.5v4c0,0.3,0.2,0.5,0.5,0.5h9c0.3,0,0.5-0.2,0.5-0.5v-4c0-0.3-0.2-0.5-0.5-0.5h-1.5v-0.2V20
		c0-0.2,0.1-0.3,0.2-0.4l2-1.5c1.1-0.8,1.8-2.2,1.8-3.6v-1V6C25.9,4.9,25,4,23.9,4z M22.9,22v3h-8v-3h0.5h6H22.9z M24.9,13.5v1
		c0,1.1-0.5,2.1-1.4,2.8l-2,1.5c-0.4,0.3-0.6,0.7-0.6,1.2v0.8V21H16l0,0v-4.3c0-0.7,0.3-1.4,0.9-1.9l3.7-3c0.4-0.3,1.1-0.2,1.4,0.2
		s0.2,1.1-0.2,1.4l-3.3,2.7c-0.4,0.3-0.6,0.7-0.6,1.2v0.2c0,0.3,0.2,0.5,0.5,0.5s0.5-0.2,0.5-0.5v-0.2c0-0.2,0.1-0.3,0.2-0.4
		l3.3-2.7c0.8-0.6,1-1.8,0.5-2.6v-0.1V6c0-0.6,0.4-1,1-1s1,0.4,1,1V13.5z"/>
	<path class="st0" d="M11.5,21H11v-0.2v-4c0-1.1-0.5-2.1-1.3-2.7l-3.7-3c-0.6-0.5-1.3-0.5-2-0.3V6c0-1.1-0.9-2-2-2S0,4.9,0,6v7.5v1
		c0,1.4,0.7,2.8,1.8,3.6l2,1.5C3.9,19.7,4,19.8,4,20v0.8V21H2.5C2.2,21,2,21.2,2,21.5v4C2,25.8,2.2,26,2.5,26h9
		c0.3,0,0.5-0.2,0.5-0.5v-4C11.9,21.2,11.7,21,11.5,21z M4.4,18.8l-2-1.5C1.5,16.6,1,15.6,1,14.5v-1V6c0-0.6,0.4-1,1-1s1,0.4,1,1
		v5.5v0.1c-0.5,0.8-0.3,2,0.5,2.6l3.3,2.7C6.9,17,7,17.1,7,17.3v0.2C7,17.8,7.2,18,7.5,18S8,17.8,8,17.5v-0.2c0-0.5-0.2-0.9-0.6-1.2
		l-3.3-2.7c-0.4-0.3-0.5-1-0.2-1.4s1-0.5,1.4-0.2l3.7,3c0.6,0.5,0.9,1.2,0.9,1.9v4V21H5v-0.2V20C5,19.5,4.8,19.1,4.4,18.8z M10.9,25
		h-8v-3h1.5h6h0.5V25z"/>
</g>
<circle class="st0" cx="16.5" cy="23.5" r="0.5"/>
<path class="st0" d="M13,13c3.6,0,6.5-2.9,6.5-6.5S16.6,0,13,0C9.4,0,6.5,2.9,6.5,6.5S9.4,13,13,13z M12.9,1c3,0,5.5,2.5,5.5,5.5
	S15.9,12,12.9,12S7.4,9.5,7.4,6.5S9.9,1,12.9,1z"/>
<path class="st0" d="M11,7.8h0.3h0.1v1.7v0.2v0.1c0,0.1,0.1,0.2,0.2,0.2H12c0.1,0,0.2-0.1,0.2-0.2V9.7V9.5V7.8h2.2h0.3
	c0.1,0,0.1-0.1,0.1-0.2V7.3c0-0.1-0.1-0.1-0.1-0.2h-0.3h-2.2V6.9H14c0.7,0,1.2-0.2,1.5-0.6C15.8,6,16,5.7,16,5.1
	c0-0.3-0.1-0.6-0.2-0.9c-0.1-0.3-0.3-0.4-0.4-0.6c-0.2-0.2-0.5-0.3-0.7-0.4c-0.2,0-0.4-0.1-0.8-0.1h-2.5v3h-0.1H11
	c-0.1,0-0.2,0.1-0.2,0.2v0.3c0,0.1,0.1,0.2,0.2,0.2h0.3h0.1v0.3h-0.1H11c-0.1,0-0.2,0.1-0.2,0.2v0.3C10.8,7.7,10.9,7.8,11,7.8z
	 M12,3.9h1.9c0.3,0,0.5,0,0.6,0.1c0.2,0.1,0.3,0.2,0.4,0.4c0.1,0.2,0.2,0.4,0.2,0.7c-0.1,0.3-0.2,0.6-0.4,0.8s-0.4,0.3-0.9,0.3H12
	V3.9z"/>
</svg>
