<?xml version="1.0" encoding="UTF-8"?>
<svg width="62px" height="57px" viewBox="0 0 62 57" version="1.1" xmlns="http://www.w3.org/2000/svg" xmlns:xlink="http://www.w3.org/1999/xlink">
    <g id="Page-1" stroke="none" stroke-width="1" fill="none" fill-rule="evenodd">
        <g id="heart" fill-rule="nonzero">
            <path fill="#cbf2c0" d="M37.6,10.3 L33.2,15 L33.1,15.1 C31.9,16.2 30,16.2 28.9,15 L24.5,10.3 C22.4,8 19.6,6.9 16.9,6.9 C14.2,6.9 11.5,8 9.3,10.3 C5,14.8 5,22.2 9.3,26.7 L31,49.6 C38.3,42 45.5,34.3 52.8,26.7 C57.1,22.2 57.1,14.8 52.8,10.3 C48.5,5.8 41.9,5.8 37.6,10.3 Z" id="Shape" fill="#CBF2C0"></path>
            <path fill="#75d15f" d="M33.2,6.2 L31,8.5 L28.8,6.1 C25.5,2.7 21.2,1 16.9,1 C12.6,1 8.2,2.7 5,6.1 C-1.5,12.9 -1.5,23.9 5,30.8 L28.8,56 C29.9,57.2 31.8,57.2 33,56.1 L33.1,56 C41.1,47.6 49.1,39.2 57.1,30.8 C63.6,24 63.6,13 57.1,6.1 C50.6,-0.8 39.8,-0.7 33.2,6.2 Z M52.8,26.7 C45.5,34.4 38.3,42 31,49.6 L9.2,26.7 C4.9,22.2 4.9,14.8 9.2,10.3 C11.3,8 14.1,6.9 16.8,6.9 C19.5,6.9 22.2,8 24.4,10.3 L28.8,15 C29.9,16.2 31.8,16.2 33,15.1 L33.1,15 L37.5,10.3 C41.8,5.8 48.4,5.8 52.7,10.3 C57.1,14.8 57.1,22.2 52.8,26.7 Z" id="Shape" fill="#74D15E"></path>
        </g>
    </g>
</svg>