<?xml version="1.0" encoding="utf-8"?>
<!-- Generator: Adobe Illustrator 21.0.0, SVG Export Plug-In . SVG Version: 6.00 Build 0)  -->
<svg version="1.1" id="Layer_1" xmlns="http://www.w3.org/2000/svg" xmlns:xlink="http://www.w3.org/1999/xlink" x="0px" y="0px"
	 viewBox="0 0 24 27.5" style="enable-background:new 0 0 24 27.5;" xml:space="preserve">
<style type="text/css">
	.st0{fill:none;stroke:#000000;stroke-width:2;}
	.st1{fill:none;stroke:#000000;stroke-width:2;stroke-linecap:round;stroke-linejoin:round;}
</style>
<title>74 -Important Folder- (document, paper, write, note)</title>
<desc>Created with Sketch.</desc>
<g>
	<g transform="translate(-242.000000, -641.000000)">
		<g transform="translate(243.000000, 642.000000)">
			<path class="st0" d="M20.1,20H1.9C0.9,20,0,19.1,0,18.1V7.9C0,6.9,0.9,6,1.9,6h18.1C21.1,6,22,6.9,22,7.9v10.1
				C22,19.1,21.1,20,20.1,20L20.1,20z"/>
			<path class="st0" d="M20,6H2V1.3C2,0.6,2.6,0,3.3,0H7l4,2h7.7C19.4,2,20,2.6,20,3.3V6L20,6z"/>
			<polygon class="st1" points="17,14 14,11 11,14 11,6 17,6 			"/>
		</g>
	</g>
</g>
</svg>
