<?xml version="1.0" encoding="utf-8"?>
<!-- Generator: Adobe Illustrator 20.1.0, SVG Export Plug-In . SVG Version: 6.00 Build 0)  -->
<svg version="1.1" id="Layer_1" xmlns="http://www.w3.org/2000/svg" xmlns:xlink="http://www.w3.org/1999/xlink" x="0px" y="0px"
	 viewBox="0 0 70.7 83.8" style="enable-background:new 0 0 70.7 83.8;" xml:space="preserve">
<path style="fill:#14C1E5;" d="M60.3,10.4C60.3,10.4,60.3,10.2,60.3,10.4c-13.8-13.8-36.2-13.8-50,0l0,0
	c-13.8,13.8-13.8,36.3,0,50.1l22.2,22.2c0.8,0.8,1.8,1.2,2.8,1.2s2-0.4,2.8-1.2l22.2-22.3C74.2,46.5,74.2,24.1,60.3,10.4z
	 M35.3,46.3c-8,0-14.5-6.5-14.5-14.5s6.5-14.5,14.5-14.5s14.5,6.5,14.5,14.5S43.3,46.3,35.3,46.3z"/>
</svg>
