<?xml version="1.0" encoding="utf-8"?>
<!-- Generator: Adobe Illustrator 19.2.1, SVG Export Plug-In . SVG Version: 6.00 Build 0)  -->
<svg version="1.1" id="Layer_1" xmlns="http://www.w3.org/2000/svg" xmlns:xlink="http://www.w3.org/1999/xlink" x="0px" y="0px"
	 viewBox="0 0 66.3 86.2" style="enable-background:new 0 0 66.3 86.2;" xml:space="preserve">
<style type="text/css">
	.st0{fill:none;stroke:#000000;stroke-width:8;stroke-linecap:round;stroke-miterlimit:10;}
	.st1{stroke:#000000;stroke-width:8;stroke-linecap:round;stroke-miterlimit:10;}
</style>
<title>Замок</title>
<path class="st0" d="M6.6,35.7h53.1c1.4,0,2.6,1.1,2.6,2.6v41.3c0,1.4-1.1,2.6-2.6,2.6H6.6c-1.4,0-2.6-1.1-2.6-2.6V38.3
	C4.1,36.9,5.2,35.7,6.6,35.7z"/>
<circle class="st1" cx="33.2" cy="59" r="2.7"/>
<line class="st0" x1="33.2" y1="59" x2="33.2" y2="68.8"/>
<path class="st0" d="M13.3,24.3C13.1,13.3,21.8,4.2,32.8,4s20.1,8.5,20.3,19.4c0,0.3,0,0.6,0,0.9"/>
<line class="st0" x1="13.3" y1="24.3" x2="13.3" y2="35.7"/>
<line class="st0" x1="53.1" y1="24.3" x2="53.1" y2="35.7"/>
</svg>
