<?xml version="1.0" encoding="utf-8"?>
<!-- Generator: Adobe Illustrator 21.0.0, SVG Export Plug-In . SVG Version: 6.00 Build 0)  -->
<svg version="1.1" id="Layer_1" xmlns="http://www.w3.org/2000/svg" xmlns:xlink="http://www.w3.org/1999/xlink" x="0px" y="0px"
	 viewBox="0 0 3000 2500" style="enable-background:new 0 0 3000 2500;" xml:space="preserve">
<style type="text/css">
	.st0{fill:#14C1E5;}
	.st1{fill:#0C97C1;}
	.st2{fill:#FF016E;}
	.st3{fill:#FFFFFF;}
	.st4{fill:#DBDBDB;}
	.st5{opacity:0.44;fill:#FFFFFF;enable-background:new    ;}
	.st6{fill:#DB036A;}
</style>
<g>
	<path class="st0" d="M-871.6,1079.8h-59.9c-12.9,0-19.4-8-19.4-23.9V1032h136.6c14.9,0,22.4,8.1,22.4,24.2
		c0,13.5-3.9,24.7-11.8,33.6l-66.2,98.2h77.1v24c0,16-6.4,24-19.1,24h-139.9v-24.5c0-13.7,3.9-24.9,11.8-33.6L-871.6,1079.8z"/>
	<path class="st0" d="M-610.8,1180.7c0,19.2-8.2,33.6-24.5,42.9c-16.4,9.3-35,14-55.9,14s-39.5-4.7-55.9-14s-24.5-23.6-24.5-42.9
		V1032h29.9c20,0,29.9,8.8,29.9,26.3V1172c0,11.5,6.9,17.2,20.5,17.2c13.7,0,20.5-5.8,20.5-17.2v-139.9h29.9
		c20,0,29.9,8.8,29.9,26.3L-610.8,1180.7L-610.8,1180.7z"/>
	<path class="st0" d="M-429,1175.6c0,40.3-21.4,60.5-64.1,60.5h-95.2v-204h90.7c40.7,0,61.1,16.2,61.1,48.6
		c0,21.4-8.1,36.1-24.5,44.4C-439.6,1135.3-429,1152.2-429,1175.6z M-493,1092.8c0-13.1-6.6-19.7-19.7-19.7h-15.7v39.3h16.3
		C-499.3,1112.4-493,1105.9-493,1092.8z M-488.7,1172.2c0-14.7-7.4-22.1-22.1-22.1h-17.5v44.1h18.1
		C-495.9,1194.3-488.7,1186.9-488.7,1172.2z"/>
	<path class="st0" d="M-330.8,1079.8h-59.9c-12.9,0-19.4-8-19.4-23.9V1032h136.6c14.9,0,22.4,8.1,22.4,24.2
		c0,13.5-3.9,24.7-11.8,33.6L-329,1188h77.1v24c0,16-6.4,24-19.1,24h-139.9v-24.5c0-13.7,3.9-24.9,11.8-33.6L-330.8,1079.8z"/>
	<path class="st0" d="M-169.1,1200.1l-5.8,15.4c-5.2,13.7-13.6,20.5-25.3,20.5c-11.8,0-20.2-3.6-25.2-10.8
		c-5.1-7.2-7.6-13.7-7.6-19.4c0-5.8,1.3-11.4,3.8-16.9l71.5-156.8h19.4c12.9,0,22.4,6.9,28.5,20.5l62.5,136.3
		c2.6,5.6,3.9,11.3,3.9,17.1c0,5.8-2.4,12.2-7.4,19.4c-5,7.2-13.4,10.7-25.3,10.7c-12,0-20.5-6.9-25.6-20.5l-5.8-15.4L-169.1,1200.1
		L-169.1,1200.1z M-125.2,1151.7l-13-35.3l-13,35.3H-125.2z"/>
</g>
<path class="st1" d="M-1112.8,1307.8h-250.1c-25.7,0-46.7-21-46.7-46.7V1011c0-25.7,21-46.7,46.7-46.7h250.1
	c25.7,0,46.7,21,46.7,46.7v250C-1066,1286.7-1087,1307.8-1112.8,1307.8z"/>
<path class="st2" d="M-1157.1,1153.8c-0.9,0-1.8,0-2.7,0c-26.3,0.3-51.5,6.6-75.6,18.4c-24.1-11.9-49.3-18.1-75.6-18.4
	c-0.9,0-1.8,0-2.7,0c-36.7,0-69.6,11.3-95.9,24.7c0,16,0,136.4,0,136.4h343.6c0,0,0-120.3,0-138.7
	C-1091.4,1163.8-1122.6,1153.8-1157.1,1153.8z"/>
<g>
	<path class="st3" d="M-1392.4,997.5c-7.9,7.9-12.9,18-14.5,28.8c4.6,6.1,12,10.1,20.2,10.1h28.6c13.9,0,25.2-11.4,25.2-25.2v-28.7
		h-23.8C-1370.1,982.6-1382.8,987.9-1392.4,997.5z"/>
	<path class="st3" d="M-1233.5,1011.2c0,13.9,11.4,25.2,25.2,25.2h28.6c13.9,0,25.2-11.4,25.2-25.2v-28.7h-79L-1233.5,1011.2
		L-1233.5,1011.2z"/>
	<path class="st3" d="M-1119.1,1036.4h28.6c8.3,0,15.6-4,20.2-10.1c-1.5-10.8-6.5-20.9-14.5-28.8c-9.6-9.6-22.4-15-35.9-15h-23.8
		v28.7C-1144.3,1025.1-1133,1036.4-1119.1,1036.4z"/>
	<path class="st3" d="M-1074.9,1248c-4.3-3.4-9.7-5.4-15.7-5.4h-28.6c-13.9,0-25.2,11.4-25.2,25.2v25.7v8.9v2.7h23.8
		c13.5,0,26.2-5.3,35.9-15c9.3-9.3,14.5-21.5,14.9-34.5c0-0.4,0-0.9,0-1.4v-0.9C-1071.2,1251.4-1072.9,1249.6-1074.9,1248z"/>
	<path class="st3" d="M-1179.7,1242.6h-28.6c-13.9,0-25,11.2-25.2,25c0,0.1,0,0.2,0,0.3v37.3h37.5h41.5v-37.3
		C-1154.5,1253.9-1165.8,1242.6-1179.7,1242.6z"/>
	<path class="st3" d="M-1269,1242.6h-28.6c-13.9,0-25.2,11.4-25.2,25.2v37.3h41.5h37.5v-37.3c0-0.1,0-0.2,0-0.3
		C-1243.8,1253.7-1255.1,1242.6-1269,1242.6z"/>
	<path class="st3" d="M-1358.1,1242.6h-28.6c-8.5,0-16.1,4.3-20.7,10.8v0.9c0,1.1,0,2.2,0.1,3.4c0.8,12.2,6,23.7,14.8,32.4
		c8.9,8.9,20.4,14,32.6,14.8c1,0.1,2.2,0.1,3.2,0.1h23.8v-37.2C-1332.9,1253.9-1344.2,1242.6-1358.1,1242.6z"/>
</g>
<g>
	<path class="st4" d="M-1392.4,982.5c-9.6,9.6-15,22.4-15,35.9v7.4c0.2,0.3,0.3,0.4,0.5,0.7c1.5-10.8,6.5-20.9,14.5-28.8
		c9.6-9.6,22.4-15,35.9-15h23.8v-15.1h-23.8C-1370.1,967.5-1382.8,972.8-1392.4,982.5z"/>
	<rect x="-1233.5" y="967.5" class="st4" width="79.1" height="15.1"/>
	<path class="st4" d="M-1084.8,982.5c-9.6-9.6-22.4-15-35.9-15h-23.8v15.1h23.8c13.5,0,26.2,5.3,35.9,15c7.9,7.9,12.9,18,14.5,28.8
		c0.2-0.3,0.3-0.4,0.5-0.7v-7.3C-1069.8,1004.8-1075.2,992.1-1084.8,982.5z"/>
	<path class="st4" d="M-1090.5,1232.6h-28.6c-13.9,0-25.2,11.4-25.2,25.2v10c0-13.9,11.4-25.2,25.2-25.2h28.6
		c5.9,0,11.4,2.1,15.7,5.4c1.9,1.5,3.6,3.4,5.1,5.3v-7.7v-2.2C-1074.4,1236.8-1082,1232.6-1090.5,1232.6z"/>
	<path class="st4" d="M-1179.7,1232.6h-28.6c-13.9,0-25.2,11.4-25.2,25.2v9.6l0,0c0.2-13.8,11.4-25,25.2-25h28.6
		c13.9,0,25.2,11.4,25.2,25.2v-10C-1154.5,1243.9-1165.8,1232.6-1179.7,1232.6z"/>
	<path class="st4" d="M-1269,1232.6h-28.6c-13.9,0-25.2,11.4-25.2,25.2v10c0-13.9,11.4-25.2,25.2-25.2h28.6c13.9,0,25,11.2,25.2,25
		l0,0v-9.6C-1243.7,1243.9-1255,1232.6-1269,1232.6z"/>
	<path class="st4" d="M-1358.1,1232.6h-28.6c-8.5,0-16.1,4.3-20.7,10.8v10c4.6-6.5,12.1-10.8,20.7-10.8h28.6
		c13.9,0,25.2,11.4,25.2,25.2v-10C-1332.9,1243.9-1344.2,1232.6-1358.1,1232.6z"/>
</g>
<path class="st5" d="M-1098,1174.4c-48.9-15.6-102.9-4.9-106.3,5.2c-3.4,10,32.5-8.6,83,2.3c24.9,5.4,42.5,13.9,55.3,23.1
	c0-5.7,0-12,0-16.6C-1075.8,1182.9-1086.6,1178.1-1098,1174.4z"/>
<path class="st6" d="M-1090.5,1222.5h-28.6c-12.8,0-24.1,6.9-30.3,17.1c-6.2-10.2-17.5-17.1-30.3-17.1h-28.6
	c-12.8,0-24.1,6.9-30.3,17.1c-6.2-10.2-17.5-17.1-30.3-17.1h-28.6c-12.8,0-24.1,6.9-30.3,17.1c-6.2-10.2-17.5-17.1-30.3-17.1h-28.7
	c-7.7,0-14.9,2.5-20.7,6.7v6.5v3.4v4.2c4.6-6.5,12.1-10.8,20.7-10.8h28.6c13.9,0,25.2,11.4,25.2,25.2v10v37.3h5.1h5.1v-37.3v-10
	c0-13.9,11.4-25.2,25.2-25.2h28.6c13.9,0,25.2,11.4,25.2,25.2v9.6l0,0c0,0.1,0,0.2,0,0.3v37.3h5.1h5.1v-37.3c0-0.1,0-0.2,0-0.3l0,0
	v-9.6c0-13.9,11.4-25.2,25.2-25.2h28.6c13.9,0,25.2,11.4,25.2,25.2v10v37.3h5.1h5.1v-2.7v-8.9v-25.7v-10c0-13.9,11.4-25.2,25.2-25.2
	h28.6c8.5,0,16.1,4.3,20.7,10.8v-4.2v-3.4v-6.5C-1075.7,1225-1082.8,1222.5-1090.5,1222.5z"/>
<path class="st0" d="M-1120.6,928h-236.1c-49.8,0-90.3,40.5-90.3,90.3v236c0,49.8,40.5,90.3,90.3,90.3h64.9c0.3,0.3,0.5,0.7,0.8,1
	l44.7,52c1.9,2.2,4.7,3.5,7.7,3.5c2.9,0,5.8-1.3,7.7-3.5l44.6-51.9c0.3-0.3,0.6-0.7,0.9-1.1h64.9c49.8,0,90.3-40.5,90.3-90.3v-236
	C-1030.3,968.5-1070.8,928-1120.6,928z M-1144.3,982.6v-15.1h23.8c13.5,0,26.2,5.3,35.9,15c9.6,9.6,15,22.4,15,35.9v7.3
	c-0.2,0.3-0.3,0.4-0.5,0.7c-4.6,6.1-12,10.1-20.2,10.1h-28.6c-13.9,0-25.2-11.4-25.2-25.2L-1144.3,982.6L-1144.3,982.6z
	 M-1233.5,982.6v-15.1h79.1v15.1v28.7c0,13.9-11.4,25.2-25.2,25.2h-28.6c-13.9,0-25.2-11.4-25.2-25.2L-1233.5,982.6L-1233.5,982.6z
	 M-1407.4,1018.3c0-13.5,5.3-26.2,15-35.9c9.6-9.6,22.4-15,35.9-15h23.8v15.1v28.7c0,13.9-11.4,25.2-25.2,25.2h-28.7
	c-8.3,0-15.6-4-20.2-10.1c-0.2-0.3-0.3-0.4-0.5-0.7v-7.3H-1407.4z M-1084.8,1290.1c-9.6,9.6-22.4,15-35.9,15c0,0-238.1,0-239.2-0.1
	c-12.3-0.8-23.8-5.9-32.6-14.8c-8.9-8.9-14-20.2-14.8-32.4c-0.1-1.1-0.1-110.2-0.1-110.2V1040c5.9,4.2,13,6.7,20.7,6.7h28.6
	c19.5,0,35.4-15.8,35.4-35.4v-43.8h79.1v43.7c0,19.5,15.8,35.4,35.4,35.4h28.6c12.8,0,24.1-6.9,30.3-17.1
	c6.2,10.2,17.5,17.1,30.3,17.1h28.6c7.7,0,14.9-2.5,20.7-6.7v189.2c0,0,0,26.1,0,26.5C-1070.2,1268.6-1075.4,1280.8-1084.8,1290.1z"
	/>
<path class="st5" d="M-1292,1182.8c-49.7-8.3-67.5,17.5-74.6,10.3c-11.4-11.4,26.8-26.2,62.4-22.9c35.6,3.3,71.2,25,75.1,34.8
	C-1225.1,1214.8-1255.4,1188.9-1292,1182.8z"/>
</svg>
