<?xml version="1.0" encoding="UTF-8"?>
<svg width="58px" height="58px" viewBox="0 0 58 58" version="1.1" xmlns="http://www.w3.org/2000/svg" xmlns:xlink="http://www.w3.org/1999/xlink">
    <!-- Generator: Sketch 48.2 (47327) - http://www.bohemiancoding.com/sketch -->
    <title>Untitled 2</title>
    <desc>Created with Sketch.</desc>
    <defs></defs>
    <g id="Page-1" stroke="none" stroke-width="1" fill="none" fill-rule="evenodd">
        <g id="man" fill="#29C1E2" fill-rule="nonzero">
            <path d="M28.8,31.7 C37.4,31.7 44.5,24.7 44.5,16 C44.5,7.3 37.4,0.3 28.8,0.3 C20.2,0.3 13.1,7.3 13.1,16 C13.1,24.7 20.2,31.7 28.8,31.7 Z M28.8,6.1 C34.2,6.1 38.7,10.4 38.7,16 C38.7,21.5 34.2,25.9 28.8,25.9 C23.4,25.9 18.9,21.6 18.9,16 C18.9,10.6 23.4,6.1 28.8,6.1 Z" id="Shape"></path>
            <path d="M39.8,30.3 C39.6,30.3 39.3,30.2 39.1,30.3 C39.1,30.3 39.1,30.3 39,30.3 C38.5,30.3 37.9,30.5 37.5,30.8 C37.2,31 36.9,31.3 36.5,31.5 C35.5,32.1 34.4,32.6 33.3,33 C32.6,33.2 31.8,33.4 31.1,33.5 C30.4,33.6 29.6,33.7 28.8,33.7 C26.5,33.7 24.2,33.1 22.1,32.1 C21.8,31.9 21.4,31.7 21.1,31.5 C20.8,31.3 20.4,31.1 20.1,30.9 C19.4,30.4 18.6,30.2 17.8,30.4 C7.5,32.8 0.3,41.8 0.3,52.4 L0.3,54.6 C0.3,56.2 1.6,57.5 3.2,57.5 L54.4,57.5 C56,57.5 57.3,56.2 57.3,54.6 L57.3,52.4 C57.3,41.6 50.1,32.7 39.8,30.3 Z M40.9,35.5 C40.4,35.9 39.9,36.2 39.4,36.5 C39.9,36.2 40.4,35.8 40.9,35.5 Z M38.9,36.8 C38.5,37 38.2,37.2 37.8,37.4 C38.2,37.2 38.5,37 38.9,36.8 Z M22,38.2 C21.5,38 20.9,37.8 20.4,37.6 C20.9,37.8 21.5,38 22,38.2 Z M19.9,37.3 C19.5,37.1 19.1,36.9 18.8,36.7 C19.1,37 19.5,37.2 19.9,37.3 Z M18.2,36.5 C17.7,36.2 17.2,35.9 16.7,35.5 C17.2,35.8 17.7,36.2 18.2,36.5 Z M6.1,51.5 C6.4,44.4 11.1,38.4 17.8,36.3 C19.1,37.1 20.5,37.7 21.9,38.2 L22,38.2 C22.6,38.4 23.2,38.6 23.9,38.8 C23.9,38.8 23.9,38.8 24,38.8 C24.5,38.9 24.9,39 25.4,39.1 C25.5,39.1 25.5,39.1 25.6,39.1 C26,39.2 26.5,39.2 26.9,39.3 C27,39.3 27.1,39.3 27.2,39.3 C27.7,39.3 28.2,39.4 28.8,39.4 C29.4,39.4 29.8,39.4 30.4,39.3 C30.5,39.3 30.6,39.3 30.7,39.3 C31.1,39.3 31.6,39.2 32,39.1 C32.1,39.1 32.1,39.1 32.2,39.1 C32.7,39 33.1,38.9 33.6,38.8 C33.6,38.8 33.6,38.8 33.7,38.8 C34.3,38.6 35,38.5 35.6,38.2 C36.2,38 36.7,37.8 37.3,37.5 C36.8,37.7 36.3,37.9 35.7,38.1 C37.1,37.6 38.5,37 39.8,36.2 C46.5,38.2 51.2,44.3 51.5,51.4 L6.1,51.5 Z" id="Shape"></path>
        </g>
    </g>
</svg>