<?xml version="1.0" encoding="UTF-8"?>
<svg width="58px" height="57px" viewBox="0 0 58 57" version="1.1" xmlns="http://www.w3.org/2000/svg" xmlns:xlink="http://www.w3.org/1999/xlink">
    <!-- Generator: Sketch 48.2 (47327) - http://www.bohemiancoding.com/sketch -->
    <title>Untitled 6</title>
    <desc>Created with Sketch.</desc>
    <defs></defs>
    <g id="Page-1" stroke="none" stroke-width="1" fill="none" fill-rule="evenodd">
        <g id="sad" fill-rule="nonzero">
            <path d="M29,6.3 C16.8,6.3 6.8,16.2 6.8,28.5 C6.8,40.8 16.8,50.7 29,50.7 C41.2,50.7 51.2,40.8 51.2,28.5 C51.2,16.2 41.2,6.3 29,6.3 Z M15.7,22.2 C15.7,19.9 17.6,18 19.9,18 C22.2,18 24.1,19.9 24.1,22.2 C24.1,24.5 22.2,26.4 19.9,26.4 C17.6,26.4 15.7,24.5 15.7,22.2 Z M39,40.5 C38.5,40.9 37.9,41.1 37.4,41.1 C36.6,41.1 35.9,40.7 35.3,40.1 C35.2,40 33.1,37.5 29.1,37.5 C25.1,37.5 22.9,40 22.8,40.1 C21.9,41.2 20.2,41.4 19.1,40.5 C18,39.6 17.7,37.9 18.7,36.8 C18.8,36.6 22.5,32.2 29.1,32.2 C35.7,32.2 39.3,36.6 39.5,36.8 C40.3,37.9 40.1,39.6 39,40.5 Z M38.1,26.4 C35.8,26.4 33.9,24.5 33.9,22.2 C33.9,19.9 35.8,18 38.1,18 C40.4,18 42.3,19.9 42.3,22.2 C42.3,24.5 40.4,26.4 38.1,26.4 Z" id="Shape" fill="#F9DCE9"></path>
            <circle id="Oval" fill="#FF016E" cx="19.9" cy="22.2" r="4.2"></circle>
            <circle id="Oval" fill="#FF016E" cx="38.1" cy="22.2" r="4.2"></circle>
            <path d="M29,0 C13.3,0 0.5,12.8 0.5,28.5 C0.5,44.2 13.3,57 29,57 C44.7,57 57.5,44.2 57.5,28.5 C57.5,12.8 44.7,0 29,0 Z M29,50.7 C16.8,50.7 6.8,40.8 6.8,28.5 C6.8,16.2 16.8,6.3 29,6.3 C41.2,6.3 51.2,16.2 51.2,28.5 C51.2,40.8 41.2,50.7 29,50.7 Z" id="Shape" fill="#FF016E"></path>
            <path d="M29,32.1 C22.4,32.1 18.8,36.5 18.6,36.7 C17.7,37.8 17.9,39.5 19,40.4 C20.1,41.3 21.8,41.2 22.7,40 C22.8,39.9 25,37.4 29,37.4 C33,37.4 35.2,39.9 35.2,40 C35.7,40.6 36.5,41 37.3,41 C37.9,41 38.5,40.8 38.9,40.4 C40,39.5 40.2,37.8 39.3,36.7 C39.2,36.6 35.6,32.1 29,32.1 Z" id="Shape" fill="#FF016E"></path>
        </g>
    </g>
</svg>