<?xml version="1.0" encoding="utf-8"?>
<!-- Generator: Adobe Illustrator 21.0.2, SVG Export Plug-In . SVG Version: 6.00 Build 0)  -->
<svg version="1.1" id="Слой_1" xmlns="http://www.w3.org/2000/svg" xmlns:xlink="http://www.w3.org/1999/xlink" x="0px" y="0px"
	 viewBox="0 0 1676 1600" enable-background="new 0 0 1676 1600" xml:space="preserve">
<path d="M1671,622c0,14.7-8.7,30.7-26,48l-363,354l86,500c0.7,4.7,1,11.3,1,20c0,14-3.5,25.8-10.5,35.5s-17.2,14.5-30.5,14.5
	c-12.7,0-26-4-40-12l-449-236l-449,236c-14.7,8-28,12-40,12c-14,0-24.5-4.8-31.5-14.5S308,1558,308,1544c0-4,0.7-10.7,2-20l86-500
	L32,670c-16.7-18-25-34-25-48c0-24.7,18.7-40,56-46l502-73L790,48c12.7-27.3,29-41,49-41s36.3,13.7,49,41l225,455l502,73
	C1652.3,582,1671,597.3,1671,622z"/>
</svg>
