<?xml version="1.0" encoding="utf-8"?>
<!-- Generator: Adobe Illustrator 19.2.1, SVG Export Plug-In . SVG Version: 6.00 Build 0)  -->
<svg version="1.1" id="Layer_1" xmlns="http://www.w3.org/2000/svg" xmlns:xlink="http://www.w3.org/1999/xlink" x="0px" y="0px"
	 viewBox="0 0 1668.4 1571.4" style="enable-background:new 0 0 1668.4 1571.4;" xml:space="preserve">
<style type="text/css">
	.st0{fill:#FFFFFF;}
</style>
<g>
	<path class="st0" d="M1128.3,285.7c-73.7,51.5-185,51.1-258.3-0.9c-13.6-9.6-32.3-6.4-41.9,7.1c-9.6,13.6-6.4,32.3,7.1,41.9
		c47,33.3,105.4,51.7,164.5,51.7c58.5,0,116.3-18,162.9-50.6c13.6-9.5,16.9-28.2,7.4-41.9C1160.6,279.5,1141.9,276.2,1128.3,285.7z"
		/>
	<path class="st0" d="M932.2,639.6l-102.1-36.5l-36.4-102c-4.3-12-15.6-20-28.3-20c-12.7,0-24,8-28.3,20l-36.4,102l-0.3,0.1
		l-101.8,36.4c-12,4.3-20,15.6-20,28.3c0,12.7,8,24.1,20,28.3l101.8,36.3l0.3,0.1l36.4,102c4.3,12,15.6,20,28.3,20s24-8,28.3-20
		l36.4-102l102.1-36.4c11.9-4.3,19.9-15.6,19.9-28.3S944.1,643.9,932.2,639.6z M796.5,680.8c-8.5,3.1-15.1,9.7-18.2,18.2l-12.9,36.2
		L752.5,699c-3-8.4-9.7-15.1-18.2-18.2l-33.9-12.1l-2.3-0.8l2.3-0.8l33.9-12.1c8.5-3.1,15.1-9.7,18.2-18.2l12.9-36.2l12.9,36.2
		c3,8.5,9.7,15.1,18.2,18.2l36.2,12.9L796.5,680.8z"/>
	<path class="st0" d="M1648.6,184.9l-99.3-35.5l-35.4-99.2c-4.3-12-15.6-20-28.3-20s-24,8-28.3,20l-23.5,65.9
		c-98.1-52.2-228.1-42-356.5,28.8c-24.8,13.7-50.9,21.8-77.4,24c-26.5-2.2-52.6-10.3-77.4-24c-75.8-41.8-152.1-62.6-222.1-62
		c-51.6,0.4-99.8,12.6-141.7,36.5c-36.2,20.7-65.9,48.1-90.2,80.5L410,36.3L404.2,20c-4.3-12-15.6-20-28.3-20s-24,8-28.3,20
		l-5.8,16.3l-80.4,225.2l-200,71.4L20,347.7C8,352,0,363.3,0,376s8,24,20,28.3l41.4,14.8l199.9,71.4l86.2,241.3
		c4.3,12,15.6,20,28.3,20s24-8,28.3-20l27.3-76.3c9.6,34.8,21.1,69.7,34.2,103.8c7.9,20.4,16.3,40.5,25.5,60.1
		c23.1,49.7,29.1,98,18.6,151.8c-8.9,45.6-13.3,92.6-13.3,139.8c0,155.3,48.3,303.3,136,416.5c27.3,35.2,72.7,51.1,116.2,40.5
		c44.1-10.8,76.4-45.1,84.2-89.6l65.3-373.9c6.8-38.7,39.2-65.7,78.9-65.7h45.5c39.7,0,72.2,27,78.9,65.7l65.3,374
		c7.8,44.5,40,78.8,84.2,89.6c9.2,2.2,18.5,3.3,27.7,3.3c34.7,0,67-16,88.5-43.8c87.7-113.3,136-261.2,136-416.5
		c0-47.1-4.5-94.2-13.3-139.8c-10.5-53.8-4.6-102.1,18.5-151.8c75.8-162.8,128.8-387.4,62.6-550l77.6-27.7
		c11.9-4.3,19.9-15.6,19.9-28.3C1668.5,200.6,1660.5,189.2,1648.6,184.9z M456.7,438.5c-8.5,3.1-15.1,9.7-18.2,18.2l-62.6,175.6
		l-62.6-175.5c-3-8.4-9.7-15.1-18.2-18.2L119.6,376L295,313.3c8.5-3.1,15.1-9.7,18.2-18.2l62.6-175.5l57.1,159.9l5.6,15.6
		c3,8.4,9.7,15.1,18.2,18.2l175.5,62.6L456.7,438.5z M1453.9,793.9c-4.5,9.7-8.3,19.4-11.8,29.2c-37.5,75.7-85.1,142.2-137.9,192.2
		c-12.1,11.5-12.6,30.5-1.1,42.5c5.9,6.3,13.9,9.4,21.8,9.4c7.4,0,14.8-2.7,20.7-8.2c29.2-27.7,56.8-59.7,82.3-95.2
		c0.9,6.2,1.7,12.4,2.9,18.7c8.1,41.9,12.3,85.1,12.3,128.4c0,142.1-43.8,276.9-123.4,379.7c-13,16.9-33.5,24-54.4,18.8
		c-20.9-5.1-35.6-20.6-39.2-41.5l-65.3-374c-11.7-66.9-69.8-115.5-138.2-115.5H977c-68.4,0-126.5,48.5-138.1,115.5l-65.3,374
		c-3.6,20.9-18.3,36.4-39.2,41.5c-20.8,5.2-41.4-1.9-54.4-18.8c-79.6-102.8-123.4-237.6-123.4-379.7c0-43.4,4.1-86.6,12.3-128.4
		c12.8-66,5.2-127.7-23.1-188.6c-5.3-11.4-10.4-22.9-15.2-34.6C502,691,480.5,618.4,468.9,550.8l3.6-10.1l18-50.3l209.9-75
		l31.4-11.2c12-4.3,20-15.6,20-28.3s-8-24-20-28.3l-31.4-11.2L497.7,264c21.5-39,52-70.1,90.9-92.3c32.8-18.8,70.8-28.3,111.8-28.7
		c59.8-0.7,126.2,17.8,193.1,54.6c33.2,18.3,68.3,28.9,104.3,31.4c1.4,0.1,2.9,0.1,4.3,0c36-2.6,71.1-13.2,104.3-31.5
		c103-56.8,205.4-70.2,283.4-36.6l-67,24c-12,4.3-20,15.6-20,28.3s8,24.1,20,28.3l99.2,35.4l35.5,99.3c4.3,11.9,15.6,19.9,28.3,19.9
		s24.1-8,28.3-19.9l15.1-42.1C1564.2,476,1514.8,663.1,1453.9,793.9z M1515.7,225.1c-2.9,1.1-5.2,3-7.6,4.8
		c-4.6,3.5-8.6,7.8-10.6,13.4l-11.9,33.4l-11.9-33.4c-3-8.4-9.7-15.1-18.2-18.2l-33.4-11.9l33.4-11.9c5.7-2,10.1-6.1,13.6-10.9
		c1.7-2.3,3.6-4.5,4.6-7.3l3.7-10.4l0.6-1.8l7.6-21.2l11.9,33.4c3.1,8.5,9.7,15.2,18.2,18.2l33.4,11.9L1515.7,225.1z"/>
</g>
</svg>
