<?xml version="1.0" encoding="UTF-8"?>
<svg width="58px" height="51px" viewBox="0 0 58 51" version="1.1" xmlns="http://www.w3.org/2000/svg" xmlns:xlink="http://www.w3.org/1999/xlink">
    <!-- Generator: Sketch 48.2 (47327) - http://www.bohemiancoding.com/sketch -->
    <title>Untitled 12</title>
    <desc>Created with Sketch.</desc>
    <defs></defs>
    <g id="Page-1" stroke="none" stroke-width="1" fill="none" fill-rule="evenodd">
        <g id="doctor" transform="translate(0.000000, 1.000000)">
            <g id="Group" transform="translate(0.000000, 43.000000)" stroke="#504B46" stroke-linecap="round">
                <path d="M2.8,0.5 L0.8,0.5" id="Shape"></path>
                <path d="M56.8,0.5 L54.8,0.5" id="Shape"></path>
                <path d="M4.8,0.5 L52.8,0.5" id="Shape"></path>
            </g>
            <g id="Group" transform="translate(24.000000, 21.000000)">
                <path d="M26.2,15 C26.2,9.5 21.7,5 16.2,5 L10.2,5 C4.7,5 0.2,9.5 0.2,15 L0.2,22.5 L26.2,22.5 L26.2,15 Z" id="Shape" fill="#EDF2F4" fill-rule="nonzero"></path>
                <path d="M26.2,15 C26.2,9.5 21.7,5 16.2,5 L10.2,5 C4.7,5 0.2,9.5 0.2,15 L0.2,19 C0.2,13.5 4.7,9 10.2,9 L16.2,9 C21.7,9 26.2,13.5 26.2,19 L26.2,15 Z" id="Shape" fill="#FFFFFF" fill-rule="nonzero"></path>
                <path d="M26.2,15 C26.2,9.5 21.7,5 16.2,5 L10.2,5 C4.7,5 0.2,9.5 0.2,15 L0.2,22.5 L26.2,22.5 L26.2,15 Z" id="Shape" stroke="#504B46" stroke-linecap="round" stroke-linejoin="round"></path>
                <g transform="translate(21.000000, 17.000000)" fill="#EDF2F4" fill-rule="nonzero" id="Shape" stroke="#504B46" stroke-linecap="round" stroke-linejoin="round">
                    <path d="M0.2,5.5 L0.2,2"></path>
                    <path d="M0.2,0.5 L0.2,0"></path>
                </g>
                <path d="M16.2,3 L17.2,7 L13.2,22.5 L15.2,22.5 L18.7,15 L17.7,12.5 L21.2,11 L19.9,6.6 C19.5,5 17.8,3.6 16.2,3 Z" id="Shape" stroke="#504B46" fill="#EDF2F4" fill-rule="nonzero" stroke-linecap="round" stroke-linejoin="round"></path>
                <path d="M16.8,5 C16.6,5 16.6,5 16.3,5 L10.3,5 C10,5 10.1,5 9.8,5 L9.3,7 L13.3,22.5 L17.3,7 L16.8,5 Z" id="Shape" stroke="#504B46" fill="#26CBED" fill-rule="nonzero" stroke-linecap="round" stroke-linejoin="round"></path>
                <polygon id="Shape" fill="#FDDFD1" fill-rule="nonzero" points="16.2 5 13.2 11.5 10.2 5 10.2 0.5 16.2 0.5"></polygon>
                <path d="M10.2,3.9 C10.3,3.9 10.3,4 10.4,4 C12.1,4.7 14.3,4.7 15.9,4 C16,4 16.1,3.9 16.1,3.9 L16.1,0.5 L10.1,0.5 L10.1,3.9 L10.2,3.9 Z" id="Shape" fill="#FCCAB4" fill-rule="nonzero"></path>
                <g transform="translate(5.000000, 17.000000)" fill="#EDF2F4" fill-rule="nonzero" id="Shape" stroke="#504B46" stroke-linecap="round" stroke-linejoin="round">
                    <path d="M0.2,5.5 L0.2,2"></path>
                    <path d="M0.2,0.5 L0.2,0"></path>
                </g>
                <path d="M10.2,3 L9.2,7 L13.2,22.5 L11.2,22.5 L7.7,15 L8.7,12.5 L5.2,11 L6.5,6.6 C7,5 8.7,3.6 10.2,3 Z" id="Shape" stroke="#504B46" fill="#EDF2F4" fill-rule="nonzero" stroke-linecap="round" stroke-linejoin="round"></path>
                <polygon id="Shape" stroke="#504B46" stroke-linecap="round" stroke-linejoin="round" points="16.2 5 13.2 11.5 10.2 5 10.2 0.5 16.2 0.5"></polygon>
            </g>
            <g id="Group" transform="translate(24.000000, 0.000000)">
                <path d="M26.2,15.7 C26.2,14.4 25.3,13.3 24.1,12.9 C24.5,12.5 24.8,12 24.8,11.3 C24.8,10.1 23.8,9.1 22.6,9.1 C22.6,9.1 22.6,9.1 22.6,9.1 C22.2,4.3 18.2,0.4 13.2,0.4 C8.3,0.4 4.2,4.2 3.8,9.1 C3.8,9.1 3.8,9.1 3.8,9.1 C2.6,9.1 1.6,10.1 1.6,11.3 C1.6,11.9 1.9,12.5 2.3,12.9 C1.1,13.2 0.2,14.3 0.2,15.7 C0.2,17.1 1.2,18.3 2.6,18.5 C2.5,18.7 2.5,19 2.5,19.3 C2.5,21.3 4.1,22.9 6.1,22.9 C8.1,22.9 9.7,21.3 9.7,19.3 C9.7,19.1 9.7,18.8 9.6,18.6 L17,18.6 C17,18.8 16.9,19.1 16.9,19.3 C16.9,21.3 18.5,22.9 20.5,22.9 C22.5,22.9 24.1,21.3 24.1,19.3 C24.1,19 24.1,18.7 24,18.5 C25.3,18.1 26.2,17 26.2,15.7 Z" id="Shape" fill="#FED75C" fill-rule="nonzero"></path>
                <path d="M13.2,4 C16.9,4 20.2,5.3 22.2,7.2 C21,3.3 17.5,0.5 13.2,0.5 C9,0.5 5.4,3.3 4.2,7.2 C6.3,5.3 9.5,4 13.2,4 Z" id="Shape" fill="#FFEBB0" fill-rule="nonzero"></path>
                <path d="M26.2,15.7 C26.2,14.4 25.3,13.3 24.1,12.9 C24.5,12.5 24.8,12 24.8,11.3 C24.8,10.1 23.8,9.1 22.6,9.1 C22.6,9.1 22.6,9.1 22.6,9.1 C22.2,4.3 18.2,0.4 13.2,0.4 C8.3,0.4 4.2,4.2 3.8,9.1 C3.8,9.1 3.8,9.1 3.8,9.1 C2.6,9.1 1.6,10.1 1.6,11.3 C1.6,11.9 1.9,12.5 2.3,12.9 C1.1,13.2 0.2,14.3 0.2,15.7 C0.2,17.1 1.2,18.3 2.6,18.5 C2.5,18.7 2.5,19 2.5,19.3 C2.5,21.3 4.1,22.9 6.1,22.9 C8.1,22.9 9.7,21.3 9.7,19.3 C9.7,19.1 9.7,18.8 9.6,18.6 L17,18.6 C17,18.8 16.9,19.1 16.9,19.3 C16.9,21.3 18.5,22.9 20.5,22.9 C22.5,22.9 24.1,21.3 24.1,19.3 C24.1,19 24.1,18.7 24,18.5 C25.3,18.1 26.2,17 26.2,15.7 Z" id="Shape" stroke="#504B46" stroke-linejoin="round"></path>
                <path d="M17.7,12.2 C14.3,12.2 11.2,10.5 9.4,7.9 C9.4,10.2 7.5,12.1 5.2,12.2 L5.2,15.5 C5.2,19.9 8.8,23.5 13.2,23.5 C17.6,23.5 21.2,19.9 21.2,15.5 L21.2,11.7 C20.2,12 18.7,12.2 17.7,12.2 Z" id="Shape" stroke="#504B46" fill="#FDDFD1" fill-rule="nonzero" stroke-linecap="round" stroke-linejoin="round"></path>
                <g transform="translate(8.000000, 13.000000)" id="Shape" stroke="#504B46" stroke-linecap="round" stroke-linejoin="round">
                    <path d="M3.8,1.5 C3.5,0.9 2.9,0.5 2.3,0.5 C1.7,0.5 1.1,0.9 0.8,1.5"></path>
                    <path d="M9.8,1.5 C9.5,0.9 8.9,0.5 8.3,0.5 C7.7,0.5 7.1,0.9 6.8,1.5"></path>
                </g>
                <path d="M10.2,19 C10.8,19.6 11.9,20 13.2,20 C14.5,20 15.6,19.6 16.2,19" id="Shape" stroke="#504B46" stroke-linecap="round" stroke-linejoin="round"></path>
                <circle id="Oval" fill="#FCCAB4" fill-rule="nonzero" cx="8.2" cy="17.5" r="1"></circle>
                <circle id="Oval" fill="#FCCAB4" fill-rule="nonzero" cx="18.2" cy="17.5" r="1"></circle>
            </g>
            <g id="Group" transform="translate(3.000000, 27.000000)">
                <path d="M24.2,20.5 C24.2,21.6 23.3,22.5 22.2,22.5 L2.2,22.5 C1.1,22.5 0.2,21.6 0.2,20.5 L0.2,6.5 C0.2,5.4 1.1,4.5 2.2,4.5 L22.2,4.5 C23.3,4.5 24.2,5.4 24.2,6.5 L24.2,20.5 Z" id="Shape" fill="#EDF2F4" fill-rule="nonzero"></path>
                <path d="M12.5,4.5 L2.2,4.5 C1.1,4.5 0.2,5.4 0.2,6.5 L0.2,16.8 L12.5,4.5 Z" id="Shape" fill="#FFFFFF" fill-rule="nonzero"></path>
                <path d="M24.2,20.5 C24.2,21.6 23.3,22.5 22.2,22.5 L2.2,22.5 C1.1,22.5 0.2,21.6 0.2,20.5 L0.2,6.5 C0.2,5.4 1.1,4.5 2.2,4.5 L22.2,4.5 C23.3,4.5 24.2,5.4 24.2,6.5 L24.2,20.5 Z" id="Shape" stroke="#504B46" stroke-linecap="round" stroke-linejoin="round"></path>
                <g transform="translate(6.000000, 0.000000)" fill="#EDF2F4" fill-rule="nonzero" id="Shape" stroke="#504B46" stroke-linecap="round" stroke-linejoin="round">
                    <path d="M2.8,4.5 L3.9,2 L6.2,2 L8.5,2 L9.6,4.5 L11.7,4.5 C11.7,4.4 11.7,4.2 11.6,4.1 L10.1,0.6 C9.9,0.2 9.6,2.84217094e-14 9.2,2.84217094e-14 L6.2,2.84217094e-14 L3.2,2.84217094e-14 C2.8,2.84217094e-14 2.4,0.2 2.3,0.6 L0.8,4.1 C0.7,4.2 0.7,4.4 0.7,4.5 L2.8,4.5 Z"></path>
                    <path d="M1.8,2 L10.8,2"></path>
                </g>
            </g>
            <path d="M16.5,37.7 C16.3,37.7 16.1,37.8 15.9,37.9 C15.6,38 15.3,38.2 15,38.2 C14.7,38.2 14.4,38.1 14.1,37.9 C13.9,37.8 13.7,37.7 13.5,37.7 C12.7,37.7 11.7,38.6 11.7,39.2 C11.7,40 12.8,43.8 13.4,44.3 C13.4,44.2 13.5,43.9 13.5,43.7 C13.6,42.8 13.8,41.4 15,41.4 C16.2,41.4 16.4,42.8 16.5,43.7 C16.5,43.9 16.6,44.1 16.6,44.3 C17.2,43.8 18.3,40 18.3,39.2 C18.3,38.6 17.3,37.7 16.5,37.7 Z" id="Shape" fill="#FFFFFF" fill-rule="nonzero"></path>
            <path d="M16.5,37 C16.2,37 15.9,37.1 15.6,37.3 C15.4,37.4 15.2,37.5 15,37.5 C14.8,37.5 14.6,37.4 14.4,37.3 C14.1,37.2 13.8,37 13.5,37 C12.4,37 11,38.2 11,39.2 C11,39.6 12.1,45 13.5,45 C14,45 14.1,44.4 14.1,43.8 C14.2,42.8 14.4,42.1 15,42.1 C15.6,42.1 15.7,42.9 15.9,43.8 C16,44.4 16.1,45 16.5,45 C17.9,45 19,39.6 19,39.2 C19,38.2 17.6,37 16.5,37 Z M16.6,44.3 C16.6,44.2 16.5,43.9 16.5,43.7 C16.4,42.8 16.2,41.4 15,41.4 C13.8,41.4 13.6,42.8 13.5,43.7 C13.5,43.9 13.4,44.1 13.4,44.3 C12.8,43.8 11.7,40 11.7,39.2 C11.7,38.6 12.7,37.7 13.5,37.7 C13.7,37.7 13.9,37.8 14.1,37.9 C14.4,38 14.7,38.2 15,38.2 C15.3,38.2 15.6,38.1 15.9,37.9 C16.1,37.8 16.3,37.7 16.5,37.7 C17.3,37.7 18.3,38.6 18.3,39.2 C18.3,40 17.3,43.7 16.6,44.3 Z" id="Shape" fill="#504B46" fill-rule="nonzero"></path>
        </g>
    </g>
</svg>