<?xml version="1.0" encoding="UTF-8"?>
<svg width="59px" height="46px" viewBox="0 0 59 46" version="1.1" xmlns="http://www.w3.org/2000/svg" xmlns:xlink="http://www.w3.org/1999/xlink">
    <!-- Generator: Sketch 48.2 (47327) - http://www.bohemiancoding.com/sketch -->
    <title>Untitled 13</title>
    <desc>Created with Sketch.</desc>
    <defs></defs>
    <g id="Page-1" stroke="none" stroke-width="1" fill="none" fill-rule="evenodd">
        <g id="feedback">
            <path d="M45.3,33.3 C45.3,33.6 45.1,33.8 44.8,33.8 C41.8,33.8 39.4,36.2 39.4,39.2 C39.4,42.2 41.8,44.6 44.8,44.6 C47.8,44.6 50.2,42.2 50.2,39.2 L50.2,17.5 C48.9,18.4 47.5,18.9 46,18.9 C44.2,18.9 42.4,18.2 41.1,16.9 L31.6,25.4 C31.5,25.5 31.4,25.5 31.3,25.5 C31.2,25.5 31,25.4 30.9,25.3 C30.7,25.1 30.7,24.8 30.9,24.6 L40.4,16.1 C38.1,13.2 38.5,9 41.3,6.5 C42.2,5.7 43.8,5.1 45.5,4.7 C45.6,4.6 45.7,4.5 45.9,4.5 C46,4.5 46,4.5 46,4.5 C47.4,4.2 48.8,4 50.2,3.8 L50.2,1.5 L26.3,1.5 L26.3,15.7 C26.3,16 26.1,16.2 25.8,16.2 C25.5,16.2 25.3,16 25.3,15.7 L25.3,1.5 L21.2,1.5 L21.2,32.8 L44.9,32.8 C45.1,32.8 45.3,33 45.3,33.3 Z" id="Shape" fill="#EDF2F4" fill-rule="nonzero"></path>
            <polygon id="Shape" fill="#FFFFFF" fill-rule="nonzero" points="21 43 21 1 50 1"></polygon>
            <path d="M45.3,5.7 C43.8,6.1 42.6,6.6 41.9,7.2 C39.5,9.3 39.2,12.9 41.1,15.4 L44.9,12 L45.3,5.7 Z" id="Shape" fill="#74D15E" fill-rule="nonzero"></path>
            <path d="M46.3,5.5 L46,11.1 L53.3,4.6 C51.6,4.7 48.8,4.9 46.3,5.5 Z" id="Shape" fill="#74D15E" fill-rule="nonzero"></path>
            <path d="M41.8,16.2 C44.1,18.4 47.7,18.5 50.1,16.3 C50.8,15.7 51.4,14.5 51.9,13.1 L45.6,12.7 L41.8,16.2 Z" id="Shape" fill="#74D15E" fill-rule="nonzero"></path>
            <path d="M52.2,12.1 C53,9.7 53.6,6.9 53.9,5.3 L46.6,11.8 L52.2,12.1 Z" id="Shape" fill="#74D15E" fill-rule="nonzero"></path>
            <path d="M45.3,5.7 C43.8,6.1 42.6,6.6 41.9,7.2 C39.5,9.3 39.2,12.9 41.1,15.4 L44.9,12 L45.3,5.7 Z" id="Shape"></path>
            <path d="M41.8,16.2 C44.1,18.4 47.7,18.5 50.1,16.3 C50.8,15.7 51.4,14.5 51.9,13.1 L45.6,12.7 L41.8,16.2 Z" id="Shape"></path>
            <path d="M47,44 C48.9,43.2 50.2,41.3 50.2,39.1 L50.2,17.4 C48.9,18.3 47.5,18.8 46,18.8 C44.2,18.8 42.4,18.1 41.1,16.8 L31.6,25.3 C31.5,25.4 31.4,25.4 31.3,25.4 C31.2,25.4 31,25.3 30.9,25.2 C30.7,25 30.7,24.7 30.9,24.5 L40.4,16 C38.1,13.1 38.5,8.9 41.3,6.4 C42.2,5.6 43.8,5 45.5,4.6 C45.6,4.5 45.7,4.4 45.9,4.4 C46,4.4 46,4.4 46,4.4 C47.4,4.1 48.8,3.9 50.2,3.7 L50.2,1.4 L26.3,1.4 L25.3,1.4 L21.2,1.4 L21.2,30 L47,30 L47,44 Z" id="Shape"></path>
            <path d="M46.3,5.5 L46,11.1 L53.3,4.6 C51.6,4.7 48.8,4.9 46.3,5.5 Z" id="Shape"></path>
            <path d="M52.2,12.1 C53,9.7 53.6,6.9 53.9,5.3 L46.6,11.8 L52.2,12.1 Z" id="Shape"></path>
            <path d="M40,43.3 C39.7,43 39.5,42.7 39.3,42.3 C38.8,41.4 38.5,40.3 38.5,39.1 C38.5,37.9 38.8,36.9 39.3,35.9 C39.5,35.5 39.8,35.2 40,34.9 C40.4,34.4 40.9,34 41.4,33.7 L19.9,33.7 C18.6,33.7 17.5,34.2 16.6,34.9 C16.2,35.2 15.9,35.5 15.6,35.9 C14.9,36.8 14.5,37.9 14.5,39.1 C14.5,40.3 14.9,41.4 15.6,42.3 C15.9,42.7 16.2,43 16.6,43.3 C17.5,44 18.7,44.5 19.9,44.5 L41.4,44.5 C40.9,44.2 40.4,43.8 40,43.3 Z" id="Shape" fill="#26CBED" fill-rule="nonzero"></path>
            <path d="M27,11 L37.5,11" id="Shape" stroke="#504B46" stroke-linecap="round" stroke-linejoin="round"></path>
            <path d="M27,15 L37.5,15" id="Shape" stroke="#504B46" stroke-linecap="round" stroke-linejoin="round"></path>
            <path d="M27,19 L37.5,19" id="Shape" stroke="#504B46" stroke-linecap="round" stroke-linejoin="round"></path>
            <path d="M27,23 L37.5,23" id="Shape" stroke="#504B46" stroke-linecap="round" stroke-linejoin="round"></path>
            <path d="M27,29 L44.5,29" id="Shape" stroke="#504B46" stroke-linecap="round" stroke-linejoin="round"></path>
            <path d="M15.7,37.6 C16,37.2 16.4,36.8 16.8,36.5 C17.8,35.7 19.1,35.2 20.5,35.2 L41,35 C41.2,34.7 41.8,33.3 42,33 C42.4,32.5 43.4,33.4 44,33 L20.4,33 C19,33 17.7,33.5 16.7,34.3 C16.3,34.6 15.9,35 15.6,35.4 C14.9,36.4 14.4,37.6 14.4,38.9 C14.4,39.3 14.4,39.6 14.5,40 C14.8,39.1 15.1,38.3 15.7,37.6 Z" id="Shape" fill="#78E9F9" fill-rule="nonzero"></path>
            <path d="M58.4,0.7 C58.2,0.5 57.9,0.5 57.7,0.7 L54.6,3.5 C54.1,3.5 52.9,3.6 51.2,3.8 L51.2,1 C51.2,0.7 51,0.5 50.7,0.5 L20.6,0.5 C20.3,0.5 20.1,0.7 20.1,1 L20.1,30 L20.1,32.8 L19.9,32.8 C16.4,32.8 13.5,35.7 13.5,39.2 C13.5,42.7 16.4,45.6 19.9,45.6 L44.8,45.6 C45.6,45.6 46.3,45.5 47,45.2 C49.4,44.3 51.2,42 51.2,39.2 L51.2,16.6 C51.9,15.8 52.5,14.5 53,13.1 C53.1,13 53.2,12.9 53.2,12.7 C53.2,12.6 53.2,12.6 53.2,12.5 C54.4,9.1 55.1,5.1 55.2,4.2 L58.4,1.4 C58.5,1.2 58.6,0.9 58.4,0.7 Z M53.3,4.5 L46,11 L46.3,5.4 C48.8,4.9 51.6,4.7 53.3,4.5 Z M19.9,44.5 C18.6,44.5 17.5,44 16.6,43.3 C16.2,43 15.9,42.7 15.6,42.3 C14.9,41.4 14.5,40.3 14.5,39.1 C14.5,37.9 14.9,36.8 15.6,35.9 C15.9,35.5 16.2,35.2 16.6,34.9 C17.5,34.2 18.7,33.7 19.9,33.7 L41.4,33.7 C40.9,34 40.4,34.4 40,34.9 C39.7,35.2 39.5,35.5 39.3,35.9 C38.8,36.8 38.5,37.9 38.5,39.1 C38.5,40.3 38.8,41.3 39.3,42.3 C39.5,42.7 39.8,43 40,43.3 C40.4,43.8 40.9,44.2 41.4,44.5 L19.9,44.5 Z M50.2,39.1 C50.2,41.3 48.9,43.1 47,44 C46.3,44.3 45.6,44.5 44.8,44.5 C41.8,44.5 39.4,42.1 39.4,39.1 C39.4,36.1 41.8,33.7 44.8,33.7 C45.1,33.7 45.3,33.5 45.3,33.2 C45.3,32.9 45.1,32.7 44.8,32.7 L21.1,32.7 L21.1,30 L21.1,1.5 L25.2,1.5 L26.2,1.5 L50.1,1.5 L50.1,3.8 C48.8,4 47.3,4.2 45.9,4.5 C45.9,4.5 45.8,4.5 45.8,4.5 C45.6,4.5 45.5,4.6 45.4,4.7 C43.6,5.1 42,5.7 41.2,6.5 C38.4,9 38.1,13.2 40.3,16.1 L30.8,24.6 C30.6,24.8 30.6,25.1 30.8,25.3 C30.9,25.4 31,25.5 31.2,25.5 C31.3,25.5 31.4,25.5 31.5,25.4 L41,16.9 C42.4,18.2 44.1,18.9 45.9,18.9 C47.4,18.9 48.8,18.4 50.1,17.5 L50.1,39.1 L50.2,39.1 Z M45.3,5.7 L44.9,12 L41.1,15.4 C39.2,12.9 39.5,9.3 41.9,7.2 C42.6,6.6 43.8,6.1 45.3,5.7 Z M50,16.3 C47.6,18.4 44,18.3 41.7,16.2 L45.5,12.8 L51.8,13.2 C51.3,14.5 50.7,15.7 50,16.3 Z M52.2,12.1 L46.6,11.8 L53.9,5.3 C53.7,6.9 53.1,9.7 52.2,12.1 Z" id="Shape" fill="#504B46" fill-rule="nonzero"></path>
            <circle id="Oval" stroke="#504B46" fill="#FED75C" fill-rule="nonzero" stroke-linecap="round" stroke-linejoin="round" cx="19" cy="22" r="5.5"></circle>
            <circle id="Oval" stroke="#504B46" fill="#FED75C" fill-rule="nonzero" stroke-linecap="round" stroke-linejoin="round" cx="12" cy="9" r="3.5"></circle>
            <path d="M6.1,17 L5.4,17.8 C5.4,17.8 5.4,17.8 5.4,17.8 C5.2,18 4.9,18 4.7,17.8 L4,17 C3.7,16.6 3.2,16.5 2.8,16.5 C2.4,16.5 1.9,16.7 1.6,17 C0.9,17.7 0.9,18.9 1.6,19.6 L5.1,23.3 C6.3,22.1 7.4,20.8 8.6,19.6 C9.3,18.9 9.3,17.7 8.6,17 C7.9,16.3 6.8,16.3 6.1,17 Z" id="Shape" fill="#FED75C" fill-rule="nonzero"></path>
            <path d="M5.4,16.3 L5,16.7 L4.6,16.3 C4.1,15.7 3.4,15.5 2.7,15.5 C2,15.5 1.3,15.8 0.8,16.3 C-0.3,17.4 -0.2,19.2 0.8,20.3 L4.7,24.4 C4.9,24.6 5.2,24.6 5.4,24.4 C5.4,24.4 5.4,24.4 5.4,24.4 C6.7,23 8,21.7 9.3,20.3 C10.4,19.2 10.4,17.4 9.3,16.3 C8.2,15.2 6.4,15.2 5.4,16.3 Z M8.5,19.6 C7.3,20.8 6.2,22.1 5,23.3 L1.5,19.6 C0.8,18.9 0.8,17.7 1.5,17 C1.8,16.6 2.3,16.5 2.7,16.5 C3.1,16.5 3.6,16.7 3.9,17 L4.6,17.8 C4.8,18 5.1,18 5.3,17.8 C5.3,17.8 5.3,17.8 5.3,17.8 L6,17 C6.7,16.3 7.8,16.3 8.4,17 C9,17.7 9.2,18.9 8.5,19.6 Z" id="Shape" fill="#504B46" fill-rule="nonzero"></path>
        </g>
    </g>
</svg>