<?xml version="1.0" encoding="UTF-8"?>
<svg width="1404px" height="474px" viewBox="0 0 1404 474" version="1.1" xmlns="http://www.w3.org/2000/svg" xmlns:xlink="http://www.w3.org/1999/xlink">
    <!-- Generator: Sketch 48.2 (47327) - http://www.bohemiancoding.com/sketch -->
    <title>Untitled 3</title>
    <desc>Created with Sketch.</desc>
    <defs></defs>
    <g id="Page-1" stroke="none" stroke-width="1" fill="none" fill-rule="evenodd">
        <g id="logo-white" fill-rule="nonzero">
            <g id="Group" transform="translate(495.000000, 104.000000)" fill="#FFFFFF">
                <path d="M80.4,47.8 L20.5,47.8 C7.6,47.8 1.1,39.8 1.1,23.9 L1.1,0 L137.7,0 C152.6,0 160.1,8.1 160.1,24.2 C160.1,37.7 156.2,48.9 148.3,57.8 L82.1,156 L159.2,156 L159.2,180 C159.2,196 152.8,204 140.1,204 L0.2,204 L0.2,179.5 C0.2,165.8 4.1,154.6 12,145.9 L80.4,47.8 Z" id="Shape"></path>
                <path d="M341.2,148.7 C341.2,167.9 333,182.3 316.7,191.6 C300.3,200.9 281.7,205.6 260.8,205.6 C239.9,205.6 221.3,200.9 204.9,191.6 C188.5,182.3 180.4,168 180.4,148.7 L180.4,0 L210.3,0 C230.3,0 240.2,8.8 240.2,26.3 L240.2,140 C240.2,151.5 247.1,157.2 260.7,157.2 C274.4,157.2 281.2,151.4 281.2,140 L281.2,0.1 L311.1,0.1 C331.1,0.1 341,8.9 341,26.4 L341.2,148.7 Z" id="Shape"></path>
                <path d="M523,143.6 C523,183.9 501.6,204.1 458.9,204.1 L363.7,204.1 L363.7,0.1 L454.4,0.1 C495.1,0.1 515.5,16.3 515.5,48.7 C515.5,70.1 507.4,84.8 491,93.1 C512.4,103.3 523,120.2 523,143.6 Z M459,60.8 C459,47.7 452.4,41.1 439.3,41.1 L423.6,41.1 L423.6,80.4 L439.9,80.4 C452.7,80.4 459,73.9 459,60.8 Z M463.3,140.2 C463.3,125.5 455.9,118.1 441.2,118.1 L423.7,118.1 L423.7,162.2 L441.8,162.2 C456.1,162.3 463.3,154.9 463.3,140.2 Z" id="Shape"></path>
                <path d="M621.2,47.8 L561.3,47.8 C548.4,47.8 541.9,39.8 541.9,23.9 L541.9,0 L678.5,0 C693.4,0 700.9,8.1 700.9,24.2 C700.9,37.7 697,48.9 689.1,57.8 L623,156 L700.1,156 L700.1,180 C700.1,196 693.7,204 681,204 L541.1,204 L541.1,179.5 C541.1,165.8 545,154.6 552.9,145.9 L621.2,47.8 Z" id="Shape"></path>
                <path d="M782.9,168.1 L777.1,183.5 C771.9,197.2 763.5,204 751.8,204 C740,204 731.6,200.4 726.6,193.2 C721.5,186 719,179.5 719,173.8 C719,168 720.3,162.4 722.8,156.9 L794.3,0.1 L813.7,0.1 C826.6,0.1 836.1,7 842.2,20.6 L904.7,156.9 C907.3,162.5 908.6,168.2 908.6,174 C908.6,179.8 906.2,186.2 901.2,193.4 C896.2,200.6 887.8,204.1 875.9,204.1 C863.9,204.1 855.4,197.2 850.3,183.6 L844.5,168.2 L782.9,168.1 Z M826.8,119.7 L813.8,84.4 L800.8,119.7 L826.8,119.7 Z" id="Shape"></path>
            </g>
            <path d="M334.2,379.8 L84.1,379.8 C58.4,379.8 37.4,358.8 37.4,333.1 L37.4,83 C37.4,57.3 58.4,36.3 84.1,36.3 L334.2,36.3 C359.9,36.3 380.9,57.3 380.9,83 L380.9,333 C381,358.7 360,379.8 334.2,379.8 Z" id="Shape" fill="#0C97C1"></path>
            <path d="M289.9,225.8 C289,225.8 288.1,225.8 287.2,225.8 C260.9,226.1 235.7,232.4 211.6,244.2 C187.5,232.3 162.3,226.1 136,225.8 C135.1,225.8 134.2,225.8 133.3,225.8 C96.6,225.8 63.7,237.1 37.4,250.5 C37.4,266.5 37.4,386.9 37.4,386.9 L381,386.9 C381,386.9 381,266.6 381,248.2 C355.6,235.8 324.4,225.8 289.9,225.8 Z" id="Shape" fill="#FF016E"></path>
            <g id="Group" transform="translate(39.000000, 54.000000)" fill="#FFFFFF">
                <path d="M15.6,15.5 C7.7,23.4 2.7,33.5 1.1,44.3 C5.7,50.4 13.1,54.4 21.3,54.4 L49.9,54.4 C63.8,54.4 75.1,43 75.1,29.2 L75.1,0.5 L51.3,0.5 C37.9,0.6 25.2,5.9 15.6,15.5 Z" id="Shape"></path>
                <path d="M174.5,29.2 C174.5,43.1 185.9,54.4 199.7,54.4 L228.3,54.4 C242.2,54.4 253.5,43 253.5,29.2 L253.5,0.5 L174.5,0.5 L174.5,29.2 Z" id="Shape"></path>
                <path d="M288.9,54.4 L317.5,54.4 C325.8,54.4 333.1,50.4 337.7,44.3 C336.2,33.5 331.2,23.4 323.2,15.5 C313.6,5.9 300.8,0.5 287.3,0.5 L263.5,0.5 L263.5,29.2 C263.7,43.1 275,54.4 288.9,54.4 Z" id="Shape"></path>
                <path d="M333.1,266 C328.8,262.6 323.4,260.6 317.4,260.6 L288.8,260.6 C274.9,260.6 263.6,272 263.6,285.8 L263.6,311.5 L263.6,320.4 L263.6,323.1 L287.4,323.1 C300.9,323.1 313.6,317.8 323.3,308.1 C332.6,298.8 337.8,286.6 338.2,273.6 C338.2,273.2 338.2,272.7 338.2,272.2 L338.2,271.3 C336.8,269.4 335.1,267.6 333.1,266 Z" id="Shape"></path>
                <path d="M228.3,260.6 L199.7,260.6 C185.8,260.6 174.7,271.8 174.5,285.6 C174.5,285.7 174.5,285.8 174.5,285.9 L174.5,323.2 L212,323.2 L253.5,323.2 L253.5,285.9 C253.5,271.9 242.2,260.6 228.3,260.6 Z" id="Shape"></path>
                <path d="M139,260.6 L110.4,260.6 C96.5,260.6 85.2,272 85.2,285.8 L85.2,323.1 L126.7,323.1 L164.2,323.1 L164.2,285.8 C164.2,285.7 164.2,285.6 164.2,285.5 C164.2,271.7 152.9,260.6 139,260.6 Z" id="Shape"></path>
                <path d="M49.9,260.6 L21.3,260.6 C12.8,260.6 5.2,264.9 0.6,271.4 L0.6,272.3 C0.6,273.4 0.6,274.5 0.7,275.7 C1.5,287.9 6.7,299.4 15.5,308.1 C24.4,317 35.9,322.1 48.1,322.9 C49.1,323 50.3,323 51.3,323 L75.1,323 L75.1,285.8 C75.1,271.9 63.8,260.6 49.9,260.6 Z" id="Shape"></path>
            </g>
            <g id="Group" transform="translate(39.000000, 39.000000)" fill="#DBDBDB">
                <path d="M15.6,15.5 C6,25.1 0.6,37.9 0.6,51.4 L0.6,58.8 C0.8,59.1 0.9,59.2 1.1,59.5 C2.6,48.7 7.6,38.6 15.6,30.7 C25.2,21.1 38,15.7 51.5,15.7 L75.3,15.7 L75.3,0.6 L51.5,0.6 C37.9,0.5 25.2,5.8 15.6,15.5 Z" id="Shape"></path>
                <rect id="Rectangle-path" x="174.5" y="0.5" width="79.1" height="15.1"></rect>
                <path d="M323.2,15.5 C313.6,5.9 300.8,0.5 287.3,0.5 L263.5,0.5 L263.5,15.6 L287.3,15.6 C300.8,15.6 313.5,20.9 323.2,30.6 C331.1,38.5 336.1,48.6 337.7,59.4 C337.9,59.1 338,59 338.2,58.7 L338.2,51.4 C338.2,37.8 332.8,25.1 323.2,15.5 Z" id="Shape"></path>
                <path d="M317.5,265.6 L288.9,265.6 C275,265.6 263.7,277 263.7,290.8 L263.7,300.8 C263.7,286.9 275.1,275.6 288.9,275.6 L317.5,275.6 C323.4,275.6 328.9,277.7 333.2,281 C335.1,282.5 336.8,284.4 338.3,286.3 L338.3,278.6 L338.3,276.4 C333.6,269.8 326,265.6 317.5,265.6 Z" id="Shape"></path>
                <path d="M228.3,265.6 L199.7,265.6 C185.8,265.6 174.5,277 174.5,290.8 L174.5,300.4 C174.7,286.6 185.9,275.4 199.7,275.4 L228.3,275.4 C242.2,275.4 253.5,286.8 253.5,300.6 L253.5,290.6 C253.5,276.9 242.2,265.6 228.3,265.6 Z" id="Shape"></path>
                <path d="M139,265.6 L110.4,265.6 C96.5,265.6 85.2,277 85.2,290.8 L85.2,300.8 C85.2,286.9 96.6,275.6 110.4,275.6 L139,275.6 C152.9,275.6 164,286.8 164.2,300.6 L164.2,291 C164.3,276.9 153,265.6 139,265.6 Z" id="Shape"></path>
                <path d="M49.9,265.6 L21.3,265.6 C12.8,265.6 5.2,269.9 0.6,276.4 L0.6,286.4 C5.2,279.9 12.7,275.6 21.3,275.6 L49.9,275.6 C63.8,275.6 75.1,287 75.1,300.8 L75.1,290.8 C75.1,276.9 63.8,265.6 49.9,265.6 Z" id="Shape"></path>
            </g>
            <path d="M349,246.4 C300.1,230.8 246.1,241.5 242.7,251.6 C239.3,261.6 275.2,243 325.7,253.9 C350.6,259.3 368.2,267.8 381,277 C381,271.3 381,265 381,260.4 C371.2,254.9 360.4,250.1 349,246.4 Z" id="Shape" fill="#FFFFFF" opacity="0.44"></path>
            <path d="M356.5,294.5 L327.9,294.5 C315.1,294.5 303.8,301.4 297.6,311.6 C291.4,301.4 280.1,294.5 267.3,294.5 L238.7,294.5 C225.9,294.5 214.6,301.4 208.4,311.6 C202.2,301.4 190.9,294.5 178.1,294.5 L149.5,294.5 C136.7,294.5 125.4,301.4 119.2,311.6 C113,301.4 101.7,294.5 88.9,294.5 L60.2,294.5 C52.5,294.5 45.3,297 39.5,301.2 L39.5,307.7 L39.5,311.1 L39.5,315.3 C44.1,308.8 51.6,304.5 60.2,304.5 L88.8,304.5 C102.7,304.5 114,315.9 114,329.7 L114,339.7 L114,377 L119.1,377 L124.2,377 L124.2,339.7 L124.2,329.7 C124.2,315.8 135.6,304.5 149.4,304.5 L178,304.5 C191.9,304.5 203.2,315.9 203.2,329.7 L203.2,339.3 C203.2,339.4 203.2,339.5 203.2,339.6 L203.2,376.9 L208.3,376.9 L213.4,376.9 L213.4,339.6 C213.4,339.5 213.4,339.4 213.4,339.3 L213.4,329.7 C213.4,315.8 224.8,304.5 238.6,304.5 L267.2,304.5 C281.1,304.5 292.4,315.9 292.4,329.7 L292.4,339.7 L292.4,377 L297.5,377 L302.6,377 L302.6,374.3 L302.6,365.4 L302.6,339.7 L302.6,329.7 C302.6,315.8 314,304.5 327.8,304.5 L356.4,304.5 C364.9,304.5 372.5,308.8 377.1,315.3 L377.1,311.1 L377.1,307.7 L377.1,301.2 C371.3,297 364.2,294.5 356.5,294.5 Z" id="Shape" fill="#DB036A"></path>
            <path d="M326.4,0 L90.3,0 C40.5,0 2.27373675e-13,40.5 2.27373675e-13,90.3 L2.27373675e-13,326.3 C2.27373675e-13,376.1 40.5,416.6 90.3,416.6 L155.2,416.6 C155.5,416.9 155.7,417.3 156,417.6 L200.7,469.6 C202.6,471.8 205.4,473.1 208.4,473.1 C211.3,473.1 214.2,471.8 216.1,469.6 L260.7,417.7 C261,417.4 261.3,417 261.6,416.6 L326.5,416.6 C376.3,416.6 416.8,376.1 416.8,326.3 L416.8,90.3 C416.7,40.5 376.2,0 326.4,0 Z M302.7,54.6 L302.7,39.5 L326.5,39.5 C340,39.5 352.7,44.8 362.4,54.5 C372,64.1 377.4,76.9 377.4,90.4 L377.4,97.7 C377.2,98 377.1,98.1 376.9,98.4 C372.3,104.5 364.9,108.5 356.7,108.5 L328.1,108.5 C314.2,108.5 302.9,97.1 302.9,83.3 L302.7,54.6 Z M213.5,54.6 L213.5,39.5 L292.6,39.5 L292.6,54.6 L292.6,83.3 C292.6,97.2 281.2,108.5 267.4,108.5 L238.8,108.5 C224.9,108.5 213.6,97.1 213.6,83.3 L213.5,54.6 Z M39.6,90.3 C39.6,76.8 44.9,64.1 54.6,54.4 C64.2,44.8 77,39.4 90.5,39.4 L114.3,39.4 L114.3,54.5 L114.3,83.2 C114.3,97.1 102.9,108.4 89.1,108.4 L60.4,108.4 C52.1,108.4 44.8,104.4 40.2,98.3 C40,98 39.9,97.9 39.7,97.6 L39.7,90.3 L39.6,90.3 Z M362.2,362.1 C352.6,371.7 339.8,377.1 326.3,377.1 C326.3,377.1 88.2,377.1 87.1,377 C74.8,376.2 63.3,371.1 54.5,362.2 C45.6,353.3 40.5,342 39.7,329.8 C39.6,328.7 39.6,219.6 39.6,219.6 L39.6,112 C45.5,116.2 52.6,118.7 60.3,118.7 L88.9,118.7 C108.4,118.7 124.3,102.9 124.3,83.3 L124.3,39.5 L203.4,39.5 L203.4,83.2 C203.4,102.7 219.2,118.6 238.8,118.6 L267.4,118.6 C280.2,118.6 291.5,111.7 297.7,101.5 C303.9,111.7 315.2,118.6 328,118.6 L356.6,118.6 C364.3,118.6 371.5,116.1 377.3,111.9 L377.3,301.1 C377.3,301.1 377.3,327.2 377.3,327.6 C376.8,340.6 371.6,352.8 362.2,362.1 Z" id="Shape" fill="#14C1E5"></path>
            <path d="M155,254.8 C105.3,246.5 87.5,272.3 80.4,265.1 C69,253.7 107.2,238.9 142.8,242.2 C178.4,245.5 214,267.2 217.9,277 C221.9,286.8 191.6,260.9 155,254.8 Z" id="Shape" fill="#FFFFFF" opacity="0.44"></path>
        </g>
    </g>
</svg>