<svg width="66" height="45" viewBox="0 0 66 45" xmlns="http://www.w3.org/2000/svg">
    <title>
        Untitled 7
    </title>
    <g fill-rule="nonzero" fill="none">
        <path fill="#FED75C" d="M44.4 36.6H47v2.6h-2.6z"/>
        <path d="M26.1 18.1v25h3.4v-8c0-.3.3-.6.6-.6h5.8c.3 0 .6.3.6.6v8h3.4v-25H26.1zm6.8 10.5c-2.3 0-4.3-1.9-4.3-4.3s1.9-4.3 4.3-4.3 4.3 1.9 4.3 4.3-1.9 4.3-4.3 4.3z" fill="#EDF2F4"/>
        <path fill="#FFF" d="M26.1 43.1v-25h13.6z"/>
        <path d="M12.9 7.5c.6 0 1.2-.3 1.7-.8.1-.1.2-.2.4-.2.1 0 .3.1.4.2 1 1.1 2.7 1 3.7 0 .1-.1.2-.2.4-.2h.1c.2 0 .3.1.4.3.3.5.7.8 1.3.8.8 0 1.5-.7 1.5-1.5 0-1-1-1.7-2-1.3-.2.1-.3 0-.5 0-.1-.1-.2-.2-.2-.4-.1-1.7-1.2-3-2.7-3-1.1 0-2 .7-2.5 1.9l-.3.3c-.1.1-.3 0-.4 0-.3-.2-.7-.3-1-.3-1.2 0-2.2 1-2.2 2.2 0 1.2.7 2 1.9 2z" fill="#26CBED"/>
        <path d="M10 34.4c0-.9-.4-1.7-1-2.3-.1-.1-.2-.3-.1-.5.1-.4.1-.6.1-.9 0-1.8-1-3.2-2.2-3.2-1.2 0-2.2 1.4-2.2 3.2 0 .3 0 .6.1.9 0 .2 0 .3-.1.5-.6.6-1 1.4-1 2.3 0 1.8 1.4 3.2 3.2 3.2 1.8 0 3.2-1.5 3.2-3.2z" fill="#74D15E"/>
        <path d="M15.2 25.5v17.6h9.7V25.5h-9.7zm7.3 14.2c0 .3-.3.6-.6.6h-3.7c-.3 0-.6-.3-.6-.6v-3.8c0-.3.3-.6.6-.6H22c.3 0 .6.3.6.6v3.8h-.1zm-.5-6.6h-3.7c-.3 0-.6-.3-.6-.6v-3.8c0-.3.3-.6.6-.6h3.8c.3 0 .6.3.6.6v3.8c-.2.4-.4.6-.7.6z" fill="#EDF2F4"/>
        <path fill="#FFF" d="M15.2 43.5V25.2h10z"/>
        <path fill="#FED75C" d="M18.8 29.4h2.6V32h-2.6z"/>
        <path d="M40.9 25.6v17.5h9.7V25.6h-9.7zm7.3 14.1c0 .3-.3.6-.6.6h-3.8c-.3 0-.6-.3-.6-.6V36c0-.3.3-.6.6-.6h3.8c.3 0 .6.3.6.6v3.7zm-.6-6.5h-3.8c-.3 0-.6-.3-.6-.6v-3.8c0-.3.3-.6.6-.6h3.8c.3 0 .6.3.6.6v3.8c0 .4-.3.6-.6.6z" fill="#EDF2F4"/>
        <circle fill="#FED75C" cx="32.9" cy="24.4" r="3.1"/>
        <path d="M32.9 22.7c1.5 0 2.7 1 3 2.4.1-.2.1-.5.1-.7 0-1.7-1.4-3.1-3.1-3.1-1.7 0-3.1 1.4-3.1 3.1 0 .2 0 .5.1.7.3-1.4 1.5-2.4 3-2.4z" fill="#FFEBB0"/>
        <path fill="#FFF" d="M40.8 43.5V25.2h9.9z"/>
        <path fill="#FED75C" d="M18.8 36.5h2.6v2.6h-2.6z"/>
        <path fill="#FFF" d="M30.6 35.7h4.6v7.4h-4.6z"/>
        <ellipse fill="#74D15E" cx="61.7" cy="32.7" rx="3.3" ry="4.9"/>
        <path d="M49.8 14.8c1.1 0 2.1-.6 2.7-1.6.1-.2.3-.3.4-.3.2 0 .4.1.4.3.5 1.3 1.5 2.2 2.4 2.2.8 0 1.5-.5 2.1-1.4.1-.1.2-.2.4-.2s.3 0 .4.2c.5.5 1.1.8 1.8.8 1.3 0 2.4-1.1 2.4-2.4 0-.6-.2-1.2-.7-1.7-.7-.7-1.8-.9-2.8-.4-.1.1-.3.1-.5 0-.1-.1-.2-.2-.3-.4-.3-2.1-1.5-3.8-2.8-3.8-1.3 0-2.5 1.5-2.8 3.6 0 .2-.2.4-.4.4-.2.1-.4 0-.5-.2-.6-.7-1.4-1.1-2.3-1.1-1.7 0-3 1.3-3 3s1.5 3 3.1 3z" fill="#26CBED"/>
        <path d="M57.1 43.1h-5.4v.5h-1.1v-.5h-9.7v.2h-1.1v-.2h-3.4v.1h-1.1v-.1h-4.6v.1h-1.1V43h-3.4v.1h-1.1V43h-9.7v.8c-.4.1-.8-1.4-1.1-.3V43H7.5c0 .3-.2.5-.5.5s-.5-.2-.5-.5H1c-.3 0-.5.2-.5.5s.2.5.5.5h56.1c.3 0 .5-.2.5-.5s-.2-.4-.5-.4z" fill="#504B46"/>
        <path d="M61.7 43.6c-.3 0-.5-.2-.5-.5h-1.6c-.3 0-.5.2-.5.5s.2.5.5.5h4.1c.3 0 .5-.2.5-.5s-.2-.5-.5-.5h-1.6c.1.3-.1.5-.4.5z" fill="#504B46"/>
        <path d="M6.8 37.6c-1.8 0-3.2-1.4-3.2-3.2 0-.9.4-1.7 1-2.3.1-.1.2-.3.1-.5-.1-.4-.1-.6-.1-.9 0-1.8 1-3.2 2.2-3.2C8 27.5 9 28.9 9 30.7c0 .3 0 .6-.1.9 0 .2 0 .3.1.5.6.6 1 1.4 1 2.3 0 1.7-1.5 3.2-3.2 3.2.3 0 .5.2.5.5v.4c2.1-.3 3.7-2 3.7-4.2 0-1.1-.4-2.1-1.1-2.8.1-.3.1-.6.1-.9 0-2.3-1.4-4.2-3.2-4.2-1.8 0-3.2 1.9-3.2 4.2 0 .3 0 .6.1.9-.7.8-1.1 1.8-1.1 2.8 0 2.1 1.6 3.9 3.7 4.2v-.4c0-.3.2-.5.5-.5z" fill="#504B46"/>
        <path d="M61.7 37.6c-1.8 0-3.3-2.2-3.3-4.9s1.5-4.9 3.3-4.9c1.8 0 3.3 2.2 3.3 4.9s-1.4 4.9-3.3 4.9c.3 0 .5.2.5.5v.5c2.1-.3 3.8-2.8 3.8-5.8 0-3.2-1.9-5.9-4.3-5.9s-4.3 2.6-4.3 5.9c0 3 1.7 5.5 3.8 5.8v-.5c0-.3.3-.5.5-.5z" fill="#504B46"/>
        <path d="M12.9 8.5c.8 0 1.5-.3 2.1-.8 1.3 1 3 1 4.3 0 .5.5 1.1.8 1.8.8 1.4 0 2.5-1.1 2.5-2.5 0-1.5-1.3-2.6-2.8-2.4C20.5 1.7 19 .3 17.2.3c-1.3 0-2.5.8-3.2 2-.3-.1-.7-.2-1-.2-1.8 0-3.2 1.4-3.2 3.2 0 1.8 1.4 3.2 3.1 3.2zm0-5.4c.4 0 .7.1 1 .3.1.1.3.1.4 0l.3-.3C15 2 16 1.2 17.1 1.2c1.4 0 2.6 1.3 2.7 3 0 .2.1.3.2.4.1.1.3.1.5 0 1-.4 2 .4 2 1.3 0 .8-.7 1.5-1.5 1.5-.5 0-1-.3-1.3-.8-.1-.1-.2-.2-.4-.3h-.1c-.1 0-.3.1-.4.2-1 1.1-2.6 1.1-3.7 0-.1-.1-.2-.2-.4-.2-.1 0-.3.1-.4.2-.4.5-1 .8-1.7.8-1.2 0-2.2-1-2.2-2.2 0-1.2 1.3-2 2.5-2z" fill="#504B46"/>
        <path d="M49.8 15.8c1.2 0 2.3-.5 3-1.4.7 1.3 1.8 2 3 2 1 0 1.9-.5 2.6-1.4.6.5 1.3.7 2.1.7 1.9 0 3.4-1.5 3.4-3.4 0-.9-.4-1.8-1-2.4-.9-.9-2.1-1.2-3.3-.9-.5-2.3-2-4-3.7-4-1.6 0-3 1.4-3.6 3.5-.7-.5-1.5-.8-2.4-.8-2.2 0-4 1.8-4 4s1.7 4.1 3.9 4.1zm0-7c.9 0 1.7.4 2.3 1.1.1.2.3.2.5.2.2-.1.3-.2.4-.4.3-2.1 1.5-3.6 2.8-3.6 1.4 0 2.6 1.6 2.8 3.8 0 .2.1.3.3.4.1.1.3.1.5 0 1-.5 2.1-.3 2.8.4.5.5.7 1 .7 1.7 0 1.3-1.1 2.4-2.4 2.4-.7 0-1.3-.3-1.8-.8-.1-.1-.3-.2-.4-.2-.2 0-.3.1-.4.2-.6.9-1.3 1.4-2.1 1.4-1 0-1.9-.8-2.4-2.2-.1-.2-.2-.3-.4-.3s-.4.1-.4.3c-.5 1-1.5 1.6-2.7 1.6-1.7 0-3-1.3-3-3s1.3-3 2.9-3z" fill="#504B46"/>
        <path d="M7.3 43.1v-4.6c-.2 0-.3.1-.5.1s-.3 0-.5-.1v4.6h1z" fill="#504B46"/>
        <path d="M6.8 43.6c.3 0 .5-.2.5-.5h-1c0 .3.2.5.5.5z" fill="#504B46"/>
        <path d="M7.3 38.5v-.4c0-.3-.2-.5-.5-.5s-.5.2-.5.5v.4c.2 0 .3.1.5.1s.3-.1.5-.1z" fill="#504B46"/>
        <path d="M62.2 38.5h-1v4.6h1v-4.6z" fill="#504B46"/>
        <path d="M61.7 43.6c.3 0 .5-.2.5-.5h-1c.1.3.3.5.5.5z" fill="#504B46"/>
        <path d="M62.2 38.5V38c0-.3-.2-.5-.5-.5s-.5.2-.5.5v.5h1z" fill="#504B46"/>
        <path d="M35.8 34.6H30c-.3 0-.6.3-.6.6v8h1.1v-7.4h4.6v7.4h1.1v-8c.2-.3-.1-.6-.4-.6z" fill="#504B46"/>
        <path d="M35.2 43.2h1.1v-.1h-1.1v.1z" fill="#504B46"/>
        <path d="M29.5 43.3h1.1v-.1h-1.1v.1z" fill="#504B46"/>
        <path d="M15.2 25.5h9.7v17.6H26v-25h13.6v25h1.1V25.6h9.7v17.5h1.1V25c0-.3-.3-.6-.6-.6H40.6v-6.9c0-.3-.3-.6-.6-.6H25.2c-.3 0-.6.3-.6.6v6.9H14.3c-.3 0-.6.3-.6 1.6v17.2h1.1V25.5h.4z" fill="#504B46"/>
        <path d="M25 43.2h1.1v-.1l-1.1.1z" fill="#504B46"/>
        <path d="M39.7 43.3h1.1v-.2h-1.1v.2z" fill="#504B46"/>
        <path d="M50.6 43.6h1.1v-.5h-1.1v.5z" fill="#504B46"/>
        <path d="M15.2 43.9v-.8h-1.1v.5c.4-1.1.7.4 1.1.3z" fill="#504B46"/>
        <path d="M32.9 20.1c-2.3 0-4.3 1.9-4.3 4.3s1.9 4.3 4.3 4.3 4.3-1.9 4.3-4.3-1.9-4.3-4.3-4.3zm0 7.4c-1.7 0-3.1-1.4-3.1-3.1 0-1.7 1.4-3.1 3.1-3.1 1.7 0 3.1 1.4 3.1 3.1 0 1.7-1.4 3.1-3.1 3.1z" fill="#504B46"/>
        <path d="M47.6 35.4h-3.8c-.3 0-.6.3-.6.6v3.8c0 .3.3.6.6.6h3.8c.3 0 .6-.3.6-.6V36c0-.3-.3-.6-.6-.6zm-.5 3.8h-2.6v-2.6h2.6v2.6z" fill="#504B46"/>
        <path d="M22 28.2h-3.8c-.3 0-.6.3-.6.6v3.8c0 .3.3.6.6.6h3.7c.3 0 .6-.3.6-.6v-3.8c0-.3-.2-.6-.5-.6zm-.6 3.8h-2.6v-2.6h2.6V32z" fill="#504B46"/>
        <path d="M22 35.3h-3.8c-.3 0-.6.3-.6.6v3.8c0 .3.3.6.6.6h3.7c.3 0 .6-.3.6-.6v-3.8c0-.3-.2-.6-.5-.6zm-.6 3.8h-2.6v-2.6h2.6v2.6z" fill="#504B46"/>
        <path d="M34.4 7.6c-.2 0-.4.1-.6.2-.3.1-.6.3-.9.3-.3 0-.6-.1-.9-.3-.2-.1-.4-.2-.6-.2-.8 0-1.8.9-1.8 1.5 0 .8 1.1 4.6 1.7 5.1 0-.1.1-.4.1-.6.1-.9.3-2.3 1.5-2.3s1.4 1.4 1.5 2.3c0 .2.1.4.1.6.6-.5 1.7-4.3 1.7-5.1 0-.6-1-1.5-1.8-1.5z" fill="#FFF"/>
        <g fill="#504B46">
            <path d="M34.4 6.9c-.3 0-.6.1-.9.3-.2.1-.4.2-.6.2-.2 0-.4-.1-.6-.2-.3-.1-.6-.3-.9-.3-1.1 0-2.5 1.2-2.5 2.2 0 .4 1.1 5.8 2.5 5.8.5 0 .6-.6.6-1.2.1-1 .3-1.7.9-1.7.6 0 .7.8.9 1.7.1.6.2 1.2.6 1.2 1.4 0 2.5-5.4 2.5-5.8 0-1-1.4-2.2-2.5-2.2zm.1 7.3c0-.1-.1-.4-.1-.6-.1-.9-.3-2.3-1.5-2.3s-1.4 1.4-1.5 2.3c0 .2-.1.4-.1.6-.6-.5-1.7-4.3-1.7-5.1 0-.6 1-1.5 1.8-1.5.2 0 .4.1.6.2.3.1.6.3.9.3.3 0 .6-.1.9-.3.2-.1.4-.2.6-.2.8 0 1.8.9 1.8 1.5 0 .8-1 4.5-1.7 5.1z"/>
            <path d="M34.4 15.1c-.6 0-.7-.7-.8-1.4l-.1-.3c-.2-.8-.3-1.3-.6-1.3-.4 0-.6.5-.7 1.5 0 .9-.3 1.4-.8 1.4-1.6 0-2.7-5.7-2.7-6 0-1.1 1.5-2.4 2.7-2.4.2 0 .5.1.7.2.1 0 .2.1.3.1.2.1.4.2.5.2.1 0 .3-.1.5-.2.3-.2.7-.3 1-.3 1.2 0 2.7 1.3 2.7 2.4 0 .4-1 6.1-2.7 6.1zm-1.5-3.3c.7 0 .9.8 1 1.6l.1.3c.1.5.2 1 .4 1 1.2 0 2.3-5.2 2.3-5.6 0-.9-1.3-2-2.3-2-.3 0-.5.1-.8.3-.2.1-.5.2-.7.2-.2 0-.5-.1-.7-.2-.1 0-.2-.1-.3-.1-.2-.1-.4-.2-.5-.2-1 0-2.3 1.1-2.3 2 0 .4 1.1 5.6 2.3 5.6.1 0 .4 0 .4-1 .1-1 .3-1.9 1.1-1.9zm1.4 2.8v-.4-.2c0-.1-.1-.3-.1-.4-.1-1.1-.4-2.1-1.3-2.1s-1.2 1-1.3 2.1c0 .1 0 .2-.1.3v.7l-.3-.3c-.7-.6-1.8-4.4-1.8-5.3 0-.7 1.1-1.7 2-1.7.2 0 .5.1.7.2.1 0 .2.1.3.1.2.1.4.2.5.2.3 0 .5-.1.8-.3.2-.1.5-.2.7-.2.9 0 2 1 2 1.7 0 .8-1 4.6-1.8 5.3l-.3.3zm-1.4-3.5c1.4 0 1.6 1.7 1.7 2.5v.1c.6-1.1 1.4-3.9 1.4-4.6 0-.5-.9-1.3-1.6-1.3-.2 0-.3.1-.5.2-.3.2-.7.3-1 .3-.2 0-.5-.1-.7-.2-.1 0-.2-.1-.3-.1-.2-.1-.4-.2-.5-.2-.7 0-1.6.8-1.6 1.3 0 .7.8 3.6 1.4 4.6v-.1c.1-.8.3-2.5 1.7-2.5z"/>
        </g>
        <path fill="#FED75C" d="M44.4 29.5H47v2.6h-2.6z"/>
        <path d="M47.6 28.3h-3.8c-.3 0-.6.3-.6.6v3.8c0 .3.3.6.6.6h3.8c.3 0 .6-.3.6-.6v-3.8c0-.3-.3-.6-.6-.6zm-.5 3.8h-2.6v-2.6h2.6v2.6z" fill="#504B46"/>
    </g>
</svg>
