<?xml version="1.0" encoding="UTF-8"?>
<svg width="66px" height="45px" viewBox="0 0 66 45" version="1.1" xmlns="http://www.w3.org/2000/svg" xmlns:xlink="http://www.w3.org/1999/xlink">
    <!-- Generator: Sketch 48.2 (47327) - http://www.bohemiancoding.com/sketch -->
    <title>Untitled 7</title>
    <desc>Created with Sketch.</desc>
    <defs></defs>
    <g id="Page-1" stroke="none" stroke-width="1" fill="none" fill-rule="evenodd">
        <g id="clinic" fill-rule="nonzero">
            <rect id="Rectangle-path" fill="#FED75C" x="44.4" y="36.6" width="2.6" height="2.6"></rect>
            <path d="M26.1,18.1 L26.1,43.1 L29.5,43.1 L29.5,35.1 C29.5,34.8 29.8,34.5 30.1,34.5 L35.9,34.5 C36.2,34.5 36.5,34.8 36.5,35.1 L36.5,43.1 L39.9,43.1 L39.9,18.1 L26.1,18.1 Z M32.9,28.6 C30.6,28.6 28.6,26.7 28.6,24.3 C28.6,21.9 30.5,20 32.9,20 C35.3,20 37.2,21.9 37.2,24.3 C37.2,26.7 35.3,28.6 32.9,28.6 Z" id="Shape" fill="#EDF2F4"></path>
            <polygon id="Shape" fill="#FFFFFF" points="26.1 43.1 26.1 18.1 39.7 18.1"></polygon>
            <path d="M12.9,7.5 C13.5,7.5 14.1,7.2 14.6,6.7 C14.7,6.6 14.8,6.5 15,6.5 C15.1,6.5 15.3,6.6 15.4,6.7 C16.4,7.8 18.1,7.7 19.1,6.7 C19.2,6.6 19.3,6.5 19.5,6.5 C19.5,6.5 19.5,6.5 19.6,6.5 C19.8,6.5 19.9,6.6 20,6.8 C20.3,7.3 20.7,7.6 21.3,7.6 C22.1,7.6 22.8,6.9 22.8,6.1 C22.8,5.1 21.8,4.4 20.8,4.8 C20.6,4.9 20.5,4.8 20.3,4.8 C20.2,4.7 20.1,4.6 20.1,4.4 C20,2.7 18.9,1.4 17.4,1.4 C16.3,1.4 15.4,2.1 14.9,3.3 C14.8,3.4 14.7,3.5 14.6,3.6 C14.5,3.7 14.3,3.6 14.2,3.6 C13.9,3.4 13.5,3.3 13.2,3.3 C12,3.3 11,4.3 11,5.5 C11,6.7 11.7,7.5 12.9,7.5 Z" id="Shape" fill="#26CBED"></path>
            <path d="M10,34.4 C10,33.5 9.6,32.7 9,32.1 C8.9,32 8.8,31.8 8.9,31.6 C9,31.2 9,31 9,30.7 C9,28.9 8,27.5 6.8,27.5 C5.6,27.5 4.6,28.9 4.6,30.7 C4.6,31 4.6,31.3 4.7,31.6 C4.7,31.8 4.7,31.9 4.6,32.1 C4,32.7 3.6,33.5 3.6,34.4 C3.6,36.2 5,37.6 6.8,37.6 C8.6,37.6 10,36.1 10,34.4 Z" id="Shape" fill="#74D15E"></path>
            <path d="M15.2,25.5 L15.2,43.1 L24.9,43.1 L24.9,25.5 L15.2,25.5 Z M22.5,39.7 C22.5,40 22.2,40.3 21.9,40.3 L18.2,40.3 C17.9,40.3 17.6,40 17.6,39.7 L17.6,35.9 C17.6,35.6 17.9,35.3 18.2,35.3 L22,35.3 C22.3,35.3 22.6,35.6 22.6,35.9 L22.6,39.7 L22.5,39.7 Z M22,33.1 L18.3,33.1 C18,33.1 17.7,32.8 17.7,32.5 L17.7,28.7 C17.7,28.4 18,28.1 18.3,28.1 L22.1,28.1 C22.4,28.1 22.7,28.4 22.7,28.7 L22.7,32.5 C22.5,32.9 22.3,33.1 22,33.1 Z" id="Shape" fill="#EDF2F4"></path>
            <polygon id="Shape" fill="#FFFFFF" points="15.2 43.5 15.2 25.2 25.2 25.2"></polygon>
            <rect id="Rectangle-path" fill="#FED75C" x="18.8" y="29.4" width="2.6" height="2.6"></rect>
            <path d="M40.9,25.6 L40.9,43.1 L50.6,43.1 L50.6,25.6 L40.9,25.6 Z M48.2,39.7 C48.2,40 47.9,40.3 47.6,40.3 L43.8,40.3 C43.5,40.3 43.2,40 43.2,39.7 L43.2,36 C43.2,35.7 43.5,35.4 43.8,35.4 L47.6,35.4 C47.9,35.4 48.2,35.7 48.2,36 L48.2,39.7 Z M47.6,33.2 L43.8,33.2 C43.5,33.2 43.2,32.9 43.2,32.6 L43.2,28.8 C43.2,28.5 43.5,28.2 43.8,28.2 L47.6,28.2 C47.9,28.2 48.2,28.5 48.2,28.8 L48.2,32.6 C48.2,33 47.9,33.2 47.6,33.2 Z" id="Shape" fill="#EDF2F4"></path>
            <circle id="Oval" fill="#FED75C" cx="32.9" cy="24.4" r="3.1"></circle>
            <path d="M32.9,22.7 C34.4,22.7 35.6,23.7 35.9,25.1 C36,24.9 36,24.6 36,24.4 C36,22.7 34.6,21.3 32.9,21.3 C31.2,21.3 29.8,22.7 29.8,24.4 C29.8,24.6 29.8,24.9 29.9,25.1 C30.2,23.7 31.4,22.7 32.9,22.7 Z" id="Shape" fill="#FFEBB0"></path>
            <polygon id="Shape" fill="#FFFFFF" points="40.8 43.5 40.8 25.2 50.7 25.2"></polygon>
            <rect id="Rectangle-path" fill="#FED75C" x="18.8" y="36.5" width="2.6" height="2.6"></rect>
            <rect id="Rectangle-path" fill="#FFFFFF" x="30.6" y="35.7" width="4.6" height="7.4"></rect>
            <ellipse id="Oval" fill="#74D15E" cx="61.7" cy="32.7" rx="3.3" ry="4.9"></ellipse>
            <path d="M49.8,14.8 C50.9,14.8 51.9,14.2 52.5,13.2 C52.6,13 52.8,12.9 52.9,12.9 C52.9,12.9 52.9,12.9 52.9,12.9 C53.1,12.9 53.3,13 53.3,13.2 C53.8,14.5 54.8,15.4 55.7,15.4 C56.5,15.4 57.2,14.9 57.8,14 C57.9,13.9 58,13.8 58.2,13.8 C58.4,13.8 58.5,13.8 58.6,14 C59.1,14.5 59.7,14.8 60.4,14.8 C61.7,14.8 62.8,13.7 62.8,12.4 C62.8,11.8 62.6,11.2 62.1,10.7 C61.4,10 60.3,9.8 59.3,10.3 C59.2,10.4 59,10.4 58.8,10.3 C58.7,10.2 58.6,10.1 58.5,9.9 C58.2,7.8 57,6.1 55.7,6.1 C54.4,6.1 53.2,7.6 52.9,9.7 C52.9,9.9 52.7,10.1 52.5,10.1 C52.3,10.2 52.1,10.1 52,9.9 C51.4,9.2 50.6,8.8 49.7,8.8 C48,8.8 46.7,10.1 46.7,11.8 C46.7,13.5 48.2,14.8 49.8,14.8 Z" id="Shape" fill="#26CBED"></path>
            <path d="M57.1,43.1 L51.7,43.1 L51.7,43.6 C51.3,43.6 51,43.6 50.6,43.6 L50.6,43.1 L40.9,43.1 L40.9,43.3 C40.5,43.3 40.2,43.3 39.8,43.3 L39.8,43.1 L36.4,43.1 L36.4,43.2 C36,43.2 35.7,43.2 35.3,43.2 L35.3,43.1 L30.7,43.1 L30.7,43.2 C30.3,43.2 30,43.2 29.6,43.2 L29.6,43 L26.2,43 L26.2,43.1 C25.8,43.1 25.5,43.1 25.1,43.1 L25.1,43 L15.4,43 L15.4,43.8 C15,43.9 14.6,42.4 14.3,43.5 L14.3,43 L7.5,43 C7.5,43.3 7.3,43.5 7,43.5 C6.7,43.5 6.5,43.3 6.5,43 L1,43 C0.7,43 0.5,43.2 0.5,43.5 C0.5,43.8 0.7,44 1,44 L57.1,44 C57.4,44 57.6,43.8 57.6,43.5 C57.6,43.2 57.4,43.1 57.1,43.1 Z" id="Shape" fill="#504B46"></path>
            <path d="M61.7,43.6 C61.4,43.6 61.2,43.4 61.2,43.1 L59.6,43.1 C59.3,43.1 59.1,43.3 59.1,43.6 C59.1,43.9 59.3,44.1 59.6,44.1 L63.7,44.1 C64,44.1 64.2,43.9 64.2,43.6 C64.2,43.3 64,43.1 63.7,43.1 L62.1,43.1 C62.2,43.4 62,43.6 61.7,43.6 Z" id="Shape" fill="#504B46"></path>
            <path d="M6.8,37.6 C5,37.6 3.6,36.2 3.6,34.4 C3.6,33.5 4,32.7 4.6,32.1 C4.7,32 4.8,31.8 4.7,31.6 C4.6,31.2 4.6,31 4.6,30.7 C4.6,28.9 5.6,27.5 6.8,27.5 C8,27.5 9,28.9 9,30.7 C9,31 9,31.3 8.9,31.6 C8.9,31.8 8.9,31.9 9,32.1 C9.6,32.7 10,33.5 10,34.4 C10,36.1 8.5,37.6 6.8,37.6 C7.1,37.6 7.3,37.8 7.3,38.1 L7.3,38.5 C9.4,38.2 11,36.5 11,34.3 C11,33.2 10.6,32.2 9.9,31.5 C10,31.2 10,30.9 10,30.6 C10,28.3 8.6,26.4 6.8,26.4 C5,26.4 3.6,28.3 3.6,30.6 C3.6,30.9 3.6,31.2 3.7,31.5 C3,32.3 2.6,33.3 2.6,34.3 C2.6,36.4 4.2,38.2 6.3,38.5 L6.3,38.1 C6.3,37.8 6.5,37.6 6.8,37.6 Z" id="Shape" fill="#504B46"></path>
            <path d="M61.7,37.6 C59.9,37.6 58.4,35.4 58.4,32.7 C58.4,30 59.9,27.8 61.7,27.8 C63.5,27.8 65,30 65,32.7 C65,35.4 63.6,37.6 61.7,37.6 C62,37.6 62.2,37.8 62.2,38.1 L62.2,38.6 C64.3,38.3 66,35.8 66,32.8 C66,29.6 64.1,26.9 61.7,26.9 C59.3,26.9 57.4,29.5 57.4,32.8 C57.4,35.8 59.1,38.3 61.2,38.6 L61.2,38.1 C61.2,37.8 61.5,37.6 61.7,37.6 Z" id="Shape" fill="#504B46"></path>
            <path d="M12.9,8.5 C13.7,8.5 14.4,8.2 15,7.7 C16.3,8.7 18,8.7 19.3,7.7 C19.8,8.2 20.4,8.5 21.1,8.5 C22.5,8.5 23.6,7.4 23.6,6 C23.6,4.5 22.3,3.4 20.8,3.6 C20.5,1.7 19,0.3 17.2,0.3 C15.9,0.3 14.7,1.1 14,2.3 C13.7,2.2 13.3,2.1 13,2.1 C11.2,2.1 9.8,3.5 9.8,5.3 C9.8,7.1 11.2,8.5 12.9,8.5 Z M12.9,3.1 C13.3,3.1 13.6,3.2 13.9,3.4 C14,3.5 14.2,3.5 14.3,3.4 C14.4,3.3 14.5,3.2 14.6,3.1 C15,2 16,1.2 17.1,1.2 C18.5,1.2 19.7,2.5 19.8,4.2 C19.8,4.4 19.9,4.5 20,4.6 C20.1,4.7 20.3,4.7 20.5,4.6 C21.5,4.2 22.5,5 22.5,5.9 C22.5,6.7 21.8,7.4 21,7.4 C20.5,7.4 20,7.1 19.7,6.6 C19.6,6.5 19.5,6.4 19.3,6.3 C19.3,6.3 19.3,6.3 19.2,6.3 C19.1,6.3 18.9,6.4 18.8,6.5 C17.8,7.6 16.2,7.6 15.1,6.5 C15,6.4 14.9,6.3 14.7,6.3 C14.6,6.3 14.4,6.4 14.3,6.5 C13.9,7 13.3,7.3 12.6,7.3 C11.4,7.3 10.4,6.3 10.4,5.1 C10.4,3.9 11.7,3.1 12.9,3.1 Z" id="Shape" fill="#504B46"></path>
            <path d="M49.8,15.8 C51,15.8 52.1,15.3 52.8,14.4 C53.5,15.7 54.6,16.4 55.8,16.4 C56.8,16.4 57.7,15.9 58.4,15 C59,15.5 59.7,15.7 60.5,15.7 C62.4,15.7 63.9,14.2 63.9,12.3 C63.9,11.4 63.5,10.5 62.9,9.9 C62,9 60.8,8.7 59.6,9 C59.1,6.7 57.6,5 55.9,5 C54.3,5 52.9,6.4 52.3,8.5 C51.6,8 50.8,7.7 49.9,7.7 C47.7,7.7 45.9,9.5 45.9,11.7 C45.9,13.9 47.6,15.8 49.8,15.8 Z M49.8,8.8 C50.7,8.8 51.5,9.2 52.1,9.9 C52.2,10.1 52.4,10.1 52.6,10.1 C52.8,10 52.9,9.9 53,9.7 C53.3,7.6 54.5,6.1 55.8,6.1 C57.2,6.1 58.4,7.7 58.6,9.9 C58.6,10.1 58.7,10.2 58.9,10.3 C59,10.4 59.2,10.4 59.4,10.3 C60.4,9.8 61.5,10 62.2,10.7 C62.7,11.2 62.9,11.7 62.9,12.4 C62.9,13.7 61.8,14.8 60.5,14.8 C59.8,14.8 59.2,14.5 58.7,14 C58.6,13.9 58.4,13.8 58.3,13.8 C58.1,13.8 58,13.9 57.9,14 C57.3,14.9 56.6,15.4 55.8,15.4 C54.8,15.4 53.9,14.6 53.4,13.2 C53.3,13 53.2,12.9 53,12.9 C53,12.9 53,12.9 53,12.9 C52.8,12.9 52.6,13 52.6,13.2 C52.1,14.2 51.1,14.8 49.9,14.8 C48.2,14.8 46.9,13.5 46.9,11.8 C46.9,10.1 48.2,8.8 49.8,8.8 Z" id="Shape" fill="#504B46"></path>
            <path d="M7.3,43.1 L7.3,38.5 C7.1,38.5 7,38.6 6.8,38.6 C6.6,38.6 6.5,38.6 6.3,38.5 L6.3,43.1 C6.3,43.1 6.3,43.1 6.3,43.1 L7.3,43.1 C7.3,43.1 7.3,43.1 7.3,43.1 Z" id="Shape" fill="#504B46"></path>
            <path d="M6.8,43.6 C7.1,43.6 7.3,43.4 7.3,43.1 L6.3,43.1 C6.3,43.4 6.5,43.6 6.8,43.6 Z" id="Shape" fill="#504B46"></path>
            <path d="M7.3,38.5 L7.3,38.1 C7.3,37.8 7.1,37.6 6.8,37.6 C6.5,37.6 6.3,37.8 6.3,38.1 L6.3,38.5 C6.5,38.5 6.6,38.6 6.8,38.6 C7,38.6 7.1,38.5 7.3,38.5 Z" id="Shape" fill="#504B46"></path>
            <path d="M62.2,38.5 C62,38.5 61.9,38.5 61.7,38.5 C61.5,38.5 61.4,38.5 61.2,38.5 L61.2,43.1 C61.2,43.1 61.2,43.1 61.2,43.1 L62.2,43.1 C62.2,43.1 62.2,43.1 62.2,43.1 L62.2,38.5 Z" id="Shape" fill="#504B46"></path>
            <path d="M61.7,43.6 C62,43.6 62.2,43.4 62.2,43.1 L61.2,43.1 C61.3,43.4 61.5,43.6 61.7,43.6 Z" id="Shape" fill="#504B46"></path>
            <path d="M62.2,38.5 L62.2,38 C62.2,37.7 62,37.5 61.7,37.5 C61.4,37.5 61.2,37.7 61.2,38 L61.2,38.5 C61.4,38.5 61.5,38.5 61.7,38.5 C61.9,38.5 62.1,38.5 62.2,38.5 Z" id="Shape" fill="#504B46"></path>
            <path d="M35.8,34.6 L30,34.6 C29.7,34.6 29.4,34.9 29.4,35.2 L29.4,43.2 L30.5,43.2 L30.5,35.8 L35.1,35.8 L35.1,43.2 L36.2,43.2 L36.2,35.2 C36.4,34.9 36.1,34.6 35.8,34.6 Z" id="Shape" fill="#504B46"></path>
            <path d="M35.2,43.2 C35.6,43.2 35.9,43.2 36.3,43.2 L36.3,43.1 L35.2,43.1 L35.2,43.2 Z" id="Shape" fill="#504B46"></path>
            <path d="M29.5,43.3 C29.9,43.3 30.3,43.3 30.6,43.3 L30.6,43.2 L29.5,43.2 L29.5,43.3 Z" id="Shape" fill="#504B46"></path>
            <path d="M15.2,25.5 L24.9,25.5 L24.9,43.1 L26,43.1 L26,18.1 L39.6,18.1 L39.6,43.1 L40.7,43.1 L40.7,25.6 L50.4,25.6 L50.4,43.1 L51.5,43.1 L51.5,25 C51.5,24.7 51.2,24.4 50.9,24.4 L40.6,24.4 L40.6,17.5 C40.6,17.2 40.3,16.9 40,16.9 L25.2,16.9 C24.9,16.9 24.6,17.2 24.6,17.5 L24.6,24.4 L14.3,24.4 C14,24.4 13.7,24.7 13.7,26 L13.7,43.2 L14.8,43.2 L14.8,25.5 L15.2,25.5 Z" id="Shape" fill="#504B46"></path>
            <path d="M25,43.2 C25.4,43.2 25.8,43.2 26.1,43.2 L26.1,43.1 L25,43.2 Z" id="Shape" fill="#504B46"></path>
            <path d="M39.7,43.3 C40.1,43.3 40.4,43.3 40.8,43.3 L40.8,43.1 L39.7,43.1 L39.7,43.3 Z" id="Shape" fill="#504B46"></path>
            <path d="M50.6,43.6 C51,43.6 51.3,43.6 51.7,43.6 L51.7,43.1 L50.6,43.1 L50.6,43.6 Z" id="Shape" fill="#504B46"></path>
            <path d="M15.2,43.9 L15.2,43.1 L14.1,43.1 L14.1,43.6 C14.5,42.5 14.8,44 15.2,43.9 Z" id="Shape" fill="#504B46"></path>
            <path d="M32.9,20.1 C30.6,20.1 28.6,22 28.6,24.4 C28.6,26.8 30.5,28.7 32.9,28.7 C35.3,28.7 37.2,26.8 37.2,24.4 C37.2,22 35.3,20.1 32.9,20.1 Z M32.9,27.5 C31.2,27.5 29.8,26.1 29.8,24.4 C29.8,22.7 31.2,21.3 32.9,21.3 C34.6,21.3 36,22.7 36,24.4 C36,26.1 34.6,27.5 32.9,27.5 Z" id="Shape" fill="#504B46"></path>
            <path d="M47.6,35.4 L43.8,35.4 C43.5,35.4 43.2,35.7 43.2,36 L43.2,39.8 C43.2,40.1 43.5,40.4 43.8,40.4 L47.6,40.4 C47.9,40.4 48.2,40.1 48.2,39.8 L48.2,36 C48.2,35.7 47.9,35.4 47.6,35.4 Z M47.1,39.2 L44.5,39.2 L44.5,36.6 L47.1,36.6 L47.1,39.2 Z" id="Shape" fill="#504B46"></path>
            <path d="M22,28.2 L18.2,28.2 C17.9,28.2 17.6,28.5 17.6,28.8 L17.6,32.6 C17.6,32.9 17.9,33.2 18.2,33.2 L21.9,33.2 C22.2,33.2 22.5,32.9 22.5,32.6 L22.5,28.8 C22.5,28.5 22.3,28.2 22,28.2 Z M21.4,32 L18.8,32 L18.8,29.4 L21.4,29.4 L21.4,32 Z" id="Shape" fill="#504B46"></path>
            <path d="M22,35.3 L18.2,35.3 C17.9,35.3 17.6,35.6 17.6,35.9 L17.6,39.7 C17.6,40 17.9,40.3 18.2,40.3 L21.9,40.3 C22.2,40.3 22.5,40 22.5,39.7 L22.5,35.9 C22.5,35.6 22.3,35.3 22,35.3 Z M21.4,39.1 L18.8,39.1 L18.8,36.5 L21.4,36.5 L21.4,39.1 Z" id="Shape" fill="#504B46"></path>
            <path d="M34.4,7.6 C34.2,7.6 34,7.7 33.8,7.8 C33.5,7.9 33.2,8.1 32.9,8.1 C32.6,8.1 32.3,8 32,7.8 C31.8,7.7 31.6,7.6 31.4,7.6 C30.6,7.6 29.6,8.5 29.6,9.1 C29.6,9.9 30.7,13.7 31.3,14.2 C31.3,14.1 31.4,13.8 31.4,13.6 C31.5,12.7 31.7,11.3 32.9,11.3 C34.1,11.3 34.3,12.7 34.4,13.6 C34.4,13.8 34.5,14 34.5,14.2 C35.1,13.7 36.2,9.9 36.2,9.1 C36.2,8.5 35.2,7.6 34.4,7.6 Z" id="Shape" fill="#FFFFFF"></path>
            <g id="Group" transform="translate(28.000000, 6.000000)" fill="#504B46">
                <path d="M6.4,0.9 C6.1,0.9 5.8,1 5.5,1.2 C5.3,1.3 5.1,1.4 4.9,1.4 C4.7,1.4 4.5,1.3 4.3,1.2 C4,1.1 3.7,0.9 3.4,0.9 C2.3,0.9 0.9,2.1 0.9,3.1 C0.9,3.5 2,8.9 3.4,8.9 C3.9,8.9 4,8.3 4,7.7 C4.1,6.7 4.3,6 4.9,6 C5.5,6 5.6,6.8 5.8,7.7 C5.9,8.3 6,8.9 6.4,8.9 C7.8,8.9 8.9,3.5 8.9,3.1 C8.9,2.1 7.5,0.9 6.4,0.9 Z M6.5,8.2 C6.5,8.1 6.4,7.8 6.4,7.6 C6.3,6.7 6.1,5.3 4.9,5.3 C3.7,5.3 3.5,6.7 3.4,7.6 C3.4,7.8 3.3,8 3.3,8.2 C2.7,7.7 1.6,3.9 1.6,3.1 C1.6,2.5 2.6,1.6 3.4,1.6 C3.6,1.6 3.8,1.7 4,1.8 C4.3,1.9 4.6,2.1 4.9,2.1 C5.2,2.1 5.5,2 5.8,1.8 C6,1.7 6.2,1.6 6.4,1.6 C7.2,1.6 8.2,2.5 8.2,3.1 C8.2,3.9 7.2,7.6 6.5,8.2 Z" id="Shape"></path>
                <path d="M6.4,9.1 C5.8,9.1 5.7,8.4 5.6,7.7 L5.5,7.4 C5.3,6.6 5.2,6.1 4.9,6.1 C4.5,6.1 4.3,6.6 4.2,7.6 C4.2,8.5 3.9,9 3.4,9 C1.8,9 0.7,3.3 0.7,3 C0.7,1.9 2.2,0.6 3.4,0.6 C3.6,0.6 3.9,0.7 4.1,0.8 C4.2,0.8 4.3,0.9 4.4,0.9 C4.6,1 4.8,1.1 4.9,1.1 C5,1.1 5.2,1 5.4,0.9 C5.7,0.7 6.1,0.6 6.4,0.6 C7.6,0.6 9.1,1.9 9.1,3 C9.1,3.4 8.1,9.1 6.4,9.1 Z M4.9,5.8 C5.6,5.8 5.8,6.6 5.9,7.4 L6,7.7 C6.1,8.2 6.2,8.7 6.4,8.7 C7.6,8.7 8.7,3.5 8.7,3.1 C8.7,2.2 7.4,1.1 6.4,1.1 C6.1,1.1 5.9,1.2 5.6,1.4 C5.4,1.5 5.1,1.6 4.9,1.6 C4.7,1.6 4.4,1.5 4.2,1.4 C4.1,1.4 4,1.3 3.9,1.3 C3.7,1.2 3.5,1.1 3.4,1.1 C2.4,1.1 1.1,2.2 1.1,3.1 C1.1,3.5 2.2,8.7 3.4,8.7 C3.5,8.7 3.8,8.7 3.8,7.7 C3.9,6.7 4.1,5.8 4.9,5.8 Z M6.3,8.6 L6.3,8.2 C6.3,8.2 6.3,8.1 6.3,8 C6.3,7.9 6.2,7.7 6.2,7.6 C6.1,6.5 5.8,5.5 4.9,5.5 C4,5.5 3.7,6.5 3.6,7.6 C3.6,7.7 3.6,7.8 3.5,7.9 C3.5,8 3.5,8.1 3.5,8.2 L3.5,8.6 L3.2,8.3 C2.5,7.7 1.4,3.9 1.4,3 C1.4,2.3 2.5,1.3 3.4,1.3 C3.6,1.3 3.9,1.4 4.1,1.5 C4.2,1.5 4.3,1.6 4.4,1.6 C4.6,1.7 4.8,1.8 4.9,1.8 C5.2,1.8 5.4,1.7 5.7,1.5 C5.9,1.4 6.2,1.3 6.4,1.3 C7.3,1.3 8.4,2.3 8.4,3 C8.4,3.8 7.4,7.6 6.6,8.3 L6.3,8.6 Z M4.9,5.1 C6.3,5.1 6.5,6.8 6.6,7.6 C6.6,7.6 6.6,7.7 6.6,7.7 C7.2,6.6 8,3.8 8,3.1 C8,2.6 7.1,1.8 6.4,1.8 C6.2,1.8 6.1,1.9 5.9,2 C5.6,2.2 5.2,2.3 4.9,2.3 C4.7,2.3 4.4,2.2 4.2,2.1 C4.1,2.1 4,2 3.9,2 C3.7,1.9 3.5,1.8 3.4,1.8 C2.7,1.8 1.8,2.6 1.8,3.1 C1.8,3.8 2.6,6.7 3.2,7.7 C3.2,7.7 3.2,7.6 3.2,7.6 C3.3,6.8 3.5,5.1 4.9,5.1 Z" id="Shape"></path>
            </g>
            <rect id="Rectangle-path" fill="#FED75C" x="44.4" y="29.5" width="2.6" height="2.6"></rect>
            <path d="M47.6,28.3 L43.8,28.3 C43.5,28.3 43.2,28.6 43.2,28.9 L43.2,32.7 C43.2,33 43.5,33.3 43.8,33.3 L47.6,33.3 C47.9,33.3 48.2,33 48.2,32.7 L48.2,28.9 C48.2,28.6 47.9,28.3 47.6,28.3 Z M47.1,32.1 L44.5,32.1 L44.5,29.5 L47.1,29.5 L47.1,32.1 Z" id="Shape" fill="#504B46"></path>
        </g>
    </g>
</svg>