<svg width="58" height="51" viewBox="0 0 58 51" xmlns="http://www.w3.org/2000/svg">
    <title>
        Untitled 12
    </title>
    <g fill="none" fill-rule="evenodd">
        <g stroke="#504B46" stroke-linecap="round">
            <path d="M2.8 44.5h-2"/>
            <path d="M56.8 44.5h-2"/>
            <path d="M4.8 44.5h48"/>
        </g>
        <path d="M50.2 37c0-5.5-4.5-10-10-10h-6c-5.5 0-10 4.5-10 10v7.5h26V37z" fill="#EDF2F4" fill-rule="nonzero"/>
        <path d="M50.2 37c0-5.5-4.5-10-10-10h-6c-5.5 0-10 4.5-10 10v4c0-5.5 4.5-10 10-10h6c5.5 0 10 4.5 10 10v-4z" fill="#FFF" fill-rule="nonzero"/>
        <path d="M50.2 37c0-5.5-4.5-10-10-10h-6c-5.5 0-10 4.5-10 10v7.5h26V37z" stroke="#504B46" stroke-linecap="round" stroke-linejoin="round"/>
        <g fill="#EDF2F4" fill-rule="nonzero" stroke="#504B46" stroke-linecap="round" stroke-linejoin="round">
            <path d="M45.2 44.5V41"/>
            <path d="M45.2 39.5V39"/>
        </g>
        <path d="M40.2 25l1 4-4 15.5h2l3.5-7.5-1-2.5 3.5-1.5-1.3-4.4c-.4-1.6-2.1-3-3.7-3.6z" stroke="#504B46" fill="#EDF2F4" fill-rule="nonzero" stroke-linecap="round" stroke-linejoin="round"/>
        <path d="M40.8 27h-7l-.5 2 4 15.5 4-15.5-.5-2z" stroke="#504B46" fill="#26CBED" fill-rule="nonzero" stroke-linecap="round" stroke-linejoin="round"/>
        <path fill="#FDDFD1" fill-rule="nonzero" d="M40.2 27l-3 6.5-3-6.5v-4.5h6z"/>
        <path d="M34.2 25.9c.1 0 .1.1.2.1 1.7.7 3.9.7 5.5 0 .1 0 .2-.1.2-.1v-3.4h-6v3.4h.1z" fill="#FCCAB4" fill-rule="nonzero"/>
        <g fill="#EDF2F4" fill-rule="nonzero" stroke="#504B46" stroke-linecap="round" stroke-linejoin="round">
            <path d="M29.2 44.5V41"/>
            <path d="M29.2 39.5V39"/>
        </g>
        <path d="M34.2 25l-1 4 4 15.5h-2L31.7 37l1-2.5-3.5-1.5 1.3-4.4c.5-1.6 2.2-3 3.7-3.6z" stroke="#504B46" fill="#EDF2F4" fill-rule="nonzero" stroke-linecap="round" stroke-linejoin="round"/>
        <path stroke="#504B46" stroke-linecap="round" stroke-linejoin="round" d="M40.2 27l-3 6.5-3-6.5v-4.5h6z"/>
        <g transform="translate(24 1)">
            <path d="M26.2 15.7c0-1.3-.9-2.4-2.1-2.8.4-.4.7-.9.7-1.6 0-1.2-1-2.2-2.2-2.2-.4-4.8-4.4-8.7-9.4-8.7-4.9 0-9 3.8-9.4 8.7-1.2 0-2.2 1-2.2 2.2 0 .6.3 1.2.7 1.6-1.2.3-2.1 1.4-2.1 2.8s1 2.6 2.4 2.8c-.1.2-.1.5-.1.8 0 2 1.6 3.6 3.6 3.6s3.6-1.6 3.6-3.6c0-.2 0-.5-.1-.7H17c0 .2-.1.5-.1.7 0 2 1.6 3.6 3.6 3.6s3.6-1.6 3.6-3.6c0-.3 0-.6-.1-.8 1.3-.4 2.2-1.5 2.2-2.8z" fill="#FED75C" fill-rule="nonzero"/>
            <path d="M13.2 4c3.7 0 7 1.3 9 3.2C21 3.3 17.5.5 13.2.5c-4.2 0-7.8 2.8-9 6.7C6.3 5.3 9.5 4 13.2 4z" fill="#FFEBB0" fill-rule="nonzero"/>
            <path d="M26.2 15.7c0-1.3-.9-2.4-2.1-2.8.4-.4.7-.9.7-1.6 0-1.2-1-2.2-2.2-2.2-.4-4.8-4.4-8.7-9.4-8.7-4.9 0-9 3.8-9.4 8.7-1.2 0-2.2 1-2.2 2.2 0 .6.3 1.2.7 1.6-1.2.3-2.1 1.4-2.1 2.8s1 2.6 2.4 2.8c-.1.2-.1.5-.1.8 0 2 1.6 3.6 3.6 3.6s3.6-1.6 3.6-3.6c0-.2 0-.5-.1-.7H17c0 .2-.1.5-.1.7 0 2 1.6 3.6 3.6 3.6s3.6-1.6 3.6-3.6c0-.3 0-.6-.1-.8 1.3-.4 2.2-1.5 2.2-2.8z" stroke="#504B46" stroke-linejoin="round"/>
            <path d="M17.7 12.2c-3.4 0-6.5-1.7-8.3-4.3 0 2.3-1.9 4.2-4.2 4.3v3.3c0 4.4 3.6 8 8 8s8-3.6 8-8v-3.8c-1 .3-2.5.5-3.5.5z" stroke="#504B46" fill="#FDDFD1" fill-rule="nonzero" stroke-linecap="round" stroke-linejoin="round"/>
            <g stroke="#504B46" stroke-linecap="round" stroke-linejoin="round">
                <path d="M11.8 14.5c-.3-.6-.9-1-1.5-1s-1.2.4-1.5 1"/>
                <path d="M17.8 14.5c-.3-.6-.9-1-1.5-1s-1.2.4-1.5 1"/>
            </g>
            <path d="M10.2 19c.6.6 1.7 1 3 1s2.4-.4 3-1" stroke="#504B46" stroke-linecap="round" stroke-linejoin="round"/>
            <circle fill="#FCCAB4" fill-rule="nonzero" cx="8.2" cy="17.5" r="1"/>
            <circle fill="#FCCAB4" fill-rule="nonzero" cx="18.2" cy="17.5" r="1"/>
        </g>
        <g>
            <path d="M27.2 48.5c0 1.1-.9 2-2 2h-20c-1.1 0-2-.9-2-2v-14c0-1.1.9-2 2-2h20c1.1 0 2 .9 2 2v14z" fill="#EDF2F4" fill-rule="nonzero"/>
            <path d="M15.5 32.5H5.2c-1.1 0-2 .9-2 2v10.3l12.3-12.3z" fill="#FFF" fill-rule="nonzero"/>
            <path d="M27.2 48.5c0 1.1-.9 2-2 2h-20c-1.1 0-2-.9-2-2v-14c0-1.1.9-2 2-2h20c1.1 0 2 .9 2 2v14z" stroke="#504B46" stroke-linecap="round" stroke-linejoin="round"/>
            <g fill="#EDF2F4" fill-rule="nonzero" stroke="#504B46" stroke-linecap="round" stroke-linejoin="round">
                <path d="M11.8 32.5l1.1-2.5h4.6l1.1 2.5h2.1c0-.1 0-.3-.1-.4l-1.5-3.5c-.2-.4-.5-.6-.9-.6h-6c-.4 0-.8.2-.9.6l-1.5 3.5c-.1.1-.1.3-.1.4h2.1z"/>
                <path d="M10.8 30h9"/>
            </g>
        </g>
        <path d="M16.5 38.7c-.2 0-.4.1-.6.2-.3.1-.6.3-.9.3-.3 0-.6-.1-.9-.3-.2-.1-.4-.2-.6-.2-.8 0-1.8.9-1.8 1.5 0 .8 1.1 4.6 1.7 5.1 0-.1.1-.4.1-.6.1-.9.3-2.3 1.5-2.3s1.4 1.4 1.5 2.3c0 .2.1.4.1.6.6-.5 1.7-4.3 1.7-5.1 0-.6-1-1.5-1.8-1.5z" fill="#FFF" fill-rule="nonzero"/>
        <path d="M16.5 38c-.3 0-.6.1-.9.3-.2.1-.4.2-.6.2-.2 0-.4-.1-.6-.2-.3-.1-.6-.3-.9-.3-1.1 0-2.5 1.2-2.5 2.2 0 .4 1.1 5.8 2.5 5.8.5 0 .6-.6.6-1.2.1-1 .3-1.7.9-1.7.6 0 .7.8.9 1.7.1.6.2 1.2.6 1.2 1.4 0 2.5-5.4 2.5-5.8 0-1-1.4-2.2-2.5-2.2zm.1 7.3c0-.1-.1-.4-.1-.6-.1-.9-.3-2.3-1.5-2.3s-1.4 1.4-1.5 2.3c0 .2-.1.4-.1.6-.6-.5-1.7-4.3-1.7-5.1 0-.6 1-1.5 1.8-1.5.2 0 .4.1.6.2.3.1.6.3.9.3.3 0 .6-.1.9-.3.2-.1.4-.2.6-.2.8 0 1.8.9 1.8 1.5 0 .8-1 4.5-1.7 5.1z" fill="#504B46" fill-rule="nonzero"/>
    </g>
</svg>
