<svg width="59" height="46" viewBox="0 0 59 46" xmlns="http://www.w3.org/2000/svg">
    <title>
        Untitled 13
    </title>
    <g fill="none" fill-rule="evenodd">
        <path d="M45.3 33.3c0 .3-.2.5-.5.5-3 0-5.4 2.4-5.4 5.4 0 3 2.4 5.4 5.4 5.4 3 0 5.4-2.4 5.4-5.4V17.5c-1.3.9-2.7 1.4-4.2 1.4-1.8 0-3.6-.7-4.9-2l-9.5 8.5c-.1.1-.2.1-.3.1-.1 0-.3-.1-.4-.2-.2-.2-.2-.5 0-.7l9.5-8.5c-2.3-2.9-1.9-7.1.9-9.6.9-.8 2.5-1.4 4.2-1.8.1-.1.2-.2.4-.2h.1c1.4-.3 2.8-.5 4.2-.7V1.5H26.3v14.2c0 .3-.2.5-.5.5s-.5-.2-.5-.5V1.5h-4.1v31.3h23.7c.2 0 .4.2.4.5z" fill="#EDF2F4" fill-rule="nonzero"/>
        <path fill="#FFF" fill-rule="nonzero" d="M21 43V1h29z"/>
        <path d="M45.3 5.7c-1.5.4-2.7.9-3.4 1.5-2.4 2.1-2.7 5.7-.8 8.2l3.8-3.4.4-6.3z" fill="#74D15E" fill-rule="nonzero"/>
        <path d="M46.3 5.5l-.3 5.6 7.3-6.5c-1.7.1-4.5.3-7 .9z" fill="#74D15E" fill-rule="nonzero"/>
        <path d="M41.8 16.2c2.3 2.2 5.9 2.3 8.3.1.7-.6 1.3-1.8 1.8-3.2l-6.3-.4-3.8 3.5z" fill="#74D15E" fill-rule="nonzero"/>
        <path d="M52.2 12.1c.8-2.4 1.4-5.2 1.7-6.8l-7.3 6.5 5.6.3z" fill="#74D15E" fill-rule="nonzero"/>
        <path d="M45.3 5.7c-1.5.4-2.7.9-3.4 1.5-2.4 2.1-2.7 5.7-.8 8.2l3.8-3.4.4-6.3z"/>
        <path d="M41.8 16.2c2.3 2.2 5.9 2.3 8.3.1.7-.6 1.3-1.8 1.8-3.2l-6.3-.4-3.8 3.5z"/>
        <path d="M47 44c1.9-.8 3.2-2.7 3.2-4.9V17.4c-1.3.9-2.7 1.4-4.2 1.4-1.8 0-3.6-.7-4.9-2l-9.5 8.5c-.1.1-.2.1-.3.1-.1 0-.3-.1-.4-.2-.2-.2-.2-.5 0-.7l9.5-8.5c-2.3-2.9-1.9-7.1.9-9.6.9-.8 2.5-1.4 4.2-1.8.1-.1.2-.2.4-.2h.1c1.4-.3 2.8-.5 4.2-.7V1.4h-29V30H47v14z"/>
        <path d="M46.3 5.5l-.3 5.6 7.3-6.5c-1.7.1-4.5.3-7 .9z"/>
        <path d="M52.2 12.1c.8-2.4 1.4-5.2 1.7-6.8l-7.3 6.5 5.6.3z"/>
        <path d="M40 43.3c-.3-.3-.5-.6-.7-1-.5-.9-.8-2-.8-3.2 0-1.2.3-2.2.8-3.2.2-.4.5-.7.7-1 .4-.5.9-.9 1.4-1.2H19.9c-1.3 0-2.4.5-3.3 1.2-.4.3-.7.6-1 1-.7.9-1.1 2-1.1 3.2 0 1.2.4 2.3 1.1 3.2.3.4.6.7 1 1 .9.7 2.1 1.2 3.3 1.2h21.5c-.5-.3-1-.7-1.4-1.2z" fill="#26CBED" fill-rule="nonzero"/>
        <path d="M27 11h10.5" stroke="#504B46" stroke-linecap="round" stroke-linejoin="round"/>
        <path d="M27 15h10.5" stroke="#504B46" stroke-linecap="round" stroke-linejoin="round"/>
        <path d="M27 19h10.5" stroke="#504B46" stroke-linecap="round" stroke-linejoin="round"/>
        <path d="M27 23h10.5" stroke="#504B46" stroke-linecap="round" stroke-linejoin="round"/>
        <path d="M27 29h17.5" stroke="#504B46" stroke-linecap="round" stroke-linejoin="round"/>
        <path d="M15.7 37.6c.3-.4.7-.8 1.1-1.1 1-.8 2.3-1.3 3.7-1.3L41 35c.2-.3.8-1.7 1-2 .4-.5 1.4.4 2 0H20.4c-1.4 0-2.7.5-3.7 1.3-.4.3-.8.7-1.1 1.1-.7 1-1.2 2.2-1.2 3.5 0 .4 0 .7.1 1.1.3-.9.6-1.7 1.2-2.4z" fill="#78E9F9" fill-rule="nonzero"/>
        <path d="M58.4.7c-.2-.2-.5-.2-.7 0l-3.1 2.8c-.5 0-1.7.1-3.4.3V1c0-.3-.2-.5-.5-.5H20.6c-.3 0-.5.2-.5.5v31.8h-.2c-3.5 0-6.4 2.9-6.4 6.4 0 3.5 2.9 6.4 6.4 6.4h24.9c.8 0 1.5-.1 2.2-.4 2.4-.9 4.2-3.2 4.2-6V16.6c.7-.8 1.3-2.1 1.8-3.5.1-.1.2-.2.2-.4v-.2c1.2-3.4 1.9-7.4 2-8.3l3.2-2.8c.1-.2.2-.5 0-.7zm-5.1 3.8L46 11l.3-5.6c2.5-.5 5.3-.7 7-.9zm-33.4 40c-1.3 0-2.4-.5-3.3-1.2-.4-.3-.7-.6-1-1-.7-.9-1.1-2-1.1-3.2 0-1.2.4-2.3 1.1-3.2.3-.4.6-.7 1-1 .9-.7 2.1-1.2 3.3-1.2h21.5c-.5.3-1 .7-1.4 1.2-.3.3-.5.6-.7 1-.5.9-.8 2-.8 3.2 0 1.2.3 2.2.8 3.2.2.4.5.7.7 1 .4.5.9.9 1.4 1.2H19.9zm30.3-5.4c0 2.2-1.3 4-3.2 4.9-.7.3-1.4.5-2.2.5-3 0-5.4-2.4-5.4-5.4 0-3 2.4-5.4 5.4-5.4.3 0 .5-.2.5-.5s-.2-.5-.5-.5H21.1V1.5h29v2.3c-1.3.2-2.8.4-4.2.7h-.1c-.2 0-.3.1-.4.2-1.8.4-3.4 1-4.2 1.8-2.8 2.5-3.1 6.7-.9 9.6l-9.5 8.5c-.2.2-.2.5 0 .7.1.1.2.2.4.2.1 0 .2 0 .3-.1l9.5-8.5c1.4 1.3 3.1 2 4.9 2 1.5 0 2.9-.5 4.2-1.4v21.6h.1zM45.3 5.7l-.4 6.3-3.8 3.4c-1.9-2.5-1.6-6.1.8-8.2.7-.6 1.9-1.1 3.4-1.5zM50 16.3c-2.4 2.1-6 2-8.3-.1l3.8-3.4 6.3.4c-.5 1.3-1.1 2.5-1.8 3.1zm2.2-4.2l-5.6-.3 7.3-6.5c-.2 1.6-.8 4.4-1.7 6.8z" fill="#504B46" fill-rule="nonzero"/>
        <circle stroke="#504B46" fill="#FED75C" fill-rule="nonzero" stroke-linecap="round" stroke-linejoin="round" cx="19" cy="22" r="5.5"/>
        <circle stroke="#504B46" fill="#FED75C" fill-rule="nonzero" stroke-linecap="round" stroke-linejoin="round" cx="12" cy="9" r="3.5"/>
        <path d="M6.1 17l-.7.8c-.2.2-.5.2-.7 0L4 17c-.3-.4-.8-.5-1.2-.5-.4 0-.9.2-1.2.5-.7.7-.7 1.9 0 2.6l3.5 3.7c1.2-1.2 2.3-2.5 3.5-3.7.7-.7.7-1.9 0-2.6-.7-.7-1.8-.7-2.5 0z" fill="#FED75C" fill-rule="nonzero"/>
        <path d="M5.4 16.3l-.4.4-.4-.4c-.5-.6-1.2-.8-1.9-.8s-1.4.3-1.9.8c-1.1 1.1-1 2.9 0 4l3.9 4.1c.2.2.5.2.7 0C6.7 23 8 21.7 9.3 20.3c1.1-1.1 1.1-2.9 0-4s-2.9-1.1-3.9 0zm3.1 3.3c-1.2 1.2-2.3 2.5-3.5 3.7l-3.5-3.7c-.7-.7-.7-1.9 0-2.6.3-.4.8-.5 1.2-.5.4 0 .9.2 1.2.5l.7.8c.2.2.5.2.7 0L6 17c.7-.7 1.8-.7 2.4 0 .6.7.8 1.9.1 2.6z" fill="#504B46" fill-rule="nonzero"/>
    </g>
</svg>
