<?xml version="1.0" encoding="utf-8"?>
<!-- Generator: Adobe Illustrator 21.0.0, SVG Export Plug-In . SVG Version: 6.00 Build 0)  -->
<svg version="1.1" id="Layer_1" xmlns="http://www.w3.org/2000/svg" xmlns:xlink="http://www.w3.org/1999/xlink" x="0px" y="0px"
	 viewBox="0 0 100 125" style="enable-background:new 0 0 100 125;" xml:space="preserve">
<style type="text/css">
	.st0{fill:none;stroke:#000000;stroke-width:8;stroke-linecap:round;stroke-miterlimit:10;}
	.st1{stroke:#000000;stroke-width:8;stroke-linecap:round;stroke-miterlimit:10;}
</style>
<title>Замок</title>
<path class="st0" d="M23.4,41.4h53.1c1.4,0,2.6,1.1,2.6,2.6v41.3c0,1.4-1.1,2.6-2.6,2.6H23.4c-1.4,0-2.6-1.1-2.6-2.6V44
	C20.9,42.6,22,41.4,23.4,41.4z"/>
<circle class="st1" cx="50" cy="64.7" r="2.7"/>
<line class="st0" x1="50" y1="64.7" x2="50" y2="74.5"/>
<path class="st0" d="M30.1,30C29.9,19,38.6,9.9,49.6,9.7c11-0.2,20.1,8.5,20.3,19.4c0,0.3,0,0.6,0,0.9"/>
<line class="st0" x1="30.1" y1="30" x2="30.1" y2="41.4"/>
<line class="st0" x1="69.9" y1="30" x2="69.9" y2="41.4"/>
</svg>
