<svg width="1404" height="474" viewBox="0 0 1404 474" xmlns="http://www.w3.org/2000/svg">
    <title>
        Untitled copy
    </title>
    <g fill-rule="nonzero" fill="none">
        <g fill="#14C1E5">
            <path d="M575.4 151.8h-59.9c-12.9 0-19.4-8-19.4-23.9V104h136.6c14.9 0 22.4 8.1 22.4 24.2 0 13.5-3.9 24.7-11.8 33.6L577.1 260h77.1v24c0 16-6.4 24-19.1 24H495.2v-24.5c0-13.7 3.9-24.9 11.8-33.6l68.4-98.1z"/>
            <path d="M836.2 252.7c0 19.2-8.2 33.6-24.5 42.9-16.4 9.3-35 14-55.9 14s-39.5-4.7-55.9-14-24.5-23.6-24.5-42.9V104h29.9c20 0 29.9 8.8 29.9 26.3V244c0 11.5 6.9 17.2 20.5 17.2 13.7 0 20.5-5.8 20.5-17.2V104.1h29.9c20 0 29.9 8.8 29.9 26.3l.2 122.3z"/>
            <path d="M1018 247.6c0 40.3-21.4 60.5-64.1 60.5h-95.2v-204h90.7c40.7 0 61.1 16.2 61.1 48.6 0 21.4-8.1 36.1-24.5 44.4 21.4 10.2 32 27.1 32 50.5zm-64-82.8c0-13.1-6.6-19.7-19.7-19.7h-15.7v39.3h16.3c12.8 0 19.1-6.5 19.1-19.6zm4.3 79.4c0-14.7-7.4-22.1-22.1-22.1h-17.5v44.1h18.1c14.3.1 21.5-7.3 21.5-22z"/>
            <path d="M1116.2 151.8h-59.9c-12.9 0-19.4-8-19.4-23.9V104h136.6c14.9 0 22.4 8.1 22.4 24.2 0 13.5-3.9 24.7-11.8 33.6L1118 260h77.1v24c0 16-6.4 24-19.1 24h-139.9v-24.5c0-13.7 3.9-24.9 11.8-33.6l68.3-98.1z"/>
            <path d="M1277.9 272.1l-5.8 15.4c-5.2 13.7-13.6 20.5-25.3 20.5-11.8 0-20.2-3.6-25.2-10.8-5.1-7.2-7.6-13.7-7.6-19.4 0-5.8 1.3-11.4 3.8-16.9l71.5-156.8h19.4c12.9 0 22.4 6.9 28.5 20.5l62.5 136.3c2.6 5.6 3.9 11.3 3.9 17.1 0 5.8-2.4 12.2-7.4 19.4-5 7.2-13.4 10.7-25.3 10.7-12 0-20.5-6.9-25.6-20.5l-5.8-15.4-61.6-.1zm43.9-48.4l-13-35.3-13 35.3h26z"/>
        </g>
        <path d="M334.2 379.8H84.1c-25.7 0-46.7-21-46.7-46.7V83c0-25.7 21-46.7 46.7-46.7h250.1c25.7 0 46.7 21 46.7 46.7v250c.1 25.7-20.9 46.8-46.7 46.8z" fill="#0C97C1"/>
        <path d="M289.9 225.8h-2.7c-26.3.3-51.5 6.6-75.6 18.4-24.1-11.9-49.3-18.1-75.6-18.4h-2.7c-36.7 0-69.6 11.3-95.9 24.7v136.4H381V248.2c-25.4-12.4-56.6-22.4-91.1-22.4z" fill="#FF016E"/>
        <g fill="#FFF">
            <path d="M54.6 69.5c-7.9 7.9-12.9 18-14.5 28.8 4.6 6.1 12 10.1 20.2 10.1h28.6c13.9 0 25.2-11.4 25.2-25.2V54.5H90.3c-13.4.1-26.1 5.4-35.7 15z"/>
            <path d="M213.5 83.2c0 13.9 11.4 25.2 25.2 25.2h28.6c13.9 0 25.2-11.4 25.2-25.2V54.5h-79v28.7z"/>
            <path d="M327.9 108.4h28.6c8.3 0 15.6-4 20.2-10.1-1.5-10.8-6.5-20.9-14.5-28.8-9.6-9.6-22.4-15-35.9-15h-23.8v28.7c.2 13.9 11.5 25.2 25.4 25.2z"/>
            <path d="M372.1 320c-4.3-3.4-9.7-5.4-15.7-5.4h-28.6c-13.9 0-25.2 11.4-25.2 25.2V377.1h23.8c13.5 0 26.2-5.3 35.9-15 9.3-9.3 14.5-21.5 14.9-34.5v-2.3c-1.4-1.9-3.1-3.7-5.1-5.3z"/>
            <path d="M267.3 314.6h-28.6c-13.9 0-25 11.2-25.2 25V377.2h79v-37.3c0-14-11.3-25.3-25.2-25.3z"/>
            <path d="M178 314.6h-28.6c-13.9 0-25.2 11.4-25.2 25.2v37.3h79v-37.3-.3c0-13.8-11.3-24.9-25.2-24.9z"/>
            <path d="M88.9 314.6H60.3c-8.5 0-16.1 4.3-20.7 10.8v.9c0 1.1 0 2.2.1 3.4.8 12.2 6 23.7 14.8 32.4 8.9 8.9 20.4 14 32.6 14.8 1 .1 2.2.1 3.2.1h23.8v-37.2c0-13.9-11.3-25.2-25.2-25.2z"/>
        </g>
        <g fill="#DBDBDB">
            <path d="M54.6 54.5c-9.6 9.6-15 22.4-15 35.9v7.4c.2.3.3.4.5.7 1.5-10.8 6.5-20.9 14.5-28.8 9.6-9.6 22.4-15 35.9-15h23.8V39.6H90.5c-13.6-.1-26.3 5.2-35.9 14.9z"/>
            <path d="M213.5 39.5h79.1v15.1h-79.1z"/>
            <path d="M362.2 54.5c-9.6-9.6-22.4-15-35.9-15h-23.8v15.1h23.8c13.5 0 26.2 5.3 35.9 15 7.9 7.9 12.9 18 14.5 28.8.2-.3.3-.4.5-.7v-7.3c0-13.6-5.4-26.3-15-35.9z"/>
            <path d="M356.5 304.6h-28.6c-13.9 0-25.2 11.4-25.2 25.2v10c0-13.9 11.4-25.2 25.2-25.2h28.6c5.9 0 11.4 2.1 15.7 5.4 1.9 1.5 3.6 3.4 5.1 5.3v-9.9c-4.7-6.6-12.3-10.8-20.8-10.8z"/>
            <path d="M267.3 304.6h-28.6c-13.9 0-25.2 11.4-25.2 25.2v9.6c.2-13.8 11.4-25 25.2-25h28.6c13.9 0 25.2 11.4 25.2 25.2v-10c0-13.7-11.3-25-25.2-25z"/>
            <path d="M178 304.6h-28.6c-13.9 0-25.2 11.4-25.2 25.2v10c0-13.9 11.4-25.2 25.2-25.2H178c13.9 0 25 11.2 25.2 25V330c.1-14.1-11.2-25.4-25.2-25.4z"/>
            <path d="M88.9 304.6H60.3c-8.5 0-16.1 4.3-20.7 10.8v10c4.6-6.5 12.1-10.8 20.7-10.8h28.6c13.9 0 25.2 11.4 25.2 25.2v-10c0-13.9-11.3-25.2-25.2-25.2z"/>
        </g>
        <path d="M349 246.4c-48.9-15.6-102.9-4.9-106.3 5.2-3.4 10 32.5-8.6 83 2.3 24.9 5.4 42.5 13.9 55.3 23.1v-16.6c-9.8-5.5-20.6-10.3-32-14z" fill="#FFF" opacity=".44"/>
        <path d="M356.5 294.5h-28.6c-12.8 0-24.1 6.9-30.3 17.1-6.2-10.2-17.5-17.1-30.3-17.1h-28.6c-12.8 0-24.1 6.9-30.3 17.1-6.2-10.2-17.5-17.1-30.3-17.1h-28.6c-12.8 0-24.1 6.9-30.3 17.1-6.2-10.2-17.5-17.1-30.3-17.1H60.2c-7.7 0-14.9 2.5-20.7 6.7V315.3c4.6-6.5 12.1-10.8 20.7-10.8h28.6c13.9 0 25.2 11.4 25.2 25.2V377h10.2v-47.3c0-13.9 11.4-25.2 25.2-25.2H178c13.9 0 25.2 11.4 25.2 25.2V376.9h10.2v-37.3-9.9c0-13.9 11.4-25.2 25.2-25.2h28.6c13.9 0 25.2 11.4 25.2 25.2V377h10.2v-47.3c0-13.9 11.4-25.2 25.2-25.2h28.6c8.5 0 16.1 4.3 20.7 10.8v-14.1c-5.8-4.2-12.9-6.7-20.6-6.7z" fill="#DB036A"/>
        <path d="M326.4 0H90.3C40.5 0 0 40.5 0 90.3v236c0 49.8 40.5 90.3 90.3 90.3h64.9c.3.3.5.7.8 1l44.7 52c1.9 2.2 4.7 3.5 7.7 3.5 2.9 0 5.8-1.3 7.7-3.5l44.6-51.9c.3-.3.6-.7.9-1.1h64.9c49.8 0 90.3-40.5 90.3-90.3v-236C416.7 40.5 376.2 0 326.4 0zm-23.7 54.6V39.5h23.8c13.5 0 26.2 5.3 35.9 15 9.6 9.6 15 22.4 15 35.9v7.3c-.2.3-.3.4-.5.7-4.6 6.1-12 10.1-20.2 10.1h-28.6c-13.9 0-25.2-11.4-25.2-25.2l-.2-28.7zm-89.2 0V39.5h79.1v43.8c0 13.9-11.4 25.2-25.2 25.2h-28.6c-13.9 0-25.2-11.4-25.2-25.2l-.1-28.7zM39.6 90.3c0-13.5 5.3-26.2 15-35.9 9.6-9.6 22.4-15 35.9-15h23.8v43.8c0 13.9-11.4 25.2-25.2 25.2H60.4c-8.3 0-15.6-4-20.2-10.1-.2-.3-.3-.4-.5-.7v-7.3h-.1zm322.6 271.8c-9.6 9.6-22.4 15-35.9 15 0 0-238.1 0-239.2-.1-12.3-.8-23.8-5.9-32.6-14.8-8.9-8.9-14-20.2-14.8-32.4-.1-1.1-.1-110.2-.1-110.2V112c5.9 4.2 13 6.7 20.7 6.7h28.6c19.5 0 35.4-15.8 35.4-35.4V39.5h79.1v43.7c0 19.5 15.8 35.4 35.4 35.4h28.6c12.8 0 24.1-6.9 30.3-17.1 6.2 10.2 17.5 17.1 30.3 17.1h28.6c7.7 0 14.9-2.5 20.7-6.7v215.7c-.5 13-5.7 25.2-15.1 34.5z" fill="#14C1E5"/>
        <path d="M155 254.8c-49.7-8.3-67.5 17.5-74.6 10.3-11.4-11.4 26.8-26.2 62.4-22.9 35.6 3.3 71.2 25 75.1 34.8 4 9.8-26.3-16.1-62.9-22.2z" fill="#FFF" opacity=".44"/>
    </g>
</svg>
