<?xml version="1.0" encoding="UTF-8"?><!DOCTYPE svg PUBLIC "-//W3C//DTD SVG 1.1//EN" "http://www.w3.org/Graphics/SVG/1.1/DTD/svg11.dtd"><svg xmlns="http://www.w3.org/2000/svg"><symbol id="icon-arrow-l" viewBox="0 0 192 320">
    <path d="M192 300.6L171.3 320 0 160 171.3 0 192 19.3 41.5 160z"/>
</symbol><symbol id="icon-arrow-r" viewBox="0 0 192 320">
    <path d="M0 19.4L20.7 0 192 160 20.7 320 0 300.7 150.5 160z"/>
</symbol><symbol id="icon-arrow-sm" viewBox="0 0 16 19">
    <title>
        Untitled 4
    </title>
    <path d="M0 0l16 9.4L0 19c.6-3.2 1-6.4 1-9.6C1 6.3.6 3.1 0 0z" fill-rule="nonzero"/>
</symbol><symbol id="icon-arrow" viewBox="0 0 325 198.5">
    <path d="M302.6 2.5L322 23.2 162 194.5 2 23.2 21.3 2.5 162 153z"/>
</symbol><symbol id="icon-facebook" viewBox="0 0 10 19">
    <title>
        facebook
    </title>
    <path d="M9.766.157v2.946H8.014c-.64 0-1.071.134-1.295.402-.223.268-.335.67-.335 1.205v2.11h3.27l-.435 3.303H6.384v8.471H2.97v-8.47H.123V6.82H2.97V4.387c0-1.384.387-2.457 1.161-3.22C4.904.404 5.934.023 7.222.023c1.093 0 1.941.045 2.544.134z" fill-rule="evenodd"/>
</symbol><symbol id="icon-man" viewBox="0 0 58 58">
    <title>
        Untitled 2
    </title>
    <g fill-rule="nonzero">
        <path d="M28.8 31.7c8.6 0 15.7-7 15.7-15.7S37.4.3 28.8.3 13.1 7.3 13.1 16s7.1 15.7 15.7 15.7zm0-25.6c5.4 0 9.9 4.3 9.9 9.9 0 5.5-4.5 9.9-9.9 9.9s-9.9-4.3-9.9-9.9c0-5.4 4.5-9.9 9.9-9.9z"/>
        <path d="M39.8 30.3c-.2 0-.5-.1-.7 0H39c-.5 0-1.1.2-1.5.5-.3.2-.6.5-1 .7-1 .6-2.1 1.1-3.2 1.5-.7.2-1.5.4-2.2.5-.7.1-1.5.2-2.3.2-2.3 0-4.6-.6-6.7-1.6-.3-.2-.7-.4-1-.6-.3-.2-.7-.4-1-.6-.7-.5-1.5-.7-2.3-.5C7.5 32.8.3 41.8.3 52.4v2.2c0 1.6 1.3 2.9 2.9 2.9h51.2c1.6 0 2.9-1.3 2.9-2.9v-2.2c0-10.8-7.2-19.7-17.5-22.1zm1.1 5.2c-.5.4-1 .7-1.5 1 .5-.3 1-.7 1.5-1zm-2 1.3c-.4.2-.7.4-1.1.6.4-.2.7-.4 1.1-.6zM22 38.2c-.5-.2-1.1-.4-1.6-.6.5.2 1.1.4 1.6.6zm-2.1-.9c-.4-.2-.8-.4-1.1-.6.3.3.7.5 1.1.6zm-1.7-.8c-.5-.3-1-.6-1.5-1 .5.3 1 .7 1.5 1zm-12.1 15c.3-7.1 5-13.1 11.7-15.2 1.3.8 2.7 1.4 4.1 1.9h.1c.6.2 1.2.4 1.9.6h.1c.5.1.9.2 1.4.3h.2c.4.1.9.1 1.3.2h.3c.5 0 1 .1 1.6.1.6 0 1 0 1.6-.1h.3c.4 0 .9-.1 1.3-.2h.2c.5-.1.9-.2 1.4-.3h.1c.6-.2 1.3-.3 1.9-.6.6-.2 1.1-.4 1.7-.7-.5.2-1 .4-1.6.6 1.4-.5 2.8-1.1 4.1-1.9 6.7 2 11.4 8.1 11.7 15.2l-45.4.1z"/>
    </g>
</symbol><symbol id="icon-star" viewBox="0 0 1676 1600">
    <path d="M1671 622c0 14.7-8.7 30.7-26 48l-363 354 86 500c.7 4.7 1 11.3 1 20 0 14-3.5 25.8-10.5 35.5s-17.2 14.5-30.5 14.5c-12.7 0-26-4-40-12l-449-236-449 236c-14.7 8-28 12-40 12-14 0-24.5-4.8-31.5-14.5S308 1558 308 1544c0-4 .7-10.7 2-20l86-500L32 670c-16.7-18-25-34-25-48 0-24.7 18.7-40 56-46l502-73L790 48c12.7-27.3 29-41 49-41s36.3 13.7 49 41l225 455 502 73c37.3 6 56 21.3 56 46z"/>
</symbol></svg>