<?xml version="1.0" encoding="UTF-8"?><!DOCTYPE svg PUBLIC "-//W3C//DTD SVG 1.1//EN" "http://www.w3.org/Graphics/SVG/1.1/DTD/svg11.dtd"><svg xmlns="http://www.w3.org/2000/svg"><symbol id="icon-arrow-l" viewBox="0 0 192 320">
    <path d="M192 300.6L171.3 320 0 160 171.3 0 192 19.3 41.5 160z"/>
</symbol><symbol id="icon-arrow-r" viewBox="0 0 192 320">
    <path d="M0 19.4L20.7 0 192 160 20.7 320 0 300.7 150.5 160z"/>
</symbol><symbol id="icon-arrow" viewBox="0 0 325 198.5">
    <path d="M302.6 2.5L322 23.2 162 194.5 2 23.2 21.3 2.5 162 153z"/>
</symbol><symbol id="icon-facebook" viewBox="0 0 10 19">
    <title>
        facebook
    </title>
    <path d="M9.766.157v2.946H8.014c-.64 0-1.071.134-1.295.402-.223.268-.335.67-.335 1.205v2.11h3.27l-.435 3.303H6.384v8.471H2.97v-8.47H.123V6.82H2.97V4.387c0-1.384.387-2.457 1.161-3.22C4.904.404 5.934.023 7.222.023c1.093 0 1.941.045 2.544.134z" fill-rule="evenodd"/>
</symbol><symbol id="icon-logo-blue" viewBox="0 0 3000 2500">
    <style>
        .st0{fill:#14c1e5}.st1{fill:#0c97c1}.st2{fill:#ff016e}.st3{fill:#fff}.st4{fill:#dbdbdb}.st5{opacity:.44;fill:#fff;enable-background:new}.st6{fill:#db036a}
    </style>
    <path class="st0" d="M-871.6 1079.8h-59.9c-12.9 0-19.4-8-19.4-23.9V1032h136.6c14.9 0 22.4 8.1 22.4 24.2 0 13.5-3.9 24.7-11.8 33.6l-66.2 98.2h77.1v24c0 16-6.4 24-19.1 24h-139.9v-24.5c0-13.7 3.9-24.9 11.8-33.6l68.4-98.1z"/>
    <path class="st0" d="M-610.8 1180.7c0 19.2-8.2 33.6-24.5 42.9-16.4 9.3-35 14-55.9 14s-39.5-4.7-55.9-14-24.5-23.6-24.5-42.9V1032h29.9c20 0 29.9 8.8 29.9 26.3V1172c0 11.5 6.9 17.2 20.5 17.2 13.7 0 20.5-5.8 20.5-17.2v-139.9h29.9c20 0 29.9 8.8 29.9 26.3l.2 122.3z"/>
    <path class="st0" d="M-429 1175.6c0 40.3-21.4 60.5-64.1 60.5h-95.2v-204h90.7c40.7 0 61.1 16.2 61.1 48.6 0 21.4-8.1 36.1-24.5 44.4 21.4 10.2 32 27.1 32 50.5zm-64-82.8c0-13.1-6.6-19.7-19.7-19.7h-15.7v39.3h16.3c12.8 0 19.1-6.5 19.1-19.6zm4.3 79.4c0-14.7-7.4-22.1-22.1-22.1h-17.5v44.1h18.1c14.3.1 21.5-7.3 21.5-22z"/>
    <path class="st0" d="M-330.8 1079.8h-59.9c-12.9 0-19.4-8-19.4-23.9V1032h136.6c14.9 0 22.4 8.1 22.4 24.2 0 13.5-3.9 24.7-11.8 33.6L-329 1188h77.1v24c0 16-6.4 24-19.1 24h-139.9v-24.5c0-13.7 3.9-24.9 11.8-33.6l68.3-98.1z"/>
    <path class="st0" d="M-169.1 1200.1l-5.8 15.4c-5.2 13.7-13.6 20.5-25.3 20.5-11.8 0-20.2-3.6-25.2-10.8-5.1-7.2-7.6-13.7-7.6-19.4 0-5.8 1.3-11.4 3.8-16.9l71.5-156.8h19.4c12.9 0 22.4 6.9 28.5 20.5l62.5 136.3c2.6 5.6 3.9 11.3 3.9 17.1 0 5.8-2.4 12.2-7.4 19.4-5 7.2-13.4 10.7-25.3 10.7-12 0-20.5-6.9-25.6-20.5l-5.8-15.4-61.6-.1zm43.9-48.4l-13-35.3-13 35.3h26z"/>
    <path class="st1" d="M-1112.8 1307.8h-250.1c-25.7 0-46.7-21-46.7-46.7V1011c0-25.7 21-46.7 46.7-46.7h250.1c25.7 0 46.7 21 46.7 46.7v250c.1 25.7-20.9 46.8-46.7 46.8z"/>
    <path class="st2" d="M-1157.1 1153.8h-2.7c-26.3.3-51.5 6.6-75.6 18.4-24.1-11.9-49.3-18.1-75.6-18.4h-2.7c-36.7 0-69.6 11.3-95.9 24.7v136.4h343.6v-138.7c-25.4-12.4-56.6-22.4-91.1-22.4z"/>
    <path class="st3" d="M-1392.4 997.5c-7.9 7.9-12.9 18-14.5 28.8 4.6 6.1 12 10.1 20.2 10.1h28.6c13.9 0 25.2-11.4 25.2-25.2v-28.7h-23.8c-13.4.1-26.1 5.4-35.7 15z"/>
    <path class="st3" d="M-1233.5 1011.2c0 13.9 11.4 25.2 25.2 25.2h28.6c13.9 0 25.2-11.4 25.2-25.2v-28.7h-79v28.7z"/>
    <path class="st3" d="M-1119.1 1036.4h28.6c8.3 0 15.6-4 20.2-10.1-1.5-10.8-6.5-20.9-14.5-28.8-9.6-9.6-22.4-15-35.9-15h-23.8v28.7c.2 13.9 11.5 25.2 25.4 25.2z"/>
    <path class="st3" d="M-1074.9 1248c-4.3-3.4-9.7-5.4-15.7-5.4h-28.6c-13.9 0-25.2 11.4-25.2 25.2V1305.1h23.8c13.5 0 26.2-5.3 35.9-15 9.3-9.3 14.5-21.5 14.9-34.5v-2.3c-1.4-1.9-3.1-3.7-5.1-5.3z"/>
    <path class="st3" d="M-1179.7 1242.6h-28.6c-13.9 0-25 11.2-25.2 25V1305.2h79v-37.3c0-14-11.3-25.3-25.2-25.3z"/>
    <path class="st3" d="M-1269 1242.6h-28.6c-13.9 0-25.2 11.4-25.2 25.2v37.3h79v-37.3-.3c0-13.8-11.3-24.9-25.2-24.9z"/>
    <path class="st3" d="M-1358.1 1242.6h-28.6c-8.5 0-16.1 4.3-20.7 10.8v.9c0 1.1 0 2.2.1 3.4.8 12.2 6 23.7 14.8 32.4 8.9 8.9 20.4 14 32.6 14.8 1 .1 2.2.1 3.2.1h23.8v-37.2c0-13.9-11.3-25.2-25.2-25.2z"/>
    <g>
        <path class="st4" d="M-1392.4 982.5c-9.6 9.6-15 22.4-15 35.9v7.4c.2.3.3.4.5.7 1.5-10.8 6.5-20.9 14.5-28.8 9.6-9.6 22.4-15 35.9-15h23.8v-15.1h-23.8c-13.6-.1-26.3 5.2-35.9 14.9z"/>
        <path class="st4" d="M-1233.5 967.5h79.1v15.1h-79.1z"/>
        <path class="st4" d="M-1084.8 982.5c-9.6-9.6-22.4-15-35.9-15h-23.8v15.1h23.8c13.5 0 26.2 5.3 35.9 15 7.9 7.9 12.9 18 14.5 28.8.2-.3.3-.4.5-.7v-7.3c0-13.6-5.4-26.3-15-35.9z"/>
        <path class="st4" d="M-1090.5 1232.6h-28.6c-13.9 0-25.2 11.4-25.2 25.2v10c0-13.9 11.4-25.2 25.2-25.2h28.6c5.9 0 11.4 2.1 15.7 5.4 1.9 1.5 3.6 3.4 5.1 5.3v-9.9c-4.7-6.6-12.3-10.8-20.8-10.8z"/>
        <path class="st4" d="M-1179.7 1232.6h-28.6c-13.9 0-25.2 11.4-25.2 25.2v9.6c.2-13.8 11.4-25 25.2-25h28.6c13.9 0 25.2 11.4 25.2 25.2v-10c0-13.7-11.3-25-25.2-25z"/>
        <path class="st4" d="M-1269 1232.6h-28.6c-13.9 0-25.2 11.4-25.2 25.2v10c0-13.9 11.4-25.2 25.2-25.2h28.6c13.9 0 25 11.2 25.2 25v-9.6c.1-14.1-11.2-25.4-25.2-25.4z"/>
        <path class="st4" d="M-1358.1 1232.6h-28.6c-8.5 0-16.1 4.3-20.7 10.8v10c4.6-6.5 12.1-10.8 20.7-10.8h28.6c13.9 0 25.2 11.4 25.2 25.2v-10c0-13.9-11.3-25.2-25.2-25.2z"/>
    </g>
    <path class="st5" d="M-1098 1174.4c-48.9-15.6-102.9-4.9-106.3 5.2-3.4 10 32.5-8.6 83 2.3 24.9 5.4 42.5 13.9 55.3 23.1v-16.6c-9.8-5.5-20.6-10.3-32-14z"/>
    <path class="st6" d="M-1090.5 1222.5h-28.6c-12.8 0-24.1 6.9-30.3 17.1-6.2-10.2-17.5-17.1-30.3-17.1h-28.6c-12.8 0-24.1 6.9-30.3 17.1-6.2-10.2-17.5-17.1-30.3-17.1h-28.6c-12.8 0-24.1 6.9-30.3 17.1-6.2-10.2-17.5-17.1-30.3-17.1h-28.7c-7.7 0-14.9 2.5-20.7 6.7V1243.3c4.6-6.5 12.1-10.8 20.7-10.8h28.6c13.9 0 25.2 11.4 25.2 25.2v47.3h10.2v-47.3c0-13.9 11.4-25.2 25.2-25.2h28.6c13.9 0 25.2 11.4 25.2 25.2V1304.9h10.2v-37.3-9.9c0-13.9 11.4-25.2 25.2-25.2h28.6c13.9 0 25.2 11.4 25.2 25.2v47.3h10.2v-47.3c0-13.9 11.4-25.2 25.2-25.2h28.6c8.5 0 16.1 4.3 20.7 10.8v-14.1c-5.8-4.2-12.9-6.7-20.6-6.7z"/>
    <path class="st0" d="M-1120.6 928h-236.1c-49.8 0-90.3 40.5-90.3 90.3v236c0 49.8 40.5 90.3 90.3 90.3h64.9c.3.3.5.7.8 1l44.7 52c1.9 2.2 4.7 3.5 7.7 3.5 2.9 0 5.8-1.3 7.7-3.5l44.6-51.9c.3-.3.6-.7.9-1.1h64.9c49.8 0 90.3-40.5 90.3-90.3v-236c-.1-49.8-40.6-90.3-90.4-90.3zm-23.7 54.6v-15.1h23.8c13.5 0 26.2 5.3 35.9 15 9.6 9.6 15 22.4 15 35.9v7.3c-.2.3-.3.4-.5.7-4.6 6.1-12 10.1-20.2 10.1h-28.6c-13.9 0-25.2-11.4-25.2-25.2l-.2-28.7zm-89.2 0v-15.1h79.1v43.8c0 13.9-11.4 25.2-25.2 25.2h-28.6c-13.9 0-25.2-11.4-25.2-25.2l-.1-28.7zm-173.9 35.7c0-13.5 5.3-26.2 15-35.9 9.6-9.6 22.4-15 35.9-15h23.8v43.8c0 13.9-11.4 25.2-25.2 25.2h-28.7c-8.3 0-15.6-4-20.2-10.1-.2-.3-.3-.4-.5-.7v-7.3h-.1zm322.6 271.8c-9.6 9.6-22.4 15-35.9 15 0 0-238.1 0-239.2-.1-12.3-.8-23.8-5.9-32.6-14.8-8.9-8.9-14-20.2-14.8-32.4-.1-1.1-.1-110.2-.1-110.2V1040c5.9 4.2 13 6.7 20.7 6.7h28.6c19.5 0 35.4-15.8 35.4-35.4v-43.8h79.1v43.7c0 19.5 15.8 35.4 35.4 35.4h28.6c12.8 0 24.1-6.9 30.3-17.1 6.2 10.2 17.5 17.1 30.3 17.1h28.6c7.7 0 14.9-2.5 20.7-6.7v215.7c-.5 13-5.7 25.2-15.1 34.5z"/>
    <path class="st5" d="M-1292 1182.8c-49.7-8.3-67.5 17.5-74.6 10.3-11.4-11.4 26.8-26.2 62.4-22.9 35.6 3.3 71.2 25 75.1 34.8 4 9.8-26.3-16.1-62.9-22.2z"/>
</symbol><symbol id="icon-man" viewBox="0 0 58 58">
    <title>
        Untitled 2
    </title>
    <g fill-rule="nonzero">
        <path d="M28.8 31.7c8.6 0 15.7-7 15.7-15.7S37.4.3 28.8.3 13.1 7.3 13.1 16s7.1 15.7 15.7 15.7zm0-25.6c5.4 0 9.9 4.3 9.9 9.9 0 5.5-4.5 9.9-9.9 9.9s-9.9-4.3-9.9-9.9c0-5.4 4.5-9.9 9.9-9.9z"/>
        <path d="M39.8 30.3c-.2 0-.5-.1-.7 0H39c-.5 0-1.1.2-1.5.5-.3.2-.6.5-1 .7-1 .6-2.1 1.1-3.2 1.5-.7.2-1.5.4-2.2.5-.7.1-1.5.2-2.3.2-2.3 0-4.6-.6-6.7-1.6-.3-.2-.7-.4-1-.6-.3-.2-.7-.4-1-.6-.7-.5-1.5-.7-2.3-.5C7.5 32.8.3 41.8.3 52.4v2.2c0 1.6 1.3 2.9 2.9 2.9h51.2c1.6 0 2.9-1.3 2.9-2.9v-2.2c0-10.8-7.2-19.7-17.5-22.1zm1.1 5.2c-.5.4-1 .7-1.5 1 .5-.3 1-.7 1.5-1zm-2 1.3c-.4.2-.7.4-1.1.6.4-.2.7-.4 1.1-.6zM22 38.2c-.5-.2-1.1-.4-1.6-.6.5.2 1.1.4 1.6.6zm-2.1-.9c-.4-.2-.8-.4-1.1-.6.3.3.7.5 1.1.6zm-1.7-.8c-.5-.3-1-.6-1.5-1 .5.3 1 .7 1.5 1zm-12.1 15c.3-7.1 5-13.1 11.7-15.2 1.3.8 2.7 1.4 4.1 1.9h.1c.6.2 1.2.4 1.9.6h.1c.5.1.9.2 1.4.3h.2c.4.1.9.1 1.3.2h.3c.5 0 1 .1 1.6.1.6 0 1 0 1.6-.1h.3c.4 0 .9-.1 1.3-.2h.2c.5-.1.9-.2 1.4-.3h.1c.6-.2 1.3-.3 1.9-.6.6-.2 1.1-.4 1.7-.7-.5.2-1 .4-1.6.6 1.4-.5 2.8-1.1 4.1-1.9 6.7 2 11.4 8.1 11.7 15.2l-45.4.1z"/>
    </g>
</symbol><symbol id="icon-star" viewBox="0 0 1676 1600">
    <path d="M1671 622c0 14.7-8.7 30.7-26 48l-363 354 86 500c.7 4.7 1 11.3 1 20 0 14-3.5 25.8-10.5 35.5s-17.2 14.5-30.5 14.5c-12.7 0-26-4-40-12l-449-236-449 236c-14.7 8-28 12-40 12-14 0-24.5-4.8-31.5-14.5S308 1558 308 1544c0-4 .7-10.7 2-20l86-500L32 670c-16.7-18-25-34-25-48 0-24.7 18.7-40 56-46l502-73L790 48c12.7-27.3 29-41 49-41s36.3 13.7 49 41l225 455 502 73c37.3 6 56 21.3 56 46z"/>
</symbol></svg>