<?xml version="1.0" encoding="UTF-8"?><!DOCTYPE svg PUBLIC "-//W3C//DTD SVG 1.1//EN" "http://www.w3.org/Graphics/SVG/1.1/DTD/svg11.dtd"><svg xmlns="http://www.w3.org/2000/svg"><symbol id="icon-arrow-down" viewBox="0 0 24 24">
    <path stroke-miterlimit="10" stroke-width="2" d="M21 8.5l-9 9-9-9"/>
</symbol><symbol id="icon-arrow-l" viewBox="0 0 192 320">
    <path d="M192 300.6L171.3 320 0 160 171.3 0 192 19.3 41.5 160z"/>
</symbol><symbol id="icon-arrow-r" viewBox="0 0 192 320">
    <path d="M0 19.4L20.7 0 192 160 20.7 320 0 300.7 150.5 160z"/>
</symbol><symbol id="icon-arrow-sm" viewBox="0 0 16 19">
    <title>
        Untitled 4
    </title>
    <path d="M0 0l16 9.4L0 19c.6-3.2 1-6.4 1-9.6C1 6.3.6 3.1 0 0z" fill-rule="nonzero"/>
</symbol><symbol id="icon-arrow" viewBox="0 0 325 198.5">
    <path d="M302.6 2.5L322 23.2 162 194.5 2 23.2 21.3 2.5 162 153z"/>
</symbol><symbol id="icon-close" viewBox="0 0 14.9 14.9">
    <title>
        Delete 14.3
    </title>
    <path d="M9.5 7.4l4.9 4.9c.6.6.6 1.5 0 2.1s-1.5.6-2.1 0L7.4 9.5l-4.9 4.9c-.6.6-1.5.6-2.1 0s-.6-1.5 0-2.1l4.9-4.9L.4 2.5C-.2 1.9-.2 1 .4.4s1.5-.6 2.1 0l4.9 4.9L12.3.4c.6-.6 1.5-.6 2.1 0s.6 1.5 0 2.1L9.5 7.4z"/>
</symbol><symbol id="icon-comp" viewBox="0 0 28.6 25.6">
    <style>
        .st0{fill:#fff}
    </style>
    <title>
        Business Report
    </title>
    <path class="st0" d="M26.6 0H2C.9 0 0 .9 0 2v16.4c0 1.1.9 2 2 2h8.1v.7c0 1.1-.9 2-2 2-.3 0-.5.2-.5.5v1.5c0 .3.2.5.5.5h12.3c.3 0 .5-.2.5-.5v-1.5c0-.3-.2-.5-.5-.5-1.1 0-2-.9-2-2v-.7h8.2c1.1 0 2-.9 2-2V2c0-1.1-.9-2-2-2zm-6.7 24.1v.4H8.7v-.4c1.4-.3 2.5-1.5 2.5-3v-.7h6.2v.7c0 1.5 1.1 2.8 2.5 3zm7.6-5.9v.2c0 .5-.4.9-.9.9H2c-.5 0-.9-.4-.9-.9V2c0-.5.4-.9.9-.9h24.6c.5 0 .9.4.9.9v16.2z"/>
    <path class="st0" d="M25.6 2.5H3c-.3 0-.5.2-.5.5v13.4c0 .3.2.5.5.5h22.6c.3 0 .5-.2.5-.5V3c0-.3-.2-.5-.5-.5zm-.5 13.4H3.5V3.5h21.6v12.4z"/>
    <circle class="st0" cx="14.3" cy="18.1" r=".6"/>
    <path class="st0" d="M13.7 13.4c1.1 0 2.2-.4 3-1.2l2.2 2.2c.1.1.2.2.4.2s.3 0 .4-.2l.1-.1c.2-.2.2-.6 0-.8l-2.2-2.2h-.1c.4-.6.6-1.4.6-2.2 0-2.4-1.9-4.3-4.3-4.3S9.4 6.7 9.4 9.1s1.9 4.3 4.3 4.3zm0-7.6c1.8 0 3.3 1.5 3.3 3.3s-1.5 3.3-3.3 3.3-3.3-1.5-3.3-3.3 1.5-3.3 3.3-3.3z"/>
</symbol><symbol id="icon-facebook" viewBox="0 0 10 19">
    <title>
        facebook
    </title>
    <path d="M9.766.157v2.946H8.014c-.64 0-1.071.134-1.295.402-.223.268-.335.67-.335 1.205v2.11h3.27l-.435 3.303H6.384v8.471H2.97v-8.47H.123V6.82H2.97V4.387c0-1.384.387-2.457 1.161-3.22C4.904.404 5.934.023 7.222.023c1.093 0 1.941.045 2.544.134z" fill-rule="evenodd"/>
</symbol><symbol id="icon-filt" viewBox="0 0 54 45">
    <title>
        Levers 4.5
    </title>
    <path d="M49 20.4c2.9 1 5 3.8 5 7.1s-2.1 6-5 7.1v7.9c0 1.4-1.1 2.5-2.5 2.5S44 43.9 44 42.5v-7.9c-2.9-1-5-3.8-5-7.1s2.1-6 5-7.1V2.5C44 1.1 45.1 0 46.5 0S49 1.1 49 2.5v17.9zm-14.5-9.9c0 3.2-2 6-5 7.1v24.9c0 1.4-1.1 2.5-2.5 2.5s-2.5-1.1-2.5-2.5V17.6c-3-1-5-3.9-5-7.1 0-3.2 2-6 5-7.1v-.9C24.5 1.1 25.6 0 27 0s2.5 1.1 2.5 2.5v.9c3 1.1 5 3.9 5 7.1zM10 2.5C10 1.1 8.9 0 7.5 0S5 1.1 5 2.5v24.9c-2.9 1-5 3.8-5 7.1s2.1 6 5 7.1v.9C5 43.9 6.1 45 7.5 45s2.5-1.1 2.5-2.5v-.9c2.9-1 5-3.8 5-7.1s-2.1-6-5-7.1V2.5z"/>
</symbol><symbol id="icon-hands" viewBox="0 0 25.9 26">
    <style>
        .st0{fill:#fff}
    </style>
    <circle class="st0" cx="9.5" cy="23.5" r=".5"/>
    <path class="st0" d="M23.9 4c-1.1 0-2 .9-2 2v4.8c-.7-.2-1.4-.2-2 .3l-3.7 3c-.8.6-1.3 1.6-1.3 2.7V21h-.5c-.3 0-.5.2-.5.5v4c0 .3.2.5.5.5h9c.3 0 .5-.2.5-.5v-4c0-.3-.2-.5-.5-.5h-1.5v-1c0-.2.1-.3.2-.4l2-1.5c1.1-.8 1.8-2.2 1.8-3.6V6c0-1.1-.9-2-2-2zm-1 18v3h-8v-3h8zm2-8.5v1c0 1.1-.5 2.1-1.4 2.8l-2 1.5c-.4.3-.6.7-.6 1.2v1H16v-4.3c0-.7.3-1.4.9-1.9l3.7-3c.4-.3 1.1-.2 1.4.2s.2 1.1-.2 1.4l-3.3 2.7c-.4.3-.6.7-.6 1.2v.2c0 .3.2.5.5.5s.5-.2.5-.5v-.2c0-.2.1-.3.2-.4l3.3-2.7c.8-.6 1-1.8.5-2.6V6c0-.6.4-1 1-1s1 .4 1 1v7.5z"/>
    <path class="st0" d="M11.5 21H11v-4.2c0-1.1-.5-2.1-1.3-2.7l-3.7-3c-.6-.5-1.3-.5-2-.3V6c0-1.1-.9-2-2-2s-2 .9-2 2v8.5c0 1.4.7 2.8 1.8 3.6l2 1.5c.1.1.2.2.2.4v1H2.5c-.3 0-.5.2-.5.5v4c0 .3.2.5.5.5h9c.3 0 .5-.2.5-.5v-4c-.1-.3-.3-.5-.5-.5zm-7.1-2.2l-2-1.5c-.9-.7-1.4-1.7-1.4-2.8V6c0-.6.4-1 1-1s1 .4 1 1v5.6c-.5.8-.3 2 .5 2.6l3.3 2.7c.1.1.2.2.2.4v.2c0 .3.2.5.5.5s.5-.2.5-.5v-.2c0-.5-.2-.9-.6-1.2l-3.3-2.7c-.4-.3-.5-1-.2-1.4s1-.5 1.4-.2l3.7 3c.6.5.9 1.2.9 1.9V21H5v-1c0-.5-.2-.9-.6-1.2zm6.5 6.2h-8v-3h8v3z"/>
    <circle class="st0" cx="16.5" cy="23.5" r=".5"/>
    <path class="st0" d="M13 13c3.6 0 6.5-2.9 6.5-6.5S16.6 0 13 0 6.5 2.9 6.5 6.5 9.4 13 13 13zm-.1-12c3 0 5.5 2.5 5.5 5.5S15.9 12 12.9 12 7.4 9.5 7.4 6.5 9.9 1 12.9 1z"/>
    <path class="st0" d="M11 7.8h.4v2c0 .1.1.2.2.2h.4c.1 0 .2-.1.2-.2v-2h2.5c.1 0 .1-.1.1-.2v-.3c0-.1-.1-.1-.1-.2h-2.5v-.2H14c.7 0 1.2-.2 1.5-.6.3-.3.5-.6.5-1.2 0-.3-.1-.6-.2-.9-.1-.3-.3-.4-.4-.6-.2-.2-.5-.3-.7-.4-.2 0-.4-.1-.8-.1h-2.5v3H11c-.1 0-.2.1-.2.2v.3c0 .1.1.2.2.2h.4v.3H11c-.1 0-.2.1-.2.2v.3c0 .1.1.2.2.2zm1-3.9h1.9c.3 0 .5 0 .6.1.2.1.3.2.4.4.1.2.2.4.2.7-.1.3-.2.6-.4.8s-.4.3-.9.3H12V3.9z"/>
</symbol><symbol id="icon-heart" viewBox="0 0 62 57">
    <g fill-rule="nonzero">
        <path d="M37.6 10.3L33.2 15l-.1.1c-1.2 1.1-3.1 1.1-4.2-.1l-4.4-4.7c-2.1-2.3-4.9-3.4-7.6-3.4-2.7 0-5.4 1.1-7.6 3.4C5 14.8 5 22.2 9.3 26.7L31 49.6c7.3-7.6 14.5-15.3 21.8-22.9 4.3-4.5 4.3-11.9 0-16.4-4.3-4.5-10.9-4.5-15.2 0z"/>
        <path d="M33.2 6.2L31 8.5l-2.2-2.4C25.5 2.7 21.2 1 16.9 1 12.6 1 8.2 2.7 5 6.1c-6.5 6.8-6.5 17.8 0 24.7L28.8 56c1.1 1.2 3 1.2 4.2.1l.1-.1 24-25.2c6.5-6.8 6.5-17.8 0-24.7-6.5-6.9-17.3-6.8-23.9.1zm19.6 20.5C45.5 34.4 38.3 42 31 49.6L9.2 26.7c-4.3-4.5-4.3-11.9 0-16.4 2.1-2.3 4.9-3.4 7.6-3.4 2.7 0 5.4 1.1 7.6 3.4l4.4 4.7c1.1 1.2 3 1.2 4.2.1l.1-.1 4.4-4.7c4.3-4.5 10.9-4.5 15.2 0 4.4 4.5 4.4 11.9.1 16.4z"/>
    </g>
</symbol><symbol id="icon-important" viewBox="0 0 24 27.5">
    <style>
        .st0,.st1{fill:none;stroke:#000;stroke-width:2}.st1{stroke-linecap:round;stroke-linejoin:round}
    </style>
    <title>
        74 -Important Folder- (document, paper, write, note)
    </title>
    <path class="st0" d="M20.1 20H1.9c-1 0-1.9-.9-1.9-1.9V7.9C0 6.9.9 6 1.9 6H20c1.1 0 2 .9 2 1.9V18c0 1.1-.9 2-1.9 2z" transform="translate(1 1)"/>
    <path class="st0" d="M20 6H2V1.3C2 .6 2.6 0 3.3 0H7l4 2h7.7c.7 0 1.3.6 1.3 1.3V6z" transform="translate(1 1)"/>
    <path class="st1" d="M17 14l-3-3-3 3V6h6z" transform="translate(1 1)"/>
</symbol><symbol id="icon-list" viewBox="0 0 24 24">
    <path d="M20 10H4c-1.1 0-2 .9-2 2s.9 2 2 2h16c1.1 0 2-.9 2-2s-.9-2-2-2z"/>
    <path d="M4 8h12c1.1 0 2-.9 2-2s-.9-2-2-2H4c-1.1 0-2 .9-2 2s.9 2 2 2z"/>
    <path d="M16 16H4c-1.1 0-2 .9-2 2s.9 2 2 2h12c1.1 0 2-.9 2-2s-.9-2-2-2z"/>
</symbol><symbol id="icon-location" viewBox="0 0 70.7 83.8">
    <path d="M60.3 10.4s0-.2 0 0c-13.8-13.8-36.2-13.8-50 0-13.8 13.8-13.8 36.3 0 50.1l22.2 22.2c.8.8 1.8 1.2 2.8 1.2s2-.4 2.8-1.2l22.2-22.3c13.9-13.9 13.9-36.3 0-50zm-25 35.9c-8 0-14.5-6.5-14.5-14.5s6.5-14.5 14.5-14.5 14.5 6.5 14.5 14.5-6.5 14.5-14.5 14.5z"/>
</symbol><symbol id="icon-lock" viewBox="0 0 66.3 86.2">
    <style>
        .st0{fill:none}.st0,.st1{stroke:#000;stroke-width:8;stroke-linecap:round;stroke-miterlimit:10}
    </style>
    <title>
        &#x417;&#x430;&#x43C;&#x43E;&#x43A;
    </title>
    <path class="st0" d="M6.6 35.7h53.1c1.4 0 2.6 1.1 2.6 2.6v41.3c0 1.4-1.1 2.6-2.6 2.6H6.6c-1.4 0-2.6-1.1-2.6-2.6V38.3c.1-1.4 1.2-2.6 2.6-2.6z"/>
    <circle class="st1" cx="33.2" cy="59" r="2.7"/>
    <path class="st0" d="M33.2 59v9.8"/>
    <path class="st0" d="M13.3 24.3c-.2-11 8.5-20.1 19.5-20.3s20.1 8.5 20.3 19.4v.9"/>
    <path class="st0" d="M13.3 24.3v11.4"/>
    <path class="st0" d="M53.1 24.3v11.4"/>
</symbol><symbol id="icon-man" viewBox="0 0 58 58">
    <title>
        Untitled 2
    </title>
    <g fill-rule="nonzero">
        <path d="M28.8 31.7c8.6 0 15.7-7 15.7-15.7S37.4.3 28.8.3 13.1 7.3 13.1 16s7.1 15.7 15.7 15.7zm0-25.6c5.4 0 9.9 4.3 9.9 9.9 0 5.5-4.5 9.9-9.9 9.9s-9.9-4.3-9.9-9.9c0-5.4 4.5-9.9 9.9-9.9z"/>
        <path d="M39.8 30.3c-.2 0-.5-.1-.7 0H39c-.5 0-1.1.2-1.5.5-.3.2-.6.5-1 .7-1 .6-2.1 1.1-3.2 1.5-.7.2-1.5.4-2.2.5-.7.1-1.5.2-2.3.2-2.3 0-4.6-.6-6.7-1.6-.3-.2-.7-.4-1-.6-.3-.2-.7-.4-1-.6-.7-.5-1.5-.7-2.3-.5C7.5 32.8.3 41.8.3 52.4v2.2c0 1.6 1.3 2.9 2.9 2.9h51.2c1.6 0 2.9-1.3 2.9-2.9v-2.2c0-10.8-7.2-19.7-17.5-22.1zm1.1 5.2c-.5.4-1 .7-1.5 1 .5-.3 1-.7 1.5-1zm-2 1.3c-.4.2-.7.4-1.1.6.4-.2.7-.4 1.1-.6zM22 38.2c-.5-.2-1.1-.4-1.6-.6.5.2 1.1.4 1.6.6zm-2.1-.9c-.4-.2-.8-.4-1.1-.6.3.3.7.5 1.1.6zm-1.7-.8c-.5-.3-1-.6-1.5-1 .5.3 1 .7 1.5 1zm-12.1 15c.3-7.1 5-13.1 11.7-15.2 1.3.8 2.7 1.4 4.1 1.9h.1c.6.2 1.2.4 1.9.6h.1c.5.1.9.2 1.4.3h.2c.4.1.9.1 1.3.2h.3c.5 0 1 .1 1.6.1.6 0 1 0 1.6-.1h.3c.4 0 .9-.1 1.3-.2h.2c.5-.1.9-.2 1.4-.3h.1c.6-.2 1.3-.3 1.9-.6.6-.2 1.1-.4 1.7-.7-.5.2-1 .4-1.6.6 1.4-.5 2.8-1.1 4.1-1.9 6.7 2 11.4 8.1 11.7 15.2l-45.4.1z"/>
    </g>
</symbol><symbol id="icon-marker" viewBox="0 0 512 512">
    <path d="M256 0C153.755 0 70.573 83.182 70.573 185.426c0 126.888 165.939 313.167 173.004 321.035 6.636 7.391 18.222 7.378 24.846 0 7.065-7.868 173.004-194.147 173.004-321.035C441.425 83.182 358.244 0 256 0zm0 469.729c-55.847-66.338-152.035-197.217-152.035-284.301 0-83.834 68.202-152.036 152.035-152.036s152.035 68.202 152.035 152.035C408.034 272.515 311.861 403.37 256 469.729z"/>
    <path d="M256 92.134c-51.442 0-93.292 41.851-93.292 93.293S204.559 278.72 256 278.72s93.291-41.851 93.291-93.293S307.441 92.134 256 92.134zm0 153.194c-33.03 0-59.9-26.871-59.9-59.901s26.871-59.901 59.9-59.901 59.9 26.871 59.9 59.901-26.871 59.901-59.9 59.901z"/>
</symbol><symbol id="icon-sad" viewBox="0 0 58 57">
    <title>
        Untitled 6
    </title>
    <g fill-rule="nonzero">
        <path d="M29 6.3c-12.2 0-22.2 9.9-22.2 22.2 0 12.3 10 22.2 22.2 22.2s22.2-9.9 22.2-22.2c0-12.3-10-22.2-22.2-22.2zM15.7 22.2c0-2.3 1.9-4.2 4.2-4.2 2.3 0 4.2 1.9 4.2 4.2 0 2.3-1.9 4.2-4.2 4.2-2.3 0-4.2-1.9-4.2-4.2zM39 40.5c-.5.4-1.1.6-1.6.6-.8 0-1.5-.4-2.1-1-.1-.1-2.2-2.6-6.2-2.6s-6.2 2.5-6.3 2.6c-.9 1.1-2.6 1.3-3.7.4s-1.4-2.6-.4-3.7c.1-.2 3.8-4.6 10.4-4.6 6.6 0 10.2 4.4 10.4 4.6.8 1.1.6 2.8-.5 3.7zm-.9-14.1c-2.3 0-4.2-1.9-4.2-4.2 0-2.3 1.9-4.2 4.2-4.2 2.3 0 4.2 1.9 4.2 4.2 0 2.3-1.9 4.2-4.2 4.2z"/>
        <circle cx="19.9" cy="22.2" r="4.2"/>
        <circle cx="38.1" cy="22.2" r="4.2"/>
        <path d="M29 0C13.3 0 .5 12.8.5 28.5S13.3 57 29 57s28.5-12.8 28.5-28.5S44.7 0 29 0zm0 50.7c-12.2 0-22.2-9.9-22.2-22.2 0-12.3 10-22.2 22.2-22.2s22.2 9.9 22.2 22.2c0 12.3-10 22.2-22.2 22.2z"/>
        <path d="M29 32.1c-6.6 0-10.2 4.4-10.4 4.6-.9 1.1-.7 2.8.4 3.7 1.1.9 2.8.8 3.7-.4.1-.1 2.3-2.6 6.3-2.6s6.2 2.5 6.2 2.6c.5.6 1.3 1 2.1 1 .6 0 1.2-.2 1.6-.6 1.1-.9 1.3-2.6.4-3.7-.1-.1-3.7-4.6-10.3-4.6z"/>
    </g>
</symbol><symbol id="icon-search" viewBox="0 0 250.313 250.313">
    <path d="M244.186 214.604l-54.379-54.378c-.289-.289-.628-.491-.93-.76 10.7-16.231 16.945-35.66 16.945-56.554C205.822 46.075 159.747 0 102.911 0S0 46.075 0 102.911c0 56.835 46.074 102.911 102.91 102.911 20.895 0 40.323-6.245 56.554-16.945.269.301.47.64.759.929l54.38 54.38c8.169 8.168 21.413 8.168 29.583 0 8.168-8.169 8.168-21.413 0-29.582zm-141.275-44.458c-37.134 0-67.236-30.102-67.236-67.235 0-37.134 30.103-67.236 67.236-67.236 37.132 0 67.235 30.103 67.235 67.236s-30.103 67.235-67.235 67.235z" fill-rule="evenodd" clip-rule="evenodd"/>
</symbol><symbol id="icon-sort" viewBox="0 0 31 43.2">
    <title>
        Arrow 32.4
    </title>
    <path d="M31 26.8v6.4l-10 10-10-10v-6.4l7.7 7.8V18.5h4.5v16.1l7.8-7.8zM0 16.4V10L10 0l10 10v6.4l-7.7-7.8v16.1H7.8v-16L0 16.4z"/>
</symbol><symbol id="icon-star" viewBox="0 0 1676 1600">
    <path d="M1671 622c0 14.7-8.7 30.7-26 48l-363 354 86 500c.7 4.7 1 11.3 1 20 0 14-3.5 25.8-10.5 35.5s-17.2 14.5-30.5 14.5c-12.7 0-26-4-40-12l-449-236-449 236c-14.7 8-28 12-40 12-14 0-24.5-4.8-31.5-14.5S308 1558 308 1544c0-4 .7-10.7 2-20l86-500L32 670c-16.7-18-25-34-25-48 0-24.7 18.7-40 56-46l502-73L790 48c12.7-27.3 29-41 49-41s36.3 13.7 49 41l225 455 502 73c37.3 6 56 21.3 56 46z"/>
</symbol><symbol id="icon-tooth" viewBox="0 0 1668.4 1571.4">
    <style>
        .st0{fill:#fff}
    </style>
    <path class="st0" d="M1128.3 285.7c-73.7 51.5-185 51.1-258.3-.9-13.6-9.6-32.3-6.4-41.9 7.1-9.6 13.6-6.4 32.3 7.1 41.9 47 33.3 105.4 51.7 164.5 51.7 58.5 0 116.3-18 162.9-50.6 13.6-9.5 16.9-28.2 7.4-41.9-9.4-13.5-28.1-16.8-41.7-7.3z"/>
    <path class="st0" d="M932.2 639.6l-102.1-36.5-36.4-102c-4.3-12-15.6-20-28.3-20-12.7 0-24 8-28.3 20l-36.4 102-.3.1-101.8 36.4c-12 4.3-20 15.6-20 28.3 0 12.7 8 24.1 20 28.3l101.8 36.3.3.1 36.4 102c4.3 12 15.6 20 28.3 20s24-8 28.3-20l36.4-102 102.1-36.4c11.9-4.3 19.9-15.6 19.9-28.3s-8-24-19.9-28.3zm-135.7 41.2c-8.5 3.1-15.1 9.7-18.2 18.2l-12.9 36.2-12.9-36.2c-3-8.4-9.7-15.1-18.2-18.2l-33.9-12.1-2.3-.8 2.3-.8 33.9-12.1c8.5-3.1 15.1-9.7 18.2-18.2l12.9-36.2 12.9 36.2c3 8.5 9.7 15.1 18.2 18.2l36.2 12.9-36.2 12.9z"/>
    <path class="st0" d="M1648.6 184.9l-99.3-35.5-35.4-99.2c-4.3-12-15.6-20-28.3-20s-24 8-28.3 20l-23.5 65.9c-98.1-52.2-228.1-42-356.5 28.8-24.8 13.7-50.9 21.8-77.4 24-26.5-2.2-52.6-10.3-77.4-24-75.8-41.8-152.1-62.6-222.1-62-51.6.4-99.8 12.6-141.7 36.5-36.2 20.7-65.9 48.1-90.2 80.5L410 36.3 404.2 20c-4.3-12-15.6-20-28.3-20s-24 8-28.3 20l-5.8 16.3-80.4 225.2-200 71.4L20 347.7C8 352 0 363.3 0 376s8 24 20 28.3l41.4 14.8 199.9 71.4 86.2 241.3c4.3 12 15.6 20 28.3 20s24-8 28.3-20l27.3-76.3c9.6 34.8 21.1 69.7 34.2 103.8 7.9 20.4 16.3 40.5 25.5 60.1 23.1 49.7 29.1 98 18.6 151.8-8.9 45.6-13.3 92.6-13.3 139.8 0 155.3 48.3 303.3 136 416.5 27.3 35.2 72.7 51.1 116.2 40.5 44.1-10.8 76.4-45.1 84.2-89.6l65.3-373.9c6.8-38.7 39.2-65.7 78.9-65.7h45.5c39.7 0 72.2 27 78.9 65.7l65.3 374c7.8 44.5 40 78.8 84.2 89.6 9.2 2.2 18.5 3.3 27.7 3.3 34.7 0 67-16 88.5-43.8 87.7-113.3 136-261.2 136-416.5 0-47.1-4.5-94.2-13.3-139.8-10.5-53.8-4.6-102.1 18.5-151.8 75.8-162.8 128.8-387.4 62.6-550l77.6-27.7c11.9-4.3 19.9-15.6 19.9-28.3.1-12.9-7.9-24.3-19.8-28.6zM456.7 438.5c-8.5 3.1-15.1 9.7-18.2 18.2l-62.6 175.6-62.6-175.5c-3-8.4-9.7-15.1-18.2-18.2L119.6 376 295 313.3c8.5-3.1 15.1-9.7 18.2-18.2l62.6-175.5 57.1 159.9 5.6 15.6c3 8.4 9.7 15.1 18.2 18.2l175.5 62.6-175.5 62.6zm997.2 355.4c-4.5 9.7-8.3 19.4-11.8 29.2-37.5 75.7-85.1 142.2-137.9 192.2-12.1 11.5-12.6 30.5-1.1 42.5 5.9 6.3 13.9 9.4 21.8 9.4 7.4 0 14.8-2.7 20.7-8.2 29.2-27.7 56.8-59.7 82.3-95.2.9 6.2 1.7 12.4 2.9 18.7 8.1 41.9 12.3 85.1 12.3 128.4 0 142.1-43.8 276.9-123.4 379.7-13 16.9-33.5 24-54.4 18.8-20.9-5.1-35.6-20.6-39.2-41.5l-65.3-374c-11.7-66.9-69.8-115.5-138.2-115.5H977c-68.4 0-126.5 48.5-138.1 115.5l-65.3 374c-3.6 20.9-18.3 36.4-39.2 41.5-20.8 5.2-41.4-1.9-54.4-18.8-79.6-102.8-123.4-237.6-123.4-379.7 0-43.4 4.1-86.6 12.3-128.4 12.8-66 5.2-127.7-23.1-188.6-5.3-11.4-10.4-22.9-15.2-34.6-28.6-68.3-50.1-140.9-61.7-208.5l3.6-10.1 18-50.3 209.9-75 31.4-11.2c12-4.3 20-15.6 20-28.3s-8-24-20-28.3l-31.4-11.2L497.7 264c21.5-39 52-70.1 90.9-92.3 32.8-18.8 70.8-28.3 111.8-28.7 59.8-.7 126.2 17.8 193.1 54.6 33.2 18.3 68.3 28.9 104.3 31.4 1.4.1 2.9.1 4.3 0 36-2.6 71.1-13.2 104.3-31.5 103-56.8 205.4-70.2 283.4-36.6l-67 24c-12 4.3-20 15.6-20 28.3s8 24.1 20 28.3l99.2 35.4 35.5 99.3c4.3 11.9 15.6 19.9 28.3 19.9s24.1-8 28.3-19.9l15.1-42.1c35 141.9-14.4 329-75.3 459.8zm61.8-568.8c-2.9 1.1-5.2 3-7.6 4.8-4.6 3.5-8.6 7.8-10.6 13.4l-11.9 33.4-11.9-33.4c-3-8.4-9.7-15.1-18.2-18.2l-33.4-11.9 33.4-11.9c5.7-2 10.1-6.1 13.6-10.9 1.7-2.3 3.6-4.5 4.6-7.3l3.7-10.4.6-1.8 7.6-21.2 11.9 33.4c3.1 8.5 9.7 15.2 18.2 18.2l33.4 11.9-33.4 11.9z"/>
</symbol></svg>