<?xml version="1.0" encoding="utf-8"?>
<!-- Generator: Adobe Illustrator 19.2.1, SVG Export Plug-In . SVG Version: 6.00 Build 0)  -->
<svg version="1.1" id="Layer_1" xmlns="http://www.w3.org/2000/svg" xmlns:xlink="http://www.w3.org/1999/xlink" x="0px" y="0px"
	 viewBox="0 0 1403.6 473.1" style="enable-background:new 0 0 1403.6 473.1;" xml:space="preserve">
<style type="text/css">
	.st0{fill:#FFFFFF;}
	.st1{fill:#0C97C1;}
	.st2{fill:#FF016E;}
	.st3{fill:#DBDBDB;}
	.st4{opacity:0.44;fill:#FFFFFF;enable-background:new    ;}
	.st5{fill:#DB036A;}
	.st6{fill:#14C1E5;}
</style>
<g>
	<path class="st0" d="M575.4,151.8h-59.9c-12.9,0-19.4-8-19.4-23.9V104h136.6c14.9,0,22.4,8.1,22.4,24.2c0,13.5-3.9,24.7-11.8,33.6
		L577.1,260h77.1v24c0,16-6.4,24-19.1,24H495.2v-24.5c0-13.7,3.9-24.9,11.8-33.6L575.4,151.8z"/>
	<path class="st0" d="M836.2,252.7c0,19.2-8.2,33.6-24.5,42.9c-16.4,9.3-35,14-55.9,14s-39.5-4.7-55.9-14s-24.5-23.6-24.5-42.9V104
		h29.9c20,0,29.9,8.8,29.9,26.3V244c0,11.5,6.9,17.2,20.5,17.2c13.7,0,20.5-5.8,20.5-17.2V104.1h29.9c20,0,29.9,8.8,29.9,26.3
		L836.2,252.7L836.2,252.7z"/>
	<path class="st0" d="M1018,247.6c0,40.3-21.4,60.5-64.1,60.5h-95.2v-204h90.7c40.7,0,61.1,16.2,61.1,48.6
		c0,21.4-8.1,36.1-24.5,44.4C1007.4,207.3,1018,224.2,1018,247.6z M954,164.8c0-13.1-6.6-19.7-19.7-19.7h-15.7v39.3h16.3
		C947.7,184.4,954,177.9,954,164.8z M958.3,244.2c0-14.7-7.4-22.1-22.1-22.1h-17.5v44.1h18.1C951.1,266.3,958.3,258.9,958.3,244.2z"
		/>
	<path class="st0" d="M1116.2,151.8h-59.9c-12.9,0-19.4-8-19.4-23.9V104h136.6c14.9,0,22.4,8.1,22.4,24.2c0,13.5-3.9,24.7-11.8,33.6
		L1118,260h77.1v24c0,16-6.4,24-19.1,24h-139.9v-24.5c0-13.7,3.9-24.9,11.8-33.6L1116.2,151.8z"/>
	<path class="st0" d="M1277.9,272.1l-5.8,15.4c-5.2,13.7-13.6,20.5-25.3,20.5c-11.8,0-20.2-3.6-25.2-10.8
		c-5.1-7.2-7.6-13.7-7.6-19.4c0-5.8,1.3-11.4,3.8-16.9l71.5-156.8h19.4c12.9,0,22.4,6.9,28.5,20.5l62.5,136.3
		c2.6,5.6,3.9,11.3,3.9,17.1c0,5.8-2.4,12.2-7.4,19.4c-5,7.2-13.4,10.7-25.3,10.7c-12,0-20.5-6.9-25.6-20.5l-5.8-15.4L1277.9,272.1
		L1277.9,272.1z M1321.8,223.7l-13-35.3l-13,35.3H1321.8z"/>
</g>
<path class="st1" d="M334.2,379.8H84.1c-25.7,0-46.7-21-46.7-46.7V83c0-25.7,21-46.7,46.7-46.7h250.1c25.7,0,46.7,21,46.7,46.7v250
	C381,358.7,360,379.8,334.2,379.8z"/>
<path class="st2" d="M289.9,225.8c-0.9,0-1.8,0-2.7,0c-26.3,0.3-51.5,6.6-75.6,18.4c-24.1-11.9-49.3-18.1-75.6-18.4
	c-0.9,0-1.8,0-2.7,0c-36.7,0-69.6,11.3-95.9,24.7c0,16,0,136.4,0,136.4H381c0,0,0-120.3,0-138.7
	C355.6,235.8,324.4,225.8,289.9,225.8z"/>
<g>
	<path class="st0" d="M54.6,69.5c-7.9,7.9-12.9,18-14.5,28.8c4.6,6.1,12,10.1,20.2,10.1h28.6c13.9,0,25.2-11.4,25.2-25.2V54.5H90.3
		C76.9,54.6,64.2,59.9,54.6,69.5z"/>
	<path class="st0" d="M213.5,83.2c0,13.9,11.4,25.2,25.2,25.2h28.6c13.9,0,25.2-11.4,25.2-25.2V54.5h-79L213.5,83.2L213.5,83.2z"/>
	<path class="st0" d="M327.9,108.4h28.6c8.3,0,15.6-4,20.2-10.1c-1.5-10.8-6.5-20.9-14.5-28.8c-9.6-9.6-22.4-15-35.9-15h-23.8v28.7
		C302.7,97.1,314,108.4,327.9,108.4z"/>
	<path class="st0" d="M372.1,320c-4.3-3.4-9.7-5.4-15.7-5.4h-28.6c-13.9,0-25.2,11.4-25.2,25.2v25.7v8.9v2.7h23.8
		c13.5,0,26.2-5.3,35.9-15c9.3-9.3,14.5-21.5,14.9-34.5c0-0.4,0-0.9,0-1.4v-0.9C375.8,323.4,374.1,321.6,372.1,320z"/>
	<path class="st0" d="M267.3,314.6h-28.6c-13.9,0-25,11.2-25.2,25c0,0.1,0,0.2,0,0.3v37.3H251h41.5v-37.3
		C292.5,325.9,281.2,314.6,267.3,314.6z"/>
	<path class="st0" d="M178,314.6h-28.6c-13.9,0-25.2,11.4-25.2,25.2v37.3h41.5h37.5v-37.3c0-0.1,0-0.2,0-0.3
		C203.2,325.7,191.9,314.6,178,314.6z"/>
	<path class="st0" d="M88.9,314.6H60.3c-8.5,0-16.1,4.3-20.7,10.8v0.9c0,1.1,0,2.2,0.1,3.4c0.8,12.2,6,23.7,14.8,32.4
		c8.9,8.9,20.4,14,32.6,14.8c1,0.1,2.2,0.1,3.2,0.1h23.8v-37.2C114.1,325.9,102.8,314.6,88.9,314.6z"/>
</g>
<g>
	<path class="st3" d="M54.6,54.5c-9.6,9.6-15,22.4-15,35.9v7.4c0.2,0.3,0.3,0.4,0.5,0.7c1.5-10.8,6.5-20.9,14.5-28.8
		c9.6-9.6,22.4-15,35.9-15h23.8V39.6H90.5C76.9,39.5,64.2,44.8,54.6,54.5z"/>
	<rect x="213.5" y="39.5" class="st3" width="79.1" height="15.1"/>
	<path class="st3" d="M362.2,54.5c-9.6-9.6-22.4-15-35.9-15h-23.8v15.1h23.8c13.5,0,26.2,5.3,35.9,15c7.9,7.9,12.9,18,14.5,28.8
		c0.2-0.3,0.3-0.4,0.5-0.7v-7.3C377.2,76.8,371.8,64.1,362.2,54.5z"/>
	<path class="st3" d="M356.5,304.6h-28.6c-13.9,0-25.2,11.4-25.2,25.2v10c0-13.9,11.4-25.2,25.2-25.2h28.6c5.9,0,11.4,2.1,15.7,5.4
		c1.9,1.5,3.6,3.4,5.1,5.3v-7.7v-2.2C372.6,308.8,365,304.6,356.5,304.6z"/>
	<path class="st3" d="M267.3,304.6h-28.6c-13.9,0-25.2,11.4-25.2,25.2v9.6l0,0c0.2-13.8,11.4-25,25.2-25h28.6
		c13.9,0,25.2,11.4,25.2,25.2v-10C292.5,315.9,281.2,304.6,267.3,304.6z"/>
	<path class="st3" d="M178,304.6h-28.6c-13.9,0-25.2,11.4-25.2,25.2v10c0-13.9,11.4-25.2,25.2-25.2H178c13.9,0,25,11.2,25.2,25l0,0
		V330C203.3,315.9,192,304.6,178,304.6z"/>
	<path class="st3" d="M88.9,304.6H60.3c-8.5,0-16.1,4.3-20.7,10.8v10c4.6-6.5,12.1-10.8,20.7-10.8h28.6c13.9,0,25.2,11.4,25.2,25.2
		v-10C114.1,315.9,102.8,304.6,88.9,304.6z"/>
</g>
<path class="st4" d="M349,246.4c-48.9-15.6-102.9-4.9-106.3,5.2c-3.4,10,32.5-8.6,83,2.3c24.9,5.4,42.5,13.9,55.3,23.1
	c0-5.7,0-12,0-16.6C371.2,254.9,360.4,250.1,349,246.4z"/>
<path class="st5" d="M356.5,294.5h-28.6c-12.8,0-24.1,6.9-30.3,17.1c-6.2-10.2-17.5-17.1-30.3-17.1h-28.6
	c-12.8,0-24.1,6.9-30.3,17.1c-6.2-10.2-17.5-17.1-30.3-17.1h-28.6c-12.8,0-24.1,6.9-30.3,17.1c-6.2-10.2-17.5-17.1-30.3-17.1H60.2
	c-7.7,0-14.9,2.5-20.7,6.7v6.5v3.4v4.2c4.6-6.5,12.1-10.8,20.7-10.8h28.6c13.9,0,25.2,11.4,25.2,25.2v10V377h5.1h5.1v-37.3v-10
	c0-13.9,11.4-25.2,25.2-25.2H178c13.9,0,25.2,11.4,25.2,25.2v9.6l0,0c0,0.1,0,0.2,0,0.3v37.3h5.1h5.1v-37.3c0-0.1,0-0.2,0-0.3l0,0
	v-9.6c0-13.9,11.4-25.2,25.2-25.2h28.6c13.9,0,25.2,11.4,25.2,25.2v10V377h5.1h5.1v-2.7v-8.9v-25.7v-10c0-13.9,11.4-25.2,25.2-25.2
	h28.6c8.5,0,16.1,4.3,20.7,10.8v-4.2v-3.4v-6.5C371.3,297,364.2,294.5,356.5,294.5z"/>
<path class="st6" d="M326.4,0H90.3C40.5,0,0,40.5,0,90.3v236c0,49.8,40.5,90.3,90.3,90.3h64.9c0.3,0.3,0.5,0.7,0.8,1l44.7,52
	c1.9,2.2,4.7,3.5,7.7,3.5c2.9,0,5.8-1.3,7.7-3.5l44.6-51.9c0.3-0.3,0.6-0.7,0.9-1.1h64.9c49.8,0,90.3-40.5,90.3-90.3v-236
	C416.7,40.5,376.2,0,326.4,0z M302.7,54.6V39.5h23.8c13.5,0,26.2,5.3,35.9,15c9.6,9.6,15,22.4,15,35.9v7.3c-0.2,0.3-0.3,0.4-0.5,0.7
	c-4.6,6.1-12,10.1-20.2,10.1h-28.6c-13.9,0-25.2-11.4-25.2-25.2L302.7,54.6L302.7,54.6z M213.5,54.6V39.5h79.1v15.1v28.7
	c0,13.9-11.4,25.2-25.2,25.2h-28.6c-13.9,0-25.2-11.4-25.2-25.2L213.5,54.6L213.5,54.6z M39.6,90.3c0-13.5,5.3-26.2,15-35.9
	c9.6-9.6,22.4-15,35.9-15h23.8v15.1v28.7c0,13.9-11.4,25.2-25.2,25.2H60.4c-8.3,0-15.6-4-20.2-10.1c-0.2-0.3-0.3-0.4-0.5-0.7
	L39.6,90.3L39.6,90.3z M362.2,362.1c-9.6,9.6-22.4,15-35.9,15c0,0-238.1,0-239.2-0.1c-12.3-0.8-23.8-5.9-32.6-14.8
	c-8.9-8.9-14-20.2-14.8-32.4c-0.1-1.1-0.1-110.2-0.1-110.2V112c5.9,4.2,13,6.7,20.7,6.7h28.6c19.5,0,35.4-15.8,35.4-35.4V39.5h79.1
	v43.7c0,19.5,15.8,35.4,35.4,35.4h28.6c12.8,0,24.1-6.9,30.3-17.1c6.2,10.2,17.5,17.1,30.3,17.1h28.6c7.7,0,14.9-2.5,20.7-6.7v189.2
	c0,0,0,26.1,0,26.5C376.8,340.6,371.6,352.8,362.2,362.1z"/>
<path class="st4" d="M155,254.8c-49.7-8.3-67.5,17.5-74.6,10.3c-11.4-11.4,26.8-26.2,62.4-22.9c35.6,3.3,71.2,25,75.1,34.8
	C221.9,286.8,191.6,260.9,155,254.8z"/>
</svg>
