<?xml version="1.0" encoding="utf-8"?>
<!-- Generator: Adobe Illustrator 19.2.1, SVG Export Plug-In . SVG Version: 6.00 Build 0)  -->
<svg version="1.1" id="Layer_1" xmlns="http://www.w3.org/2000/svg" xmlns:xlink="http://www.w3.org/1999/xlink" x="0px" y="0px"
	 viewBox="0 0 908.4 746.4" style="enable-background:new 0 0 908.4 746.4;" xml:space="preserve">
<style type="text/css">
	.st0{fill:#14C1E5;}
	.st1{fill:#0C97C1;}
	.st2{fill:#FF016E;}
	.st3{fill:#FFFFFF;}
	.st4{fill:#DBDBDB;}
	.st5{opacity:0.44;fill:#FFFFFF;enable-background:new    ;}
	.st6{fill:#DB036A;}
</style>
<g>
	<path class="st0" d="M80.2,588.6H20.3c-12.9,0-19.4-8-19.4-23.9v-23.9h136.6c14.9,0,22.4,8.1,22.4,24.2c0,13.5-3.9,24.7-11.8,33.6
		l-66.2,98.2H159v24c0,16-6.4,24-19.1,24H0v-24.5c0-13.7,3.9-24.9,11.8-33.6L80.2,588.6z"/>
	<path class="st0" d="M341,689.5c0,19.2-8.2,33.6-24.5,42.9c-16.4,9.3-35,14-55.9,14s-39.5-4.7-55.9-14s-24.5-23.6-24.5-42.9V540.8
		h29.9c20,0,29.9,8.8,29.9,26.3v113.7c0,11.5,6.9,17.2,20.5,17.2c13.7,0,20.5-5.8,20.5-17.2V540.9h29.9c20,0,29.9,8.8,29.9,26.3
		L341,689.5L341,689.5z"/>
	<path class="st0" d="M522.8,684.4c0,40.3-21.4,60.5-64.1,60.5h-95.2v-204h90.7c40.7,0,61.1,16.2,61.1,48.6
		c0,21.4-8.1,36.1-24.5,44.4C512.2,644.1,522.8,661,522.8,684.4z M458.8,601.6c0-13.1-6.6-19.7-19.7-19.7h-15.7v39.3h16.3
		C452.5,621.2,458.8,614.7,458.8,601.6z M463.1,681c0-14.7-7.4-22.1-22.1-22.1h-17.5V703h18.1C455.9,703.1,463.1,695.7,463.1,681z"
		/>
	<path class="st0" d="M621,588.6h-59.9c-12.9,0-19.4-8-19.4-23.9v-23.9h136.6c14.9,0,22.4,8.1,22.4,24.2c0,13.5-3.9,24.7-11.8,33.6
		l-66.1,98.2h77.1v24c0,16-6.4,24-19.1,24H540.9v-24.5c0-13.7,3.9-24.9,11.8-33.6L621,588.6z"/>
	<path class="st0" d="M782.7,708.9l-5.8,15.4c-5.2,13.7-13.6,20.5-25.3,20.5c-11.8,0-20.2-3.6-25.2-10.8c-5.1-7.2-7.6-13.7-7.6-19.4
		c0-5.8,1.3-11.4,3.8-16.9l71.5-156.8h19.4c12.9,0,22.4,6.9,28.5,20.5l62.5,136.3c2.6,5.6,3.9,11.3,3.9,17.1
		c0,5.8-2.4,12.2-7.4,19.4c-5,7.2-13.4,10.7-25.3,10.7c-12,0-20.5-6.9-25.6-20.5l-5.8-15.4L782.7,708.9L782.7,708.9z M826.6,660.5
		l-13-35.3l-13,35.3H826.6z"/>
</g>
<path class="st1" d="M580,379.8H329.9c-25.7,0-46.7-21-46.7-46.7V83c0-25.7,21-46.7,46.7-46.7H580c25.7,0,46.7,21,46.7,46.7v250
	C626.8,358.7,605.8,379.8,580,379.8z"/>
<path class="st2" d="M535.7,225.8c-0.9,0-1.8,0-2.7,0c-26.3,0.3-51.5,6.6-75.6,18.4c-24.1-11.9-49.3-18.1-75.6-18.4
	c-0.9,0-1.8,0-2.7,0c-36.7,0-69.6,11.3-95.9,24.7c0,16,0,136.4,0,136.4h343.6c0,0,0-120.3,0-138.7
	C601.4,235.8,570.2,225.8,535.7,225.8z"/>
<g>
	<path class="st3" d="M300.4,69.5c-7.9,7.9-12.9,18-14.5,28.8c4.6,6.1,12,10.1,20.2,10.1h28.6c13.9,0,25.2-11.4,25.2-25.2V54.5
		h-23.8C322.7,54.6,310,59.9,300.4,69.5z"/>
	<path class="st3" d="M459.3,83.2c0,13.9,11.4,25.2,25.2,25.2h28.6c13.9,0,25.2-11.4,25.2-25.2V54.5h-79L459.3,83.2L459.3,83.2z"/>
	<path class="st3" d="M573.7,108.4h28.6c8.3,0,15.6-4,20.2-10.1C621,87.5,616,77.4,608,69.5c-9.6-9.6-22.4-15-35.9-15h-23.8v28.7
		C548.5,97.1,559.8,108.4,573.7,108.4z"/>
	<path class="st3" d="M617.9,320c-4.3-3.4-9.7-5.4-15.7-5.4h-28.6c-13.9,0-25.2,11.4-25.2,25.2v25.7v8.9v2.7h23.8
		c13.5,0,26.2-5.3,35.9-15c9.3-9.3,14.5-21.5,14.9-34.5c0-0.4,0-0.9,0-1.4v-0.9C621.6,323.4,619.9,321.6,617.9,320z"/>
	<path class="st3" d="M513.1,314.6h-28.6c-13.9,0-25,11.2-25.2,25c0,0.1,0,0.2,0,0.3v37.3h37.5h41.5v-37.3
		C538.3,325.9,527,314.6,513.1,314.6z"/>
	<path class="st3" d="M423.8,314.6h-28.6c-13.9,0-25.2,11.4-25.2,25.2v37.3h41.5H449v-37.3c0-0.1,0-0.2,0-0.3
		C449,325.7,437.7,314.6,423.8,314.6z"/>
	<path class="st3" d="M334.7,314.6h-28.6c-8.5,0-16.1,4.3-20.7,10.8v0.9c0,1.1,0,2.2,0.1,3.4c0.8,12.2,6,23.7,14.8,32.4
		c8.9,8.9,20.4,14,32.6,14.8c1,0.1,2.2,0.1,3.2,0.1h23.8v-37.2C359.9,325.9,348.6,314.6,334.7,314.6z"/>
</g>
<g>
	<path class="st4" d="M300.4,54.5c-9.6,9.6-15,22.4-15,35.9v7.4c0.2,0.3,0.3,0.4,0.5,0.7c1.5-10.8,6.5-20.9,14.5-28.8
		c9.6-9.6,22.4-15,35.9-15h23.8V39.6h-23.8C322.7,39.5,310,44.8,300.4,54.5z"/>
	<rect x="459.3" y="39.5" class="st4" width="79.1" height="15.1"/>
	<path class="st4" d="M608,54.5c-9.6-9.6-22.4-15-35.9-15h-23.8v15.1h23.8c13.5,0,26.2,5.3,35.9,15c7.9,7.9,12.9,18,14.5,28.8
		c0.2-0.3,0.3-0.4,0.5-0.7v-7.3C623,76.8,617.6,64.1,608,54.5z"/>
	<path class="st4" d="M602.3,304.6h-28.6c-13.9,0-25.2,11.4-25.2,25.2v10c0-13.9,11.4-25.2,25.2-25.2h28.6c5.9,0,11.4,2.1,15.7,5.4
		c1.9,1.5,3.6,3.4,5.1,5.3v-7.7v-2.2C618.4,308.8,610.8,304.6,602.3,304.6z"/>
	<path class="st4" d="M513.1,304.6h-28.6c-13.9,0-25.2,11.4-25.2,25.2v9.6l0,0c0.2-13.8,11.4-25,25.2-25h28.6
		c13.9,0,25.2,11.4,25.2,25.2v-10C538.3,315.9,527,304.6,513.1,304.6z"/>
	<path class="st4" d="M423.8,304.6h-28.6c-13.9,0-25.2,11.4-25.2,25.2v10c0-13.9,11.4-25.2,25.2-25.2h28.6c13.9,0,25,11.2,25.2,25
		l0,0V330C449.1,315.9,437.8,304.6,423.8,304.6z"/>
	<path class="st4" d="M334.7,304.6h-28.6c-8.5,0-16.1,4.3-20.7,10.8v10c4.6-6.5,12.1-10.8,20.7-10.8h28.6
		c13.9,0,25.2,11.4,25.2,25.2v-10C359.9,315.9,348.6,304.6,334.7,304.6z"/>
</g>
<path class="st5" d="M594.8,246.4c-48.9-15.6-102.9-4.9-106.3,5.2c-3.4,10,32.5-8.6,83,2.3c24.9,5.4,42.5,13.9,55.3,23.1
	c0-5.7,0-12,0-16.6C617,254.9,606.2,250.1,594.8,246.4z"/>
<path class="st6" d="M602.3,294.5h-28.6c-12.8,0-24.1,6.9-30.3,17.1c-6.2-10.2-17.5-17.1-30.3-17.1h-28.6
	c-12.8,0-24.1,6.9-30.3,17.1c-6.2-10.2-17.5-17.1-30.3-17.1h-28.6c-12.8,0-24.1,6.9-30.3,17.1c-6.2-10.2-17.5-17.1-30.3-17.1H306
	c-7.7,0-14.9,2.5-20.7,6.7v6.5v3.4v4.2c4.6-6.5,12.1-10.8,20.7-10.8h28.6c13.9,0,25.2,11.4,25.2,25.2v10V377h5.1h5.1v-37.3v-10
	c0-13.9,11.4-25.2,25.2-25.2h28.6c13.9,0,25.2,11.4,25.2,25.2v9.6l0,0c0,0.1,0,0.2,0,0.3v37.3h5.1h5.1v-37.3c0-0.1,0-0.2,0-0.3l0,0
	v-9.6c0-13.9,11.4-25.2,25.2-25.2H513c13.9,0,25.2,11.4,25.2,25.2v10V377h5.1h5.1v-2.7v-8.9v-25.7v-10c0-13.9,11.4-25.2,25.2-25.2
	h28.6c8.5,0,16.1,4.3,20.7,10.8v-4.2v-3.4v-6.5C617.1,297,610,294.5,602.3,294.5z"/>
<path class="st0" d="M572.2,0H336.1c-49.8,0-90.3,40.5-90.3,90.3v236c0,49.8,40.5,90.3,90.3,90.3H401c0.3,0.3,0.5,0.7,0.8,1l44.7,52
	c1.9,2.2,4.7,3.5,7.7,3.5c2.9,0,5.8-1.3,7.7-3.5l44.6-51.9c0.3-0.3,0.6-0.7,0.9-1.1h64.9c49.8,0,90.3-40.5,90.3-90.3v-236
	C662.5,40.5,622,0,572.2,0z M548.5,54.6V39.5h23.8c13.5,0,26.2,5.3,35.9,15c9.6,9.6,15,22.4,15,35.9v7.3c-0.2,0.3-0.3,0.4-0.5,0.7
	c-4.6,6.1-12,10.1-20.2,10.1h-28.6c-13.9,0-25.2-11.4-25.2-25.2L548.5,54.6L548.5,54.6z M459.3,54.6V39.5h79.1v15.1v28.7
	c0,13.9-11.4,25.2-25.2,25.2h-28.6c-13.9,0-25.2-11.4-25.2-25.2L459.3,54.6L459.3,54.6z M285.4,90.3c0-13.5,5.3-26.2,15-35.9
	c9.6-9.6,22.4-15,35.9-15h23.8v15.1v28.7c0,13.9-11.4,25.2-25.2,25.2h-28.7c-8.3,0-15.6-4-20.2-10.1c-0.2-0.3-0.3-0.4-0.5-0.7v-7.3
	H285.4z M608,362.1c-9.6,9.6-22.4,15-35.9,15c0,0-238.1,0-239.2-0.1c-12.3-0.8-23.8-5.9-32.6-14.8c-8.9-8.9-14-20.2-14.8-32.4
	c-0.1-1.1-0.1-110.2-0.1-110.2V112c5.9,4.2,13,6.7,20.7,6.7h28.6c19.5,0,35.4-15.8,35.4-35.4V39.5h79.1v43.7
	c0,19.5,15.8,35.4,35.4,35.4h28.6c12.8,0,24.1-6.9,30.3-17.1c6.2,10.2,17.5,17.1,30.3,17.1h28.6c7.7,0,14.9-2.5,20.7-6.7v189.2
	c0,0,0,26.1,0,26.5C622.6,340.6,617.4,352.8,608,362.1z"/>
<path class="st5" d="M400.8,254.8c-49.7-8.3-67.5,17.5-74.6,10.3c-11.4-11.4,26.8-26.2,62.4-22.9s71.2,25,75.1,34.8
	C467.7,286.8,437.4,260.9,400.8,254.8z"/>
</svg>
